<mxfile host="Electron" modified="2024-06-21T05:57:19.940Z" agent="Mozilla/5.0 (Macintosh; Intel Mac OS X 10_15_7) AppleWebKit/537.36 (KHTML, like Gecko) draw.io/24.5.3 Chrome/124.0.6367.207 Electron/30.0.6 Safari/537.36" etag="9gXO9NshWWST6vVBbxIy" version="24.5.3" type="device" pages="2">
  <diagram name="Page-1" id="aKNRLk2qgXjJ-oTQlgiH">
    <mxGraphModel dx="8627" dy="7873" grid="0" gridSize="10" guides="1" tooltips="1" connect="1" arrows="1" fold="1" page="0" pageScale="1" pageWidth="850" pageHeight="1100" math="0" shadow="0">
      <root>
        <mxCell id="0" />
        <mxCell id="1" parent="0" />
        <mxCell id="T8YUp5Tc-A9OWKvrUfil-1" value="问题安全属性分类配置" style="shape=folder;fontStyle=1;tabWidth=110;tabHeight=30;tabPosition=left;html=1;boundedLbl=1;labelInHeader=1;container=1;collapsible=0;recursiveResize=0;whiteSpace=wrap;hachureGap=4;fontFamily=Architects Daughter;fontSource=https%3A%2F%2Ffonts.googleapis.com%2Fcss%3Ffamily%3DArchitects%2BDaughter;labelBackgroundColor=none;fillColor=#f7f5f3;strokeColor=#E07A5F;fontColor=#393C56;" parent="1" vertex="1">
          <mxGeometry x="1139" y="-57" width="529" height="434" as="geometry" />
        </mxCell>
        <mxCell id="T8YUp5Tc-A9OWKvrUfil-6" style="edgeStyle=orthogonalEdgeStyle;rounded=0;orthogonalLoop=1;jettySize=auto;html=1;endArrow=diamondThin;endFill=1;labelBackgroundColor=none;fontColor=default;strokeColor=#E07A5F;" parent="T8YUp5Tc-A9OWKvrUfil-1" edge="1">
          <mxGeometry relative="1" as="geometry">
            <mxPoint x="137.00000000000045" y="131" as="targetPoint" />
          </mxGeometry>
        </mxCell>
        <mxCell id="T8YUp5Tc-A9OWKvrUfil-7" value="问题安全属性分类&lt;div&gt;Security Attribute Type&lt;br&gt;&lt;/div&gt;" style="swimlane;fontStyle=1;align=center;verticalAlign=middle;childLayout=stackLayout;horizontal=1;startSize=29;horizontalStack=0;resizeParent=1;resizeParentMax=0;resizeLast=0;collapsible=0;marginBottom=0;html=1;whiteSpace=wrap;labelBackgroundColor=none;fillColor=#F2CC8F;strokeColor=#E07A5F;fontColor=#393C56;" parent="T8YUp5Tc-A9OWKvrUfil-1" vertex="1">
          <mxGeometry x="102" y="153" width="262" height="176" as="geometry" />
        </mxCell>
        <mxCell id="T8YUp5Tc-A9OWKvrUfil-8" value="id" style="text;html=1;strokeColor=none;fillColor=none;align=left;verticalAlign=middle;spacingLeft=4;spacingRight=4;overflow=hidden;rotatable=0;points=[[0,0.5],[1,0.5]];portConstraint=eastwest;whiteSpace=wrap;labelBackgroundColor=none;fontColor=#393C56;" parent="T8YUp5Tc-A9OWKvrUfil-7" vertex="1">
          <mxGeometry y="29" width="262" height="25" as="geometry" />
        </mxCell>
        <mxCell id="T8YUp5Tc-A9OWKvrUfil-12" value="parentId" style="text;html=1;strokeColor=none;fillColor=none;align=left;verticalAlign=middle;spacingLeft=4;spacingRight=4;overflow=hidden;rotatable=0;points=[[0,0.5],[1,0.5]];portConstraint=eastwest;whiteSpace=wrap;labelBackgroundColor=none;fontColor=#393C56;" parent="T8YUp5Tc-A9OWKvrUfil-7" vertex="1">
          <mxGeometry y="54" width="262" height="25" as="geometry" />
        </mxCell>
        <mxCell id="T8YUp5Tc-A9OWKvrUfil-13" value="level 所属级别，1 级为顶层最多 5 层" style="text;html=1;strokeColor=none;fillColor=none;align=left;verticalAlign=middle;spacingLeft=4;spacingRight=4;overflow=hidden;rotatable=0;points=[[0,0.5],[1,0.5]];portConstraint=eastwest;whiteSpace=wrap;labelBackgroundColor=none;fontColor=#393C56;" parent="T8YUp5Tc-A9OWKvrUfil-7" vertex="1">
          <mxGeometry y="79" width="262" height="22" as="geometry" />
        </mxCell>
        <mxCell id="T8YUp5Tc-A9OWKvrUfil-14" value="osBasicsId 所属行业" style="text;html=1;strokeColor=none;fillColor=none;align=left;verticalAlign=middle;spacingLeft=4;spacingRight=4;overflow=hidden;rotatable=0;points=[[0,0.5],[1,0.5]];portConstraint=eastwest;whiteSpace=wrap;labelBackgroundColor=none;fontColor=#393C56;" parent="T8YUp5Tc-A9OWKvrUfil-7" vertex="1">
          <mxGeometry y="101" width="262" height="25" as="geometry" />
        </mxCell>
        <mxCell id="T8YUp5Tc-A9OWKvrUfil-25" value="osBasicsId 所属行业" style="text;html=1;strokeColor=none;fillColor=none;align=left;verticalAlign=middle;spacingLeft=4;spacingRight=4;overflow=hidden;rotatable=0;points=[[0,0.5],[1,0.5]];portConstraint=eastwest;whiteSpace=wrap;labelBackgroundColor=none;fontColor=#393C56;" parent="T8YUp5Tc-A9OWKvrUfil-7" vertex="1">
          <mxGeometry y="126" width="262" height="25" as="geometry" />
        </mxCell>
        <mxCell id="T8YUp5Tc-A9OWKvrUfil-15" value="attributuType 属性分类" style="text;html=1;strokeColor=none;fillColor=none;align=left;verticalAlign=middle;spacingLeft=4;spacingRight=4;overflow=hidden;rotatable=0;points=[[0,0.5],[1,0.5]];portConstraint=eastwest;whiteSpace=wrap;labelBackgroundColor=none;fontColor=#393C56;" parent="T8YUp5Tc-A9OWKvrUfil-7" vertex="1">
          <mxGeometry y="151" width="262" height="25" as="geometry" />
        </mxCell>
        <mxCell id="5EymK1zPYxXH_i-VZODK-18" value="整改" style="shape=folder;fontStyle=1;tabWidth=110;tabHeight=30;tabPosition=left;html=1;boundedLbl=1;labelInHeader=1;container=1;collapsible=0;recursiveResize=0;whiteSpace=wrap;hachureGap=4;strokeColor=#E07A5F;fontFamily=Architects Daughter;fontSource=https%3A%2F%2Ffonts.googleapis.com%2Fcss%3Ffamily%3DArchitects%2BDaughter;fontColor=#393C56;fillColor=#f7f5f3;labelBackgroundColor=none;" parent="1" vertex="1">
          <mxGeometry x="1286" y="504" width="1267" height="683" as="geometry" />
        </mxCell>
        <mxCell id="5EymK1zPYxXH_i-VZODK-29" style="edgeStyle=orthogonalEdgeStyle;rounded=0;hachureGap=4;orthogonalLoop=1;jettySize=auto;html=1;strokeColor=#E07A5F;fontFamily=Helvetica;fontColor=default;fillColor=#F2CC8F;endArrow=diamondThin;endFill=0;endSize=16;labelBackgroundColor=none;" parent="5EymK1zPYxXH_i-VZODK-18" edge="1">
          <mxGeometry relative="1" as="geometry">
            <mxPoint x="230" y="144.11111111111086" as="targetPoint" />
          </mxGeometry>
        </mxCell>
        <mxCell id="p-8t-V-ckBDJTkTwqZwC-64" value="行政整改文书" style="shape=folder;fontStyle=1;tabWidth=110;tabHeight=30;tabPosition=left;html=1;boundedLbl=1;labelInHeader=1;container=1;collapsible=0;recursiveResize=0;whiteSpace=wrap;labelBackgroundColor=none;fillColor=#f7f5f3;strokeColor=#E07A5F;fontColor=#393C56;" parent="5EymK1zPYxXH_i-VZODK-18" vertex="1">
          <mxGeometry x="124" y="76" width="425" height="260" as="geometry" />
        </mxCell>
        <mxCell id="p-8t-V-ckBDJTkTwqZwC-14" value="行政整改文书&lt;div&gt;Rectify&lt;br&gt;&lt;/div&gt;" style="swimlane;fontStyle=1;align=center;verticalAlign=middle;childLayout=stackLayout;horizontal=1;startSize=29;horizontalStack=0;resizeParent=1;resizeParentMax=0;resizeLast=0;collapsible=0;marginBottom=0;html=1;whiteSpace=wrap;labelBackgroundColor=none;fillColor=#F2CC8F;strokeColor=#E07A5F;fontColor=#393C56;" parent="p-8t-V-ckBDJTkTwqZwC-64" vertex="1">
          <mxGeometry x="50" y="45" width="140" height="54" as="geometry" />
        </mxCell>
        <mxCell id="p-8t-V-ckBDJTkTwqZwC-13" value="行政整改文书明细&lt;div&gt;Rectify Detail&lt;br&gt;&lt;/div&gt;" style="swimlane;fontStyle=1;align=center;verticalAlign=middle;childLayout=stackLayout;horizontal=1;startSize=29;horizontalStack=0;resizeParent=1;resizeParentMax=0;resizeLast=0;collapsible=0;marginBottom=0;html=1;whiteSpace=wrap;labelBackgroundColor=none;fillColor=#F2CC8F;strokeColor=#E07A5F;fontColor=#393C56;" parent="p-8t-V-ckBDJTkTwqZwC-64" vertex="1">
          <mxGeometry x="50" y="165" width="140" height="54" as="geometry" />
        </mxCell>
        <mxCell id="p-8t-V-ckBDJTkTwqZwC-15" style="edgeStyle=orthogonalEdgeStyle;rounded=0;orthogonalLoop=1;jettySize=auto;html=1;endArrow=diamondThin;endFill=1;labelBackgroundColor=none;fontColor=default;strokeColor=#E07A5F;" parent="p-8t-V-ckBDJTkTwqZwC-64" source="p-8t-V-ckBDJTkTwqZwC-13" target="p-8t-V-ckBDJTkTwqZwC-14" edge="1">
          <mxGeometry relative="1" as="geometry" />
        </mxCell>
        <mxCell id="p-8t-V-ckBDJTkTwqZwC-20" value="行政整改文书审批历史" style="swimlane;fontStyle=1;align=center;verticalAlign=middle;childLayout=stackLayout;horizontal=1;startSize=29;horizontalStack=0;resizeParent=1;resizeParentMax=0;resizeLast=0;collapsible=0;marginBottom=0;html=1;whiteSpace=wrap;labelBackgroundColor=none;fillColor=#F2CC8F;strokeColor=#E07A5F;fontColor=#393C56;" parent="p-8t-V-ckBDJTkTwqZwC-64" vertex="1">
          <mxGeometry x="230" y="45" width="140" height="54" as="geometry" />
        </mxCell>
        <mxCell id="p-8t-V-ckBDJTkTwqZwC-21" style="edgeStyle=orthogonalEdgeStyle;rounded=0;orthogonalLoop=1;jettySize=auto;html=1;endArrow=diamondThin;endFill=1;labelBackgroundColor=none;fontColor=default;strokeColor=#E07A5F;" parent="p-8t-V-ckBDJTkTwqZwC-64" source="p-8t-V-ckBDJTkTwqZwC-20" target="p-8t-V-ckBDJTkTwqZwC-14" edge="1">
          <mxGeometry relative="1" as="geometry" />
        </mxCell>
        <mxCell id="p-8t-V-ckBDJTkTwqZwC-62" value="整改措施报告" style="shape=folder;fontStyle=1;tabWidth=110;tabHeight=30;tabPosition=left;html=1;boundedLbl=1;labelInHeader=1;container=1;collapsible=0;recursiveResize=0;whiteSpace=wrap;labelBackgroundColor=none;fillColor=#f7f5f3;strokeColor=#E07A5F;fontColor=#393C56;" parent="5EymK1zPYxXH_i-VZODK-18" vertex="1">
          <mxGeometry x="81" y="358" width="310" height="293" as="geometry" />
        </mxCell>
        <mxCell id="p-8t-V-ckBDJTkTwqZwC-22" value="整改措施报告&lt;div&gt;Rectify Feedback&lt;/div&gt;" style="swimlane;fontStyle=1;align=center;verticalAlign=middle;childLayout=stackLayout;horizontal=1;startSize=29;horizontalStack=0;resizeParent=1;resizeParentMax=0;resizeLast=0;collapsible=0;marginBottom=0;html=1;whiteSpace=wrap;labelBackgroundColor=none;fillColor=#F2CC8F;strokeColor=#E07A5F;fontColor=#393C56;" parent="p-8t-V-ckBDJTkTwqZwC-62" vertex="1">
          <mxGeometry x="40" y="70" width="140" height="54" as="geometry" />
        </mxCell>
        <mxCell id="p-8t-V-ckBDJTkTwqZwC-23" value="整改措施明细&lt;div&gt;Rectify&amp;nbsp;&lt;span style=&quot;background-color: initial;&quot;&gt;Feedback&lt;/span&gt;&lt;span style=&quot;background-color: initial;&quot;&gt;&amp;nbsp;Detail&lt;/span&gt;&lt;/div&gt;" style="swimlane;fontStyle=1;align=center;verticalAlign=middle;childLayout=stackLayout;horizontal=1;startSize=29;horizontalStack=0;resizeParent=1;resizeParentMax=0;resizeLast=0;collapsible=0;marginBottom=0;html=1;whiteSpace=wrap;labelBackgroundColor=none;fillColor=#F2CC8F;strokeColor=#E07A5F;fontColor=#393C56;" parent="p-8t-V-ckBDJTkTwqZwC-62" vertex="1">
          <mxGeometry x="40" y="200" width="140" height="54" as="geometry" />
        </mxCell>
        <mxCell id="p-8t-V-ckBDJTkTwqZwC-24" style="edgeStyle=orthogonalEdgeStyle;rounded=0;orthogonalLoop=1;jettySize=auto;html=1;endArrow=diamondThin;endFill=1;labelBackgroundColor=none;fontColor=default;strokeColor=#E07A5F;" parent="p-8t-V-ckBDJTkTwqZwC-62" source="p-8t-V-ckBDJTkTwqZwC-23" target="p-8t-V-ckBDJTkTwqZwC-22" edge="1">
          <mxGeometry relative="1" as="geometry" />
        </mxCell>
        <mxCell id="p-8t-V-ckBDJTkTwqZwC-25" style="edgeStyle=orthogonalEdgeStyle;rounded=0;orthogonalLoop=1;jettySize=auto;html=1;endArrow=open;endFill=0;dashed=1;labelBackgroundColor=none;fontColor=default;strokeColor=#E07A5F;" parent="5EymK1zPYxXH_i-VZODK-18" source="p-8t-V-ckBDJTkTwqZwC-23" target="p-8t-V-ckBDJTkTwqZwC-13" edge="1">
          <mxGeometry relative="1" as="geometry">
            <Array as="points">
              <mxPoint x="306" y="559" />
              <mxPoint x="306" y="427" />
              <mxPoint x="301" y="427" />
            </Array>
          </mxGeometry>
        </mxCell>
        <mxCell id="p-8t-V-ckBDJTkTwqZwC-34" value="1..1" style="edgeLabel;html=1;align=center;verticalAlign=middle;resizable=0;points=[];labelBackgroundColor=none;fontColor=#393C56;" parent="p-8t-V-ckBDJTkTwqZwC-25" vertex="1" connectable="0">
          <mxGeometry x="-0.9221" y="-1" relative="1" as="geometry">
            <mxPoint y="-11" as="offset" />
          </mxGeometry>
        </mxCell>
        <mxCell id="p-8t-V-ckBDJTkTwqZwC-35" value="1..1" style="edgeLabel;html=1;align=center;verticalAlign=middle;resizable=0;points=[];labelBackgroundColor=none;fontColor=#393C56;" parent="p-8t-V-ckBDJTkTwqZwC-25" vertex="1" connectable="0">
          <mxGeometry x="0.8929" y="-1" relative="1" as="geometry">
            <mxPoint x="-11" as="offset" />
          </mxGeometry>
        </mxCell>
        <mxCell id="p-8t-V-ckBDJTkTwqZwC-72" value="整改措施复查单" style="shape=folder;fontStyle=1;tabWidth=110;tabHeight=30;tabPosition=left;html=1;boundedLbl=1;labelInHeader=1;container=1;collapsible=0;recursiveResize=0;whiteSpace=wrap;labelBackgroundColor=none;fillColor=#f7f5f3;strokeColor=#E07A5F;fontColor=#393C56;" parent="5EymK1zPYxXH_i-VZODK-18" vertex="1">
          <mxGeometry x="575" y="383" width="330" height="260" as="geometry" />
        </mxCell>
        <mxCell id="p-8t-V-ckBDJTkTwqZwC-28" value="整改措施复查单&lt;div&gt;Rectify Recheck&lt;/div&gt;" style="swimlane;fontStyle=1;align=center;verticalAlign=middle;childLayout=stackLayout;horizontal=1;startSize=29;horizontalStack=0;resizeParent=1;resizeParentMax=0;resizeLast=0;collapsible=0;marginBottom=0;html=1;whiteSpace=wrap;labelBackgroundColor=none;fillColor=#F2CC8F;strokeColor=#E07A5F;fontColor=#393C56;" parent="p-8t-V-ckBDJTkTwqZwC-72" vertex="1">
          <mxGeometry x="50" y="80" width="140" height="54" as="geometry" />
        </mxCell>
        <mxCell id="p-8t-V-ckBDJTkTwqZwC-29" value="整改措施复查明细&lt;div&gt;Rectify Recheck Detail&lt;/div&gt;" style="swimlane;fontStyle=1;align=center;verticalAlign=middle;childLayout=stackLayout;horizontal=1;startSize=29;horizontalStack=0;resizeParent=1;resizeParentMax=0;resizeLast=0;collapsible=0;marginBottom=0;html=1;whiteSpace=wrap;labelBackgroundColor=none;fillColor=#F2CC8F;strokeColor=#E07A5F;fontColor=#393C56;" parent="p-8t-V-ckBDJTkTwqZwC-72" vertex="1">
          <mxGeometry x="50" y="160" width="140" height="54" as="geometry" />
        </mxCell>
        <mxCell id="p-8t-V-ckBDJTkTwqZwC-30" style="edgeStyle=orthogonalEdgeStyle;rounded=0;orthogonalLoop=1;jettySize=auto;html=1;endArrow=diamondThin;endFill=1;labelBackgroundColor=none;fontColor=default;strokeColor=#E07A5F;" parent="p-8t-V-ckBDJTkTwqZwC-72" source="p-8t-V-ckBDJTkTwqZwC-29" target="p-8t-V-ckBDJTkTwqZwC-28" edge="1">
          <mxGeometry relative="1" as="geometry" />
        </mxCell>
        <mxCell id="p-8t-V-ckBDJTkTwqZwC-33" style="edgeStyle=orthogonalEdgeStyle;rounded=0;orthogonalLoop=1;jettySize=auto;html=1;dashed=1;labelBackgroundColor=none;fontColor=default;strokeColor=#E07A5F;endArrow=open;endFill=0;" parent="5EymK1zPYxXH_i-VZODK-18" source="p-8t-V-ckBDJTkTwqZwC-29" target="p-8t-V-ckBDJTkTwqZwC-23" edge="1">
          <mxGeometry relative="1" as="geometry">
            <Array as="points" />
            <mxPoint x="474" y="530" as="sourcePoint" />
            <mxPoint x="193" y="546" as="targetPoint" />
          </mxGeometry>
        </mxCell>
        <mxCell id="p-8t-V-ckBDJTkTwqZwC-36" value="1..1" style="edgeLabel;html=1;align=center;verticalAlign=middle;resizable=0;points=[];labelBackgroundColor=none;fontColor=#393C56;" parent="p-8t-V-ckBDJTkTwqZwC-33" vertex="1" connectable="0">
          <mxGeometry x="-0.8091" y="-1" relative="1" as="geometry">
            <mxPoint y="-10" as="offset" />
          </mxGeometry>
        </mxCell>
        <mxCell id="p-8t-V-ckBDJTkTwqZwC-74" value="延期申请" style="shape=folder;fontStyle=1;tabWidth=110;tabHeight=30;tabPosition=left;html=1;boundedLbl=1;labelInHeader=1;container=1;collapsible=0;recursiveResize=0;whiteSpace=wrap;labelBackgroundColor=none;fillColor=#f7f5f3;strokeColor=#E07A5F;fontColor=#393C56;" parent="5EymK1zPYxXH_i-VZODK-18" vertex="1">
          <mxGeometry x="642" y="45" width="593" height="330" as="geometry" />
        </mxCell>
        <mxCell id="p-8t-V-ckBDJTkTwqZwC-77" style="edgeStyle=orthogonalEdgeStyle;rounded=0;orthogonalLoop=1;jettySize=auto;html=1;endArrow=diamondThin;endFill=1;labelBackgroundColor=none;fontColor=default;strokeColor=#E07A5F;" parent="p-8t-V-ckBDJTkTwqZwC-74" edge="1">
          <mxGeometry relative="1" as="geometry">
            <mxPoint x="120" y="134" as="targetPoint" />
          </mxGeometry>
        </mxCell>
        <mxCell id="p-8t-V-ckBDJTkTwqZwC-50" value="延期申请&lt;div&gt;Rectify Delay&lt;/div&gt;" style="swimlane;fontStyle=1;align=center;verticalAlign=middle;childLayout=stackLayout;horizontal=1;startSize=29;horizontalStack=0;resizeParent=1;resizeParentMax=0;resizeLast=0;collapsible=0;marginBottom=0;html=1;whiteSpace=wrap;labelBackgroundColor=none;fillColor=#F2CC8F;strokeColor=#E07A5F;fontColor=#393C56;" parent="p-8t-V-ckBDJTkTwqZwC-74" vertex="1">
          <mxGeometry x="30" y="80" width="140" height="54" as="geometry" />
        </mxCell>
        <mxCell id="p-8t-V-ckBDJTkTwqZwC-54" value="延期申请批复&lt;div&gt;Rectify Delay Reply&lt;/div&gt;" style="swimlane;fontStyle=1;align=center;verticalAlign=middle;childLayout=stackLayout;horizontal=1;startSize=29;horizontalStack=0;resizeParent=1;resizeParentMax=0;resizeLast=0;collapsible=0;marginBottom=0;html=1;whiteSpace=wrap;labelBackgroundColor=none;fillColor=#F2CC8F;strokeColor=#E07A5F;fontColor=#393C56;" parent="p-8t-V-ckBDJTkTwqZwC-74" vertex="1">
          <mxGeometry x="270" y="80" width="140" height="54" as="geometry" />
        </mxCell>
        <mxCell id="p-8t-V-ckBDJTkTwqZwC-55" style="edgeStyle=orthogonalEdgeStyle;rounded=0;orthogonalLoop=1;jettySize=auto;html=1;endArrow=open;endFill=0;labelBackgroundColor=none;fontColor=default;strokeColor=#E07A5F;" parent="p-8t-V-ckBDJTkTwqZwC-74" source="p-8t-V-ckBDJTkTwqZwC-54" target="p-8t-V-ckBDJTkTwqZwC-50" edge="1">
          <mxGeometry relative="1" as="geometry" />
        </mxCell>
        <mxCell id="p-8t-V-ckBDJTkTwqZwC-56" value="1..1" style="edgeLabel;html=1;align=center;verticalAlign=middle;resizable=0;points=[];labelBackgroundColor=none;fontColor=#393C56;" parent="p-8t-V-ckBDJTkTwqZwC-55" vertex="1" connectable="0">
          <mxGeometry x="0.775" y="-2" relative="1" as="geometry">
            <mxPoint y="-7" as="offset" />
          </mxGeometry>
        </mxCell>
        <mxCell id="p-8t-V-ckBDJTkTwqZwC-57" value="0..1" style="edgeLabel;html=1;align=center;verticalAlign=middle;resizable=0;points=[];labelBackgroundColor=none;fontColor=#393C56;" parent="p-8t-V-ckBDJTkTwqZwC-55" vertex="1" connectable="0">
          <mxGeometry x="-0.7625" y="-1" relative="1" as="geometry">
            <mxPoint y="-8" as="offset" />
          </mxGeometry>
        </mxCell>
        <mxCell id="p-8t-V-ckBDJTkTwqZwC-58" value="延期申请批复审批历史&lt;div&gt;Rectify Delay Approval History&lt;br&gt;&lt;/div&gt;" style="swimlane;fontStyle=1;align=center;verticalAlign=middle;childLayout=stackLayout;horizontal=1;startSize=29;horizontalStack=0;resizeParent=1;resizeParentMax=0;resizeLast=0;collapsible=0;marginBottom=0;html=1;whiteSpace=wrap;labelBackgroundColor=none;fillColor=#F2CC8F;strokeColor=#E07A5F;fontColor=#393C56;" parent="p-8t-V-ckBDJTkTwqZwC-74" vertex="1">
          <mxGeometry x="270" y="230" width="140" height="54" as="geometry" />
        </mxCell>
        <mxCell id="p-8t-V-ckBDJTkTwqZwC-61" style="edgeStyle=orthogonalEdgeStyle;rounded=0;orthogonalLoop=1;jettySize=auto;html=1;endArrow=diamondThin;endFill=1;labelBackgroundColor=none;fontColor=default;strokeColor=#E07A5F;" parent="p-8t-V-ckBDJTkTwqZwC-74" source="p-8t-V-ckBDJTkTwqZwC-58" target="p-8t-V-ckBDJTkTwqZwC-54" edge="1">
          <mxGeometry relative="1" as="geometry" />
        </mxCell>
        <mxCell id="p-8t-V-ckBDJTkTwqZwC-51" value="延期申请（问题）明细&lt;div&gt;Rectify Delay Detail&lt;/div&gt;" style="swimlane;fontStyle=1;align=center;verticalAlign=middle;childLayout=stackLayout;horizontal=1;startSize=29;horizontalStack=0;resizeParent=1;resizeParentMax=0;resizeLast=0;collapsible=0;marginBottom=0;html=1;whiteSpace=wrap;labelBackgroundColor=none;fillColor=#F2CC8F;strokeColor=#E07A5F;fontColor=#393C56;" parent="p-8t-V-ckBDJTkTwqZwC-74" vertex="1">
          <mxGeometry x="30" y="230" width="140" height="54" as="geometry" />
        </mxCell>
        <mxCell id="p-8t-V-ckBDJTkTwqZwC-53" style="edgeStyle=orthogonalEdgeStyle;rounded=0;orthogonalLoop=1;jettySize=auto;html=1;endArrow=diamondThin;endFill=1;labelBackgroundColor=none;fontColor=default;strokeColor=#E07A5F;" parent="p-8t-V-ckBDJTkTwqZwC-74" source="p-8t-V-ckBDJTkTwqZwC-51" target="p-8t-V-ckBDJTkTwqZwC-50" edge="1">
          <mxGeometry relative="1" as="geometry" />
        </mxCell>
        <mxCell id="5EymK1zPYxXH_i-VZODK-1" value="延期申请（问题）明细&lt;div&gt;Rectify Delay Detail&lt;/div&gt;" style="swimlane;fontStyle=1;align=center;verticalAlign=middle;childLayout=stackLayout;horizontal=1;startSize=29;horizontalStack=0;resizeParent=1;resizeParentMax=0;resizeLast=0;collapsible=0;marginBottom=0;html=1;whiteSpace=wrap;labelBackgroundColor=none;fillColor=#F2CC8F;strokeColor=#E07A5F;fontColor=#393C56;" parent="p-8t-V-ckBDJTkTwqZwC-74" vertex="1">
          <mxGeometry x="404" y="143" width="140" height="54" as="geometry" />
        </mxCell>
        <mxCell id="5EymK1zPYxXH_i-VZODK-2" style="edgeStyle=orthogonalEdgeStyle;rounded=0;hachureGap=4;orthogonalLoop=1;jettySize=auto;html=1;entryX=1;entryY=0.25;entryDx=0;entryDy=0;fontFamily=Architects Daughter;fontSource=https%3A%2F%2Ffonts.googleapis.com%2Fcss%3Ffamily%3DArchitects%2BDaughter;endArrow=diamondThin;endFill=0;" parent="p-8t-V-ckBDJTkTwqZwC-74" source="5EymK1zPYxXH_i-VZODK-1" target="p-8t-V-ckBDJTkTwqZwC-54" edge="1">
          <mxGeometry relative="1" as="geometry" />
        </mxCell>
        <mxCell id="p-8t-V-ckBDJTkTwqZwC-52" style="edgeStyle=orthogonalEdgeStyle;rounded=0;orthogonalLoop=1;jettySize=auto;html=1;dashed=1;endArrow=open;endFill=0;labelBackgroundColor=none;fontColor=default;strokeColor=#E07A5F;" parent="5EymK1zPYxXH_i-VZODK-18" source="p-8t-V-ckBDJTkTwqZwC-51" target="p-8t-V-ckBDJTkTwqZwC-13" edge="1">
          <mxGeometry relative="1" as="geometry" />
        </mxCell>
        <mxCell id="swxgBuO5e5svzwqJme-A-1" value="行政强制" style="shape=folder;fontStyle=1;tabWidth=110;tabHeight=30;tabPosition=left;html=1;boundedLbl=1;labelInHeader=1;container=1;collapsible=0;recursiveResize=0;whiteSpace=wrap;hachureGap=4;fontFamily=Architects Daughter;fontSource=https%3A%2F%2Ffonts.googleapis.com%2Fcss%3Ffamily%3DArchitects%2BDaughter;labelBackgroundColor=none;fillColor=#f7f5f3;strokeColor=#E07A5F;fontColor=#393C56;" parent="1" vertex="1">
          <mxGeometry x="-347" y="29" width="398" height="274" as="geometry" />
        </mxCell>
        <mxCell id="p-8t-V-ckBDJTkTwqZwC-5" value="行政强制&lt;div&gt;Enforce&lt;/div&gt;" style="swimlane;fontStyle=1;align=center;verticalAlign=middle;childLayout=stackLayout;horizontal=1;startSize=29;horizontalStack=0;resizeParent=1;resizeParentMax=0;resizeLast=0;collapsible=0;marginBottom=0;html=1;whiteSpace=wrap;labelBackgroundColor=none;fillColor=#F2CC8F;strokeColor=#E07A5F;fontColor=#393C56;" parent="swxgBuO5e5svzwqJme-A-1" vertex="1">
          <mxGeometry x="67" y="62" width="140" height="69" as="geometry" />
        </mxCell>
        <mxCell id="p-8t-V-ckBDJTkTwqZwC-48" value="&lt;span style=&quot;color: rgb(0, 0, 0); font-family: Helvetica; font-size: 12px; font-style: normal; font-variant-ligatures: normal; font-variant-caps: normal; font-weight: 400; letter-spacing: normal; orphans: 2; text-align: left; text-indent: 0px; text-transform: none; widows: 2; word-spacing: 0px; -webkit-text-stroke-width: 0px; white-space: normal; background-color: rgb(251, 251, 251); text-decoration-thickness: initial; text-decoration-style: initial; text-decoration-color: initial; display: inline !important; float: none;&quot;&gt;list&amp;lt;问题&amp;gt;&lt;/span&gt;" style="text;whiteSpace=wrap;html=1;labelBackgroundColor=none;fontColor=#393C56;" parent="p-8t-V-ckBDJTkTwqZwC-5" vertex="1">
          <mxGeometry y="29" width="140" height="40" as="geometry" />
        </mxCell>
        <mxCell id="p-8t-V-ckBDJTkTwqZwC-8" value="行政强制闭环&lt;div&gt;Enforce track&lt;/div&gt;" style="swimlane;fontStyle=1;align=center;verticalAlign=middle;childLayout=stackLayout;horizontal=1;startSize=29;horizontalStack=0;resizeParent=1;resizeParentMax=0;resizeLast=0;collapsible=0;marginBottom=0;html=1;whiteSpace=wrap;labelBackgroundColor=none;fillColor=#F2CC8F;strokeColor=#E07A5F;fontColor=#393C56;" parent="swxgBuO5e5svzwqJme-A-1" vertex="1">
          <mxGeometry x="67" y="189" width="140" height="59" as="geometry" />
        </mxCell>
        <mxCell id="p-8t-V-ckBDJTkTwqZwC-49" value="&lt;span style=&quot;color: rgb(0, 0, 0); font-family: Helvetica; font-size: 12px; font-style: normal; font-variant-ligatures: normal; font-variant-caps: normal; font-weight: 400; letter-spacing: normal; orphans: 2; text-align: left; text-indent: 0px; text-transform: none; widows: 2; word-spacing: 0px; -webkit-text-stroke-width: 0px; white-space: normal; background-color: rgb(251, 251, 251); text-decoration-thickness: initial; text-decoration-style: initial; text-decoration-color: initial; display: inline !important; float: none;&quot;&gt;list&amp;lt;问题&amp;gt;&lt;/span&gt;" style="text;whiteSpace=wrap;html=1;labelBackgroundColor=none;fontColor=#393C56;" parent="p-8t-V-ckBDJTkTwqZwC-8" vertex="1">
          <mxGeometry y="29" width="140" height="30" as="geometry" />
        </mxCell>
        <mxCell id="p-8t-V-ckBDJTkTwqZwC-43" style="edgeStyle=orthogonalEdgeStyle;rounded=0;orthogonalLoop=1;jettySize=auto;html=1;endArrow=diamondThin;endFill=1;labelBackgroundColor=none;fontColor=default;strokeColor=#E07A5F;" parent="swxgBuO5e5svzwqJme-A-1" source="p-8t-V-ckBDJTkTwqZwC-8" target="p-8t-V-ckBDJTkTwqZwC-5" edge="1">
          <mxGeometry relative="1" as="geometry" />
        </mxCell>
        <mxCell id="T8YUp5Tc-A9OWKvrUfil-24" style="rounded=0;orthogonalLoop=1;jettySize=auto;html=1;dashed=1;endArrow=open;endFill=0;" parent="1" source="p-8t-V-ckBDJTkTwqZwC-1" target="T8YUp5Tc-A9OWKvrUfil-7" edge="1">
          <mxGeometry relative="1" as="geometry" />
        </mxCell>
        <mxCell id="p-8t-V-ckBDJTkTwqZwC-1" value="问题&lt;div&gt;CheckItem&lt;/div&gt;" style="swimlane;fontStyle=1;align=center;verticalAlign=middle;childLayout=stackLayout;horizontal=1;startSize=29;horizontalStack=0;resizeParent=1;resizeParentMax=0;resizeLast=0;collapsible=0;marginBottom=0;html=1;whiteSpace=wrap;labelBackgroundColor=none;fillColor=#F2CC8F;strokeColor=#E07A5F;fontColor=#393C56;" parent="1" vertex="1">
          <mxGeometry x="879" y="208" width="140" height="54" as="geometry" />
        </mxCell>
        <mxCell id="p-8t-V-ckBDJTkTwqZwC-3" value="sid" style="text;html=1;strokeColor=none;fillColor=none;align=left;verticalAlign=middle;spacingLeft=4;spacingRight=4;overflow=hidden;rotatable=0;points=[[0,0.5],[1,0.5]];portConstraint=eastwest;whiteSpace=wrap;labelBackgroundColor=none;fontColor=#393C56;" parent="p-8t-V-ckBDJTkTwqZwC-1" vertex="1">
          <mxGeometry y="29" width="140" height="25" as="geometry" />
        </mxCell>
        <mxCell id="p-8t-V-ckBDJTkTwqZwC-42" style="edgeStyle=orthogonalEdgeStyle;rounded=0;orthogonalLoop=1;jettySize=auto;html=1;endArrow=open;endFill=0;labelBackgroundColor=none;fontColor=default;strokeColor=#E07A5F;dashed=1;" parent="1" source="p-8t-V-ckBDJTkTwqZwC-5" target="p-8t-V-ckBDJTkTwqZwC-1" edge="1">
          <mxGeometry relative="1" as="geometry">
            <Array as="points">
              <mxPoint x="131" y="140" />
            </Array>
          </mxGeometry>
        </mxCell>
        <mxCell id="p-8t-V-ckBDJTkTwqZwC-41" style="edgeStyle=orthogonalEdgeStyle;rounded=0;orthogonalLoop=1;jettySize=auto;html=1;endArrow=open;endFill=0;labelBackgroundColor=none;fontColor=default;strokeColor=#E07A5F;" parent="1" source="p-8t-V-ckBDJTkTwqZwC-10" target="p-8t-V-ckBDJTkTwqZwC-1" edge="1">
          <mxGeometry relative="1" as="geometry" />
        </mxCell>
        <mxCell id="p-8t-V-ckBDJTkTwqZwC-10" value="行政约见&lt;div&gt;appointment&lt;/div&gt;" style="swimlane;fontStyle=1;align=center;verticalAlign=middle;childLayout=stackLayout;horizontal=1;startSize=29;horizontalStack=0;resizeParent=1;resizeParentMax=0;resizeLast=0;collapsible=0;marginBottom=0;html=1;whiteSpace=wrap;labelBackgroundColor=none;fillColor=#F2CC8F;strokeColor=#E07A5F;fontColor=#393C56;" parent="1" vertex="1">
          <mxGeometry x="879" y="9" width="140" height="54" as="geometry" />
        </mxCell>
        <mxCell id="p-8t-V-ckBDJTkTwqZwC-47" value="list&amp;lt;问题&amp;gt;" style="text;html=1;strokeColor=none;fillColor=none;align=left;verticalAlign=middle;spacingLeft=4;spacingRight=4;overflow=hidden;rotatable=0;points=[[0,0.5],[1,0.5]];portConstraint=eastwest;whiteSpace=wrap;labelBackgroundColor=none;fontColor=#393C56;" parent="p-8t-V-ckBDJTkTwqZwC-10" vertex="1">
          <mxGeometry y="29" width="140" height="25" as="geometry" />
        </mxCell>
        <mxCell id="p-8t-V-ckBDJTkTwqZwC-17" style="edgeStyle=orthogonalEdgeStyle;rounded=0;orthogonalLoop=1;jettySize=auto;html=1;endArrow=open;endFill=0;dashed=1;labelBackgroundColor=none;fontColor=default;strokeColor=#E07A5F;" parent="1" source="p-8t-V-ckBDJTkTwqZwC-13" target="p-8t-V-ckBDJTkTwqZwC-1" edge="1">
          <mxGeometry relative="1" as="geometry" />
        </mxCell>
        <mxCell id="p-8t-V-ckBDJTkTwqZwC-18" value="1..1" style="edgeLabel;html=1;align=center;verticalAlign=middle;resizable=0;points=[];labelBackgroundColor=none;fontColor=#393C56;" parent="p-8t-V-ckBDJTkTwqZwC-17" vertex="1" connectable="0">
          <mxGeometry x="0.848" y="-2" relative="1" as="geometry">
            <mxPoint y="-7" as="offset" />
          </mxGeometry>
        </mxCell>
        <mxCell id="p-8t-V-ckBDJTkTwqZwC-19" value="1..1" style="edgeLabel;html=1;align=center;verticalAlign=middle;resizable=0;points=[];labelBackgroundColor=none;fontColor=#393C56;" parent="p-8t-V-ckBDJTkTwqZwC-17" vertex="1" connectable="0">
          <mxGeometry x="-0.856" y="-1" relative="1" as="geometry">
            <mxPoint y="-9" as="offset" />
          </mxGeometry>
        </mxCell>
        <mxCell id="p-8t-V-ckBDJTkTwqZwC-27" value="1..1" style="edgeLabel;html=1;align=center;verticalAlign=middle;resizable=0;points=[];labelBackgroundColor=none;fontColor=#393C56;" parent="1" vertex="1" connectable="0">
          <mxGeometry x="439" y="370" as="geometry">
            <mxPoint x="107" y="227" as="offset" />
          </mxGeometry>
        </mxCell>
        <mxCell id="F0B0H_bnHLER8nsTN__r-37" style="edgeStyle=orthogonalEdgeStyle;rounded=0;hachureGap=4;orthogonalLoop=1;jettySize=auto;html=1;strokeColor=#E07A5F;fontFamily=Architects Daughter;fontSource=https%3A%2F%2Ffonts.googleapis.com%2Fcss%3Ffamily%3DArchitects%2BDaughter;fontColor=#393C56;fillColor=#F2CC8F;endArrow=open;endFill=0;dashed=1;" parent="1" source="F0B0H_bnHLER8nsTN__r-27" target="p-8t-V-ckBDJTkTwqZwC-1" edge="1">
          <mxGeometry relative="1" as="geometry">
            <Array as="points">
              <mxPoint x="-210" y="1185" />
              <mxPoint x="-210" y="347" />
              <mxPoint x="914" y="347" />
            </Array>
          </mxGeometry>
        </mxCell>
        <mxCell id="F0B0H_bnHLER8nsTN__r-15" value="问题单" style="shape=folder;fontStyle=1;tabWidth=110;tabHeight=30;tabPosition=left;html=1;boundedLbl=1;labelInHeader=1;container=1;collapsible=0;recursiveResize=0;whiteSpace=wrap;hachureGap=4;strokeColor=#E07A5F;fontFamily=Architects Daughter;fontSource=https%3A%2F%2Ffonts.googleapis.com%2Fcss%3Ffamily%3DArchitects%2BDaughter;fontColor=#393C56;fillColor=#f7f5f3;labelBackgroundColor=none;" parent="1" vertex="1">
          <mxGeometry x="-147" y="802" width="1267" height="530" as="geometry" />
        </mxCell>
        <mxCell id="F0B0H_bnHLER8nsTN__r-16" value="&lt;div&gt;&lt;font&gt;问题单&lt;/font&gt;&lt;/div&gt;ProblemReport" style="swimlane;fontStyle=1;align=center;verticalAlign=middle;childLayout=stackLayout;horizontal=1;startSize=29;horizontalStack=0;resizeParent=1;resizeParentMax=0;resizeLast=0;collapsible=0;marginBottom=0;html=1;whiteSpace=wrap;hachureGap=4;strokeColor=#E07A5F;fontFamily=Helvetica;fontColor=#393C56;fillColor=#F2CC8F;labelBackgroundColor=none;" parent="F0B0H_bnHLER8nsTN__r-15" vertex="1">
          <mxGeometry x="90" y="79" width="140" height="130" as="geometry" />
        </mxCell>
        <mxCell id="F0B0H_bnHLER8nsTN__r-17" value="uuid" style="text;html=1;strokeColor=none;fillColor=none;align=left;verticalAlign=middle;spacingLeft=4;spacingRight=4;overflow=hidden;rotatable=0;points=[[0,0.5],[1,0.5]];portConstraint=eastwest;whiteSpace=wrap;fontFamily=Helvetica;fontColor=#393C56;labelBackgroundColor=none;" parent="F0B0H_bnHLER8nsTN__r-16" vertex="1">
          <mxGeometry y="29" width="140" height="25" as="geometry" />
        </mxCell>
        <mxCell id="F0B0H_bnHLER8nsTN__r-18" value="&lt;font&gt;下发时间 PublishTime&lt;/font&gt;" style="text;html=1;strokeColor=none;fillColor=none;align=left;verticalAlign=middle;spacingLeft=4;spacingRight=4;overflow=hidden;rotatable=0;points=[[0,0.5],[1,0.5]];portConstraint=eastwest;whiteSpace=wrap;fontFamily=Helvetica;fontColor=#393C56;labelBackgroundColor=none;" parent="F0B0H_bnHLER8nsTN__r-16" vertex="1">
          <mxGeometry y="54" width="140" height="25" as="geometry" />
        </mxCell>
        <mxCell id="F0B0H_bnHLER8nsTN__r-19" value="&lt;font&gt;要求反馈时间 feedbackTime&lt;/font&gt;" style="text;html=1;strokeColor=none;fillColor=none;align=left;verticalAlign=middle;spacingLeft=4;spacingRight=4;overflow=hidden;rotatable=0;points=[[0,0.5],[1,0.5]];portConstraint=eastwest;whiteSpace=wrap;fontFamily=Helvetica;fontColor=#393C56;labelBackgroundColor=none;" parent="F0B0H_bnHLER8nsTN__r-16" vertex="1">
          <mxGeometry y="79" width="140" height="51" as="geometry" />
        </mxCell>
        <mxCell id="F0B0H_bnHLER8nsTN__r-20" value="&amp;lt;&amp;lt;enumeration&amp;gt;&amp;gt;&lt;div&gt;&lt;div style=&quot;text-align: center;&quot;&gt;&lt;span style=&quot;text-align: left; background-color: initial;&quot;&gt;&lt;b&gt;ProblemReportS&lt;/b&gt;tatus&lt;/span&gt;&lt;/div&gt;&lt;/div&gt;" style="swimlane;fontStyle=0;align=center;verticalAlign=top;childLayout=stackLayout;horizontal=1;startSize=40;horizontalStack=0;resizeParent=1;resizeParentMax=0;resizeLast=0;collapsible=0;marginBottom=0;html=1;whiteSpace=wrap;hachureGap=4;strokeColor=#E07A5F;fontFamily=Helvetica;fontColor=#393C56;fillColor=#F2CC8F;labelBackgroundColor=none;" parent="F0B0H_bnHLER8nsTN__r-15" vertex="1">
          <mxGeometry x="340" y="104" width="140" height="190" as="geometry" />
        </mxCell>
        <mxCell id="F0B0H_bnHLER8nsTN__r-21" value="草稿DRAFT" style="text;html=1;strokeColor=none;fillColor=none;align=left;verticalAlign=middle;spacingLeft=4;spacingRight=4;overflow=hidden;rotatable=0;points=[[0,0.5],[1,0.5]];portConstraint=eastwest;whiteSpace=wrap;fontFamily=Helvetica;fontColor=#393C56;labelBackgroundColor=none;" parent="F0B0H_bnHLER8nsTN__r-20" vertex="1">
          <mxGeometry y="40" width="140" height="30" as="geometry" />
        </mxCell>
        <mxCell id="F0B0H_bnHLER8nsTN__r-22" value="已下发PUBLISHED" style="text;html=1;strokeColor=none;fillColor=none;align=left;verticalAlign=middle;spacingLeft=4;spacingRight=4;overflow=hidden;rotatable=0;points=[[0,0.5],[1,0.5]];portConstraint=eastwest;whiteSpace=wrap;fontFamily=Helvetica;fontColor=#393C56;labelBackgroundColor=none;" parent="F0B0H_bnHLER8nsTN__r-20" vertex="1">
          <mxGeometry y="70" width="140" height="30" as="geometry" />
        </mxCell>
        <mxCell id="F0B0H_bnHLER8nsTN__r-23" value="处理中 INPROGRESS" style="text;html=1;strokeColor=none;fillColor=none;align=left;verticalAlign=middle;spacingLeft=4;spacingRight=4;overflow=hidden;rotatable=0;points=[[0,0.5],[1,0.5]];portConstraint=eastwest;whiteSpace=wrap;fontFamily=Helvetica;fontColor=#393C56;labelBackgroundColor=none;" parent="F0B0H_bnHLER8nsTN__r-20" vertex="1">
          <mxGeometry y="100" width="140" height="30" as="geometry" />
        </mxCell>
        <mxCell id="F0B0H_bnHLER8nsTN__r-24" value="已反馈 FEEDBACKED" style="text;html=1;strokeColor=none;fillColor=none;align=left;verticalAlign=middle;spacingLeft=4;spacingRight=4;overflow=hidden;rotatable=0;points=[[0,0.5],[1,0.5]];portConstraint=eastwest;whiteSpace=wrap;fontFamily=Helvetica;fontColor=#393C56;labelBackgroundColor=none;" parent="F0B0H_bnHLER8nsTN__r-20" vertex="1">
          <mxGeometry y="130" width="140" height="30" as="geometry" />
        </mxCell>
        <mxCell id="F0B0H_bnHLER8nsTN__r-25" value="已退回 RETURNED" style="text;html=1;strokeColor=none;fillColor=none;align=left;verticalAlign=middle;spacingLeft=4;spacingRight=4;overflow=hidden;rotatable=0;points=[[0,0.5],[1,0.5]];portConstraint=eastwest;whiteSpace=wrap;fontFamily=Helvetica;fontColor=#393C56;labelBackgroundColor=none;" parent="F0B0H_bnHLER8nsTN__r-20" vertex="1">
          <mxGeometry y="160" width="140" height="30" as="geometry" />
        </mxCell>
        <mxCell id="F0B0H_bnHLER8nsTN__r-26" style="edgeStyle=orthogonalEdgeStyle;rounded=0;hachureGap=4;orthogonalLoop=1;jettySize=auto;html=1;strokeColor=#E07A5F;fontFamily=Helvetica;fontColor=default;fillColor=#F2CC8F;endArrow=diamondThin;endFill=0;endSize=16;labelBackgroundColor=none;" parent="F0B0H_bnHLER8nsTN__r-15" source="F0B0H_bnHLER8nsTN__r-20" target="F0B0H_bnHLER8nsTN__r-16" edge="1">
          <mxGeometry relative="1" as="geometry" />
        </mxCell>
        <mxCell id="F0B0H_bnHLER8nsTN__r-27" value="Problem" style="swimlane;fontStyle=1;align=center;verticalAlign=middle;childLayout=stackLayout;horizontal=1;startSize=29;horizontalStack=0;resizeParent=1;resizeParentMax=0;resizeLast=0;collapsible=0;marginBottom=0;html=1;whiteSpace=wrap;hachureGap=4;strokeColor=#E07A5F;fontFamily=Helvetica;fontColor=#393C56;fillColor=#F2CC8F;labelBackgroundColor=none;" parent="F0B0H_bnHLER8nsTN__r-15" vertex="1">
          <mxGeometry x="90" y="350" width="140" height="79" as="geometry" />
        </mxCell>
        <mxCell id="F0B0H_bnHLER8nsTN__r-28" value="uuid" style="text;html=1;strokeColor=none;fillColor=none;align=left;verticalAlign=middle;spacingLeft=4;spacingRight=4;overflow=hidden;rotatable=0;points=[[0,0.5],[1,0.5]];portConstraint=eastwest;whiteSpace=wrap;fontFamily=Helvetica;fontColor=#393C56;labelBackgroundColor=none;" parent="F0B0H_bnHLER8nsTN__r-27" vertex="1">
          <mxGeometry y="29" width="140" height="25" as="geometry" />
        </mxCell>
        <mxCell id="F0B0H_bnHLER8nsTN__r-29" value="check item" style="text;html=1;strokeColor=none;fillColor=none;align=left;verticalAlign=middle;spacingLeft=4;spacingRight=4;overflow=hidden;rotatable=0;points=[[0,0.5],[1,0.5]];portConstraint=eastwest;whiteSpace=wrap;fontFamily=Helvetica;fontColor=#393C56;labelBackgroundColor=none;" parent="F0B0H_bnHLER8nsTN__r-27" vertex="1">
          <mxGeometry y="54" width="140" height="25" as="geometry" />
        </mxCell>
        <mxCell id="F0B0H_bnHLER8nsTN__r-30" style="edgeStyle=orthogonalEdgeStyle;rounded=0;hachureGap=4;orthogonalLoop=1;jettySize=auto;html=1;strokeColor=#E07A5F;fontFamily=Helvetica;fontColor=default;fillColor=#F2CC8F;endArrow=diamondThin;endFill=0;endSize=16;labelBackgroundColor=none;" parent="F0B0H_bnHLER8nsTN__r-15" source="F0B0H_bnHLER8nsTN__r-27" target="F0B0H_bnHLER8nsTN__r-16" edge="1">
          <mxGeometry relative="1" as="geometry" />
        </mxCell>
        <mxCell id="F0B0H_bnHLER8nsTN__r-4" value="&lt;div&gt;&lt;font&gt;整改措施报告&lt;/font&gt;&lt;/div&gt;Corrective Action Report" style="swimlane;fontStyle=1;align=center;verticalAlign=middle;childLayout=stackLayout;horizontal=1;startSize=29;horizontalStack=0;resizeParent=1;resizeParentMax=0;resizeLast=0;collapsible=0;marginBottom=0;html=1;whiteSpace=wrap;hachureGap=4;strokeColor=#E07A5F;fontFamily=Helvetica;fontColor=#393C56;fillColor=#F2CC8F;labelBackgroundColor=none;" parent="F0B0H_bnHLER8nsTN__r-15" vertex="1">
          <mxGeometry x="762" y="75" width="220" height="54" as="geometry" />
        </mxCell>
        <mxCell id="F0B0H_bnHLER8nsTN__r-5" value="uuid" style="text;html=1;strokeColor=none;fillColor=none;align=left;verticalAlign=middle;spacingLeft=4;spacingRight=4;overflow=hidden;rotatable=0;points=[[0,0.5],[1,0.5]];portConstraint=eastwest;whiteSpace=wrap;fontFamily=Helvetica;fontColor=#393C56;labelBackgroundColor=none;" parent="F0B0H_bnHLER8nsTN__r-4" vertex="1">
          <mxGeometry y="29" width="220" height="25" as="geometry" />
        </mxCell>
        <mxCell id="F0B0H_bnHLER8nsTN__r-31" style="edgeStyle=orthogonalEdgeStyle;rounded=0;hachureGap=4;orthogonalLoop=1;jettySize=auto;html=1;strokeColor=#E07A5F;fontFamily=Helvetica;fontColor=default;fillColor=#F2CC8F;endArrow=open;endFill=0;labelBackgroundColor=none;dashed=1;" parent="F0B0H_bnHLER8nsTN__r-15" source="F0B0H_bnHLER8nsTN__r-4" target="F0B0H_bnHLER8nsTN__r-16" edge="1">
          <mxGeometry relative="1" as="geometry">
            <Array as="points">
              <mxPoint x="160" y="60" />
            </Array>
          </mxGeometry>
        </mxCell>
        <mxCell id="F0B0H_bnHLER8nsTN__r-32" value="0..1" style="edgeLabel;html=1;align=center;verticalAlign=middle;resizable=0;points=[];hachureGap=4;strokeColor=#E07A5F;fontFamily=Helvetica;fontColor=#393C56;fillColor=#F2CC8F;labelBackgroundColor=none;" parent="F0B0H_bnHLER8nsTN__r-31" vertex="1" connectable="0">
          <mxGeometry x="-0.8994" y="-2" relative="1" as="geometry">
            <mxPoint y="-8" as="offset" />
          </mxGeometry>
        </mxCell>
        <mxCell id="F0B0H_bnHLER8nsTN__r-33" value="1..1" style="edgeLabel;html=1;align=center;verticalAlign=middle;resizable=0;points=[];hachureGap=4;strokeColor=#E07A5F;fontFamily=Helvetica;fontColor=#393C56;fillColor=#F2CC8F;labelBackgroundColor=none;" parent="F0B0H_bnHLER8nsTN__r-31" vertex="1" connectable="0">
          <mxGeometry x="0.8868" relative="1" as="geometry">
            <mxPoint y="-11" as="offset" />
          </mxGeometry>
        </mxCell>
        <mxCell id="F0B0H_bnHLER8nsTN__r-6" value="&amp;lt;&amp;lt;enumeration&amp;gt;&amp;gt;&lt;div&gt;&lt;div style=&quot;text-align: left;&quot;&gt;&lt;b&gt;CorrectiveActionReportStatus&lt;/b&gt;&lt;/div&gt;&lt;/div&gt;" style="swimlane;fontStyle=0;align=center;verticalAlign=top;childLayout=stackLayout;horizontal=1;startSize=40;horizontalStack=0;resizeParent=1;resizeParentMax=0;resizeLast=0;collapsible=0;marginBottom=0;html=1;whiteSpace=wrap;hachureGap=4;strokeColor=#E07A5F;fontFamily=Helvetica;fontColor=#393C56;fillColor=#F2CC8F;labelBackgroundColor=none;" parent="F0B0H_bnHLER8nsTN__r-15" vertex="1">
          <mxGeometry x="982" y="227" width="230" height="160" as="geometry" />
        </mxCell>
        <mxCell id="F0B0H_bnHLER8nsTN__r-7" value="草稿DRAFT" style="text;html=1;strokeColor=none;fillColor=none;align=left;verticalAlign=middle;spacingLeft=4;spacingRight=4;overflow=hidden;rotatable=0;points=[[0,0.5],[1,0.5]];portConstraint=eastwest;whiteSpace=wrap;fontFamily=Helvetica;fontColor=#393C56;labelBackgroundColor=none;" parent="F0B0H_bnHLER8nsTN__r-6" vertex="1">
          <mxGeometry y="40" width="230" height="30" as="geometry" />
        </mxCell>
        <mxCell id="F0B0H_bnHLER8nsTN__r-8" value="已发送PUBLISHED" style="text;html=1;strokeColor=none;fillColor=none;align=left;verticalAlign=middle;spacingLeft=4;spacingRight=4;overflow=hidden;rotatable=0;points=[[0,0.5],[1,0.5]];portConstraint=eastwest;whiteSpace=wrap;fontFamily=Helvetica;fontColor=#393C56;labelBackgroundColor=none;" parent="F0B0H_bnHLER8nsTN__r-6" vertex="1">
          <mxGeometry y="70" width="230" height="30" as="geometry" />
        </mxCell>
        <mxCell id="F0B0H_bnHLER8nsTN__r-9" value="已处理 PROCESSED" style="text;html=1;strokeColor=none;fillColor=none;align=left;verticalAlign=middle;spacingLeft=4;spacingRight=4;overflow=hidden;rotatable=0;points=[[0,0.5],[1,0.5]];portConstraint=eastwest;whiteSpace=wrap;fontFamily=Helvetica;fontColor=#393C56;labelBackgroundColor=none;" parent="F0B0H_bnHLER8nsTN__r-6" vertex="1">
          <mxGeometry y="100" width="230" height="30" as="geometry" />
        </mxCell>
        <mxCell id="F0B0H_bnHLER8nsTN__r-10" value="已退回 RETURNED" style="text;html=1;strokeColor=none;fillColor=none;align=left;verticalAlign=middle;spacingLeft=4;spacingRight=4;overflow=hidden;rotatable=0;points=[[0,0.5],[1,0.5]];portConstraint=eastwest;whiteSpace=wrap;fontFamily=Helvetica;fontColor=#393C56;labelBackgroundColor=none;" parent="F0B0H_bnHLER8nsTN__r-6" vertex="1">
          <mxGeometry y="130" width="230" height="30" as="geometry" />
        </mxCell>
        <mxCell id="F0B0H_bnHLER8nsTN__r-11" style="edgeStyle=orthogonalEdgeStyle;rounded=0;hachureGap=4;orthogonalLoop=1;jettySize=auto;html=1;strokeColor=#E07A5F;fontFamily=Architects Daughter;fontSource=https%3A%2F%2Ffonts.googleapis.com%2Fcss%3Ffamily%3DArchitects%2BDaughter;fontColor=default;fillColor=#F2CC8F;endArrow=diamondThin;endFill=0;endSize=16;labelBackgroundColor=none;" parent="F0B0H_bnHLER8nsTN__r-15" source="F0B0H_bnHLER8nsTN__r-6" target="F0B0H_bnHLER8nsTN__r-4" edge="1">
          <mxGeometry relative="1" as="geometry">
            <Array as="points">
              <mxPoint x="1097" y="183" />
              <mxPoint x="929" y="183" />
            </Array>
          </mxGeometry>
        </mxCell>
        <mxCell id="F0B0H_bnHLER8nsTN__r-12" value="&lt;div&gt;&lt;font&gt;问题纠正情况&lt;/font&gt;&lt;/div&gt;Corrective Action Detail" style="swimlane;fontStyle=1;align=center;verticalAlign=middle;childLayout=stackLayout;horizontal=1;startSize=29;horizontalStack=0;resizeParent=1;resizeParentMax=0;resizeLast=0;collapsible=0;marginBottom=0;html=1;whiteSpace=wrap;hachureGap=4;strokeColor=#E07A5F;fontFamily=Helvetica;fontColor=#393C56;fillColor=#F2CC8F;labelBackgroundColor=none;" parent="F0B0H_bnHLER8nsTN__r-15" vertex="1">
          <mxGeometry x="579" y="365" width="220" height="54" as="geometry" />
        </mxCell>
        <mxCell id="F0B0H_bnHLER8nsTN__r-13" value="uuid" style="text;html=1;strokeColor=none;fillColor=none;align=left;verticalAlign=middle;spacingLeft=4;spacingRight=4;overflow=hidden;rotatable=0;points=[[0,0.5],[1,0.5]];portConstraint=eastwest;whiteSpace=wrap;fontFamily=Helvetica;fontColor=#393C56;labelBackgroundColor=none;" parent="F0B0H_bnHLER8nsTN__r-12" vertex="1">
          <mxGeometry y="29" width="220" height="25" as="geometry" />
        </mxCell>
        <mxCell id="F0B0H_bnHLER8nsTN__r-34" style="edgeStyle=orthogonalEdgeStyle;rounded=0;hachureGap=4;orthogonalLoop=1;jettySize=auto;html=1;strokeColor=#E07A5F;fontFamily=Architects Daughter;fontSource=https%3A%2F%2Ffonts.googleapis.com%2Fcss%3Ffamily%3DArchitects%2BDaughter;fontColor=default;fillColor=#F2CC8F;labelBackgroundColor=none;endArrow=open;endFill=0;dashed=1;" parent="F0B0H_bnHLER8nsTN__r-15" source="F0B0H_bnHLER8nsTN__r-12" target="F0B0H_bnHLER8nsTN__r-27" edge="1">
          <mxGeometry relative="1" as="geometry" />
        </mxCell>
        <mxCell id="F0B0H_bnHLER8nsTN__r-35" value="0..1" style="edgeLabel;html=1;align=center;verticalAlign=middle;resizable=0;points=[];hachureGap=4;strokeColor=#E07A5F;fontFamily=Architects Daughter;fontSource=https%3A%2F%2Ffonts.googleapis.com%2Fcss%3Ffamily%3DArchitects%2BDaughter;fontColor=#393C56;fillColor=#F2CC8F;labelBackgroundColor=none;" parent="F0B0H_bnHLER8nsTN__r-34" vertex="1" connectable="0">
          <mxGeometry x="-0.9622" y="-2" relative="1" as="geometry">
            <mxPoint x="-7" as="offset" />
          </mxGeometry>
        </mxCell>
        <mxCell id="F0B0H_bnHLER8nsTN__r-36" value="1..1" style="edgeLabel;html=1;align=center;verticalAlign=middle;resizable=0;points=[];hachureGap=4;strokeColor=#E07A5F;fontFamily=Architects Daughter;fontSource=https%3A%2F%2Ffonts.googleapis.com%2Fcss%3Ffamily%3DArchitects%2BDaughter;fontColor=#393C56;fillColor=#F2CC8F;labelBackgroundColor=none;" parent="F0B0H_bnHLER8nsTN__r-34" vertex="1" connectable="0">
          <mxGeometry x="0.9245" y="-3" relative="1" as="geometry">
            <mxPoint x="-12" y="-23" as="offset" />
          </mxGeometry>
        </mxCell>
        <mxCell id="F0B0H_bnHLER8nsTN__r-14" style="edgeStyle=orthogonalEdgeStyle;rounded=0;hachureGap=4;orthogonalLoop=1;jettySize=auto;html=1;strokeColor=#E07A5F;fontFamily=Helvetica;fontColor=default;fillColor=#F2CC8F;endArrow=diamondThin;endFill=0;endSize=16;labelBackgroundColor=none;" parent="F0B0H_bnHLER8nsTN__r-15" source="F0B0H_bnHLER8nsTN__r-12" target="F0B0H_bnHLER8nsTN__r-4" edge="1">
          <mxGeometry relative="1" as="geometry" />
        </mxCell>
        <mxCell id="T8YUp5Tc-A9OWKvrUfil-16" value="&lt;div&gt;&lt;span style=&quot;font-weight: 400; text-align: left;&quot;&gt;&amp;lt;&amp;lt;MapFrom :相对人中心&amp;gt;&amp;gt;&lt;/span&gt;&lt;/div&gt;&lt;div&gt;&lt;span style=&quot;font-weight: 400; text-align: left;&quot;&gt;osBasics&lt;/span&gt;&lt;br&gt;&lt;/div&gt;" style="swimlane;fontStyle=1;align=center;verticalAlign=middle;childLayout=stackLayout;horizontal=1;startSize=29;horizontalStack=0;resizeParent=1;resizeParentMax=0;resizeLast=0;collapsible=0;marginBottom=0;html=1;whiteSpace=wrap;labelBackgroundColor=none;fillColor=#F2CC8F;strokeColor=#E07A5F;fontColor=#393C56;" parent="1" vertex="1">
          <mxGeometry x="1843" y="-39.5" width="262" height="79" as="geometry" />
        </mxCell>
        <mxCell id="T8YUp5Tc-A9OWKvrUfil-17" value="id" style="text;html=1;strokeColor=none;fillColor=none;align=left;verticalAlign=middle;spacingLeft=4;spacingRight=4;overflow=hidden;rotatable=0;points=[[0,0.5],[1,0.5]];portConstraint=eastwest;whiteSpace=wrap;labelBackgroundColor=none;fontColor=#393C56;" parent="T8YUp5Tc-A9OWKvrUfil-16" vertex="1">
          <mxGeometry y="29" width="262" height="25" as="geometry" />
        </mxCell>
        <mxCell id="T8YUp5Tc-A9OWKvrUfil-18" value="name" style="text;html=1;strokeColor=none;fillColor=none;align=left;verticalAlign=middle;spacingLeft=4;spacingRight=4;overflow=hidden;rotatable=0;points=[[0,0.5],[1,0.5]];portConstraint=eastwest;whiteSpace=wrap;labelBackgroundColor=none;fontColor=#393C56;" parent="T8YUp5Tc-A9OWKvrUfil-16" vertex="1">
          <mxGeometry y="54" width="262" height="25" as="geometry" />
        </mxCell>
        <mxCell id="T8YUp5Tc-A9OWKvrUfil-23" style="rounded=0;orthogonalLoop=1;jettySize=auto;html=1;endArrow=open;endFill=0;dashed=1;" parent="1" source="T8YUp5Tc-A9OWKvrUfil-7" target="T8YUp5Tc-A9OWKvrUfil-16" edge="1">
          <mxGeometry relative="1" as="geometry" />
        </mxCell>
        <mxCell id="vRzIzukNgw7Gy5G5hvM5-1" value="处罚" style="shape=folder;fontStyle=1;tabWidth=110;tabHeight=30;tabPosition=left;html=1;boundedLbl=1;labelInHeader=1;container=1;collapsible=0;recursiveResize=0;whiteSpace=wrap;fillColor=#f7f5f3;" vertex="1" parent="1">
          <mxGeometry x="-925" y="-2118" width="2257" height="1845" as="geometry" />
        </mxCell>
        <mxCell id="vRzIzukNgw7Gy5G5hvM5-2" style="rounded=0;orthogonalLoop=1;jettySize=auto;html=1;endArrow=open;endFill=0;" edge="1" parent="vRzIzukNgw7Gy5G5hvM5-1" source="vRzIzukNgw7Gy5G5hvM5-3" target="vRzIzukNgw7Gy5G5hvM5-78">
          <mxGeometry relative="1" as="geometry" />
        </mxCell>
        <mxCell id="vRzIzukNgw7Gy5G5hvM5-3" value="行政处罚&lt;div&gt;Panalize&lt;/div&gt;" style="swimlane;fontStyle=1;align=center;verticalAlign=middle;childLayout=stackLayout;horizontal=1;startSize=29;horizontalStack=0;resizeParent=1;resizeParentMax=0;resizeLast=0;collapsible=0;marginBottom=0;html=1;whiteSpace=wrap;fillColor=#ffe6cc;strokeColor=#d79b00;" vertex="1" parent="vRzIzukNgw7Gy5G5hvM5-1">
          <mxGeometry x="1080" y="864" width="185" height="229" as="geometry" />
        </mxCell>
        <mxCell id="vRzIzukNgw7Gy5G5hvM5-4" value="适用程序 简易/普通" style="text;html=1;strokeColor=none;fillColor=none;align=left;verticalAlign=middle;spacingLeft=4;spacingRight=4;overflow=hidden;rotatable=0;points=[[0,0.5],[1,0.5]];portConstraint=eastwest;whiteSpace=wrap;" vertex="1" parent="vRzIzukNgw7Gy5G5hvM5-3">
          <mxGeometry y="29" width="185" height="25" as="geometry" />
        </mxCell>
        <mxCell id="vRzIzukNgw7Gy5G5hvM5-5" value="案件名称" style="text;html=1;strokeColor=none;fillColor=none;align=left;verticalAlign=middle;spacingLeft=4;spacingRight=4;overflow=hidden;rotatable=0;points=[[0,0.5],[1,0.5]];portConstraint=eastwest;whiteSpace=wrap;" vertex="1" parent="vRzIzukNgw7Gy5G5hvM5-3">
          <mxGeometry y="54" width="185" height="25" as="geometry" />
        </mxCell>
        <mxCell id="vRzIzukNgw7Gy5G5hvM5-6" value="是否典型案件" style="text;html=1;strokeColor=none;fillColor=none;align=left;verticalAlign=middle;spacingLeft=4;spacingRight=4;overflow=hidden;rotatable=0;points=[[0,0.5],[1,0.5]];portConstraint=eastwest;whiteSpace=wrap;" vertex="1" parent="vRzIzukNgw7Gy5G5hvM5-3">
          <mxGeometry y="79" width="185" height="25" as="geometry" />
        </mxCell>
        <mxCell id="vRzIzukNgw7Gy5G5hvM5-7" value="List&amp;lt;关联的 SID&amp;gt;" style="text;html=1;strokeColor=none;fillColor=none;align=left;verticalAlign=middle;spacingLeft=4;spacingRight=4;overflow=hidden;rotatable=0;points=[[0,0.5],[1,0.5]];portConstraint=eastwest;whiteSpace=wrap;" vertex="1" parent="vRzIzukNgw7Gy5G5hvM5-3">
          <mxGeometry y="104" width="185" height="25" as="geometry" />
        </mxCell>
        <mxCell id="vRzIzukNgw7Gy5G5hvM5-8" value="违法行为" style="text;html=1;strokeColor=none;fillColor=none;align=left;verticalAlign=middle;spacingLeft=4;spacingRight=4;overflow=hidden;rotatable=0;points=[[0,0.5],[1,0.5]];portConstraint=eastwest;whiteSpace=wrap;" vertex="1" parent="vRzIzukNgw7Gy5G5hvM5-3">
          <mxGeometry y="129" width="185" height="25" as="geometry" />
        </mxCell>
        <mxCell id="vRzIzukNgw7Gy5G5hvM5-9" value="违反的法律法规" style="text;html=1;strokeColor=none;fillColor=none;align=left;verticalAlign=middle;spacingLeft=4;spacingRight=4;overflow=hidden;rotatable=0;points=[[0,0.5],[1,0.5]];portConstraint=eastwest;whiteSpace=wrap;" vertex="1" parent="vRzIzukNgw7Gy5G5hvM5-3">
          <mxGeometry y="154" width="185" height="25" as="geometry" />
        </mxCell>
        <mxCell id="vRzIzukNgw7Gy5G5hvM5-10" value="承办单位 当前登录人的单位" style="text;html=1;strokeColor=none;fillColor=none;align=left;verticalAlign=middle;spacingLeft=4;spacingRight=4;overflow=hidden;rotatable=0;points=[[0,0.5],[1,0.5]];portConstraint=eastwest;whiteSpace=wrap;" vertex="1" parent="vRzIzukNgw7Gy5G5hvM5-3">
          <mxGeometry y="179" width="185" height="25" as="geometry" />
        </mxCell>
        <mxCell id="vRzIzukNgw7Gy5G5hvM5-11" value="其他工作人员" style="text;html=1;strokeColor=none;fillColor=none;align=left;verticalAlign=middle;spacingLeft=4;spacingRight=4;overflow=hidden;rotatable=0;points=[[0,0.5],[1,0.5]];portConstraint=eastwest;whiteSpace=wrap;" vertex="1" parent="vRzIzukNgw7Gy5G5hvM5-3">
          <mxGeometry y="204" width="185" height="25" as="geometry" />
        </mxCell>
        <mxCell id="vRzIzukNgw7Gy5G5hvM5-12" style="edgeStyle=orthogonalEdgeStyle;rounded=0;orthogonalLoop=1;jettySize=auto;html=1;endArrow=diamondThin;endFill=0;startSize=16;endSize=16;" edge="1" parent="vRzIzukNgw7Gy5G5hvM5-1" source="vRzIzukNgw7Gy5G5hvM5-13" target="vRzIzukNgw7Gy5G5hvM5-3">
          <mxGeometry relative="1" as="geometry" />
        </mxCell>
        <mxCell id="vRzIzukNgw7Gy5G5hvM5-13" value="当事人" style="swimlane;fontStyle=1;align=center;verticalAlign=middle;childLayout=stackLayout;horizontal=1;startSize=29;horizontalStack=0;resizeParent=1;resizeParentMax=0;resizeLast=0;collapsible=0;marginBottom=0;html=1;whiteSpace=wrap;fillColor=#ffe6cc;strokeColor=#d79b00;" vertex="1" parent="vRzIzukNgw7Gy5G5hvM5-1">
          <mxGeometry x="778" y="939.5" width="140" height="79" as="geometry" />
        </mxCell>
        <mxCell id="vRzIzukNgw7Gy5G5hvM5-14" value="是否听政" style="text;html=1;strokeColor=none;fillColor=none;align=left;verticalAlign=middle;spacingLeft=4;spacingRight=4;overflow=hidden;rotatable=0;points=[[0,0.5],[1,0.5]];portConstraint=eastwest;whiteSpace=wrap;" vertex="1" parent="vRzIzukNgw7Gy5G5hvM5-13">
          <mxGeometry y="29" width="140" height="25" as="geometry" />
        </mxCell>
        <mxCell id="vRzIzukNgw7Gy5G5hvM5-15" value="处罚时间" style="text;html=1;strokeColor=none;fillColor=none;align=left;verticalAlign=middle;spacingLeft=4;spacingRight=4;overflow=hidden;rotatable=0;points=[[0,0.5],[1,0.5]];portConstraint=eastwest;whiteSpace=wrap;" vertex="1" parent="vRzIzukNgw7Gy5G5hvM5-13">
          <mxGeometry y="54" width="140" height="25" as="geometry" />
        </mxCell>
        <mxCell id="vRzIzukNgw7Gy5G5hvM5-16" style="edgeStyle=orthogonalEdgeStyle;rounded=0;orthogonalLoop=1;jettySize=auto;html=1;endArrow=block;endFill=0;endSize=16;" edge="1" parent="vRzIzukNgw7Gy5G5hvM5-1" source="vRzIzukNgw7Gy5G5hvM5-17" target="vRzIzukNgw7Gy5G5hvM5-13">
          <mxGeometry relative="1" as="geometry">
            <Array as="points">
              <mxPoint x="672" y="1059" />
              <mxPoint x="820" y="1059" />
            </Array>
          </mxGeometry>
        </mxCell>
        <mxCell id="vRzIzukNgw7Gy5G5hvM5-17" value="相对人（企业）" style="swimlane;fontStyle=1;align=center;verticalAlign=middle;childLayout=stackLayout;horizontal=1;startSize=29;horizontalStack=0;resizeParent=1;resizeParentMax=0;resizeLast=0;collapsible=0;marginBottom=0;html=1;whiteSpace=wrap;fillColor=#ffe6cc;strokeColor=#d79b00;" vertex="1" parent="vRzIzukNgw7Gy5G5hvM5-1">
          <mxGeometry x="602" y="1092" width="140" height="79" as="geometry" />
        </mxCell>
        <mxCell id="vRzIzukNgw7Gy5G5hvM5-18" value="相对人 id" style="text;html=1;strokeColor=none;fillColor=none;align=left;verticalAlign=middle;spacingLeft=4;spacingRight=4;overflow=hidden;rotatable=0;points=[[0,0.5],[1,0.5]];portConstraint=eastwest;whiteSpace=wrap;" vertex="1" parent="vRzIzukNgw7Gy5G5hvM5-17">
          <mxGeometry y="29" width="140" height="25" as="geometry" />
        </mxCell>
        <mxCell id="vRzIzukNgw7Gy5G5hvM5-19" value="检查时间" style="text;html=1;strokeColor=none;fillColor=none;align=left;verticalAlign=middle;spacingLeft=4;spacingRight=4;overflow=hidden;rotatable=0;points=[[0,0.5],[1,0.5]];portConstraint=eastwest;whiteSpace=wrap;" vertex="1" parent="vRzIzukNgw7Gy5G5hvM5-17">
          <mxGeometry y="54" width="140" height="25" as="geometry" />
        </mxCell>
        <mxCell id="vRzIzukNgw7Gy5G5hvM5-20" style="edgeStyle=orthogonalEdgeStyle;rounded=0;orthogonalLoop=1;jettySize=auto;html=1;endArrow=block;endFill=0;endSize=16;" edge="1" parent="vRzIzukNgw7Gy5G5hvM5-1" source="vRzIzukNgw7Gy5G5hvM5-22" target="vRzIzukNgw7Gy5G5hvM5-13">
          <mxGeometry relative="1" as="geometry" />
        </mxCell>
        <mxCell id="vRzIzukNgw7Gy5G5hvM5-21" style="edgeStyle=orthogonalEdgeStyle;rounded=0;orthogonalLoop=1;jettySize=auto;html=1;endArrow=open;endFill=0;endSize=16;" edge="1" parent="vRzIzukNgw7Gy5G5hvM5-1" source="vRzIzukNgw7Gy5G5hvM5-22" target="vRzIzukNgw7Gy5G5hvM5-25">
          <mxGeometry relative="1" as="geometry" />
        </mxCell>
        <mxCell id="vRzIzukNgw7Gy5G5hvM5-22" value="自然人" style="swimlane;fontStyle=1;align=center;verticalAlign=middle;childLayout=stackLayout;horizontal=1;startSize=29;horizontalStack=0;resizeParent=1;resizeParentMax=0;resizeLast=0;collapsible=0;marginBottom=0;html=1;whiteSpace=wrap;fillColor=#ffe6cc;strokeColor=#d79b00;" vertex="1" parent="vRzIzukNgw7Gy5G5hvM5-1">
          <mxGeometry x="865" y="1102" width="140" height="79" as="geometry" />
        </mxCell>
        <mxCell id="vRzIzukNgw7Gy5G5hvM5-23" value="当事人姓名" style="text;html=1;strokeColor=none;fillColor=none;align=left;verticalAlign=middle;spacingLeft=4;spacingRight=4;overflow=hidden;rotatable=0;points=[[0,0.5],[1,0.5]];portConstraint=eastwest;whiteSpace=wrap;" vertex="1" parent="vRzIzukNgw7Gy5G5hvM5-22">
          <mxGeometry y="29" width="140" height="25" as="geometry" />
        </mxCell>
        <mxCell id="vRzIzukNgw7Gy5G5hvM5-24" value="证件编号" style="text;html=1;strokeColor=none;fillColor=none;align=left;verticalAlign=middle;spacingLeft=4;spacingRight=4;overflow=hidden;rotatable=0;points=[[0,0.5],[1,0.5]];portConstraint=eastwest;whiteSpace=wrap;" vertex="1" parent="vRzIzukNgw7Gy5G5hvM5-22">
          <mxGeometry y="54" width="140" height="25" as="geometry" />
        </mxCell>
        <mxCell id="vRzIzukNgw7Gy5G5hvM5-25" value="&amp;lt;&amp;lt;enumeration&amp;gt;&amp;gt;&lt;br&gt;&lt;b&gt;证件类型&lt;/b&gt;" style="swimlane;fontStyle=0;align=center;verticalAlign=top;childLayout=stackLayout;horizontal=1;startSize=40;horizontalStack=0;resizeParent=1;resizeParentMax=0;resizeLast=0;collapsible=0;marginBottom=0;html=1;whiteSpace=wrap;fillColor=#ffe6cc;strokeColor=#d79b00;" vertex="1" parent="vRzIzukNgw7Gy5G5hvM5-1">
          <mxGeometry x="836" y="1253" width="198" height="190" as="geometry" />
        </mxCell>
        <mxCell id="vRzIzukNgw7Gy5G5hvM5-26" value="身份证" style="text;html=1;strokeColor=none;fillColor=none;align=left;verticalAlign=middle;spacingLeft=4;spacingRight=4;overflow=hidden;rotatable=0;points=[[0,0.5],[1,0.5]];portConstraint=eastwest;whiteSpace=wrap;" vertex="1" parent="vRzIzukNgw7Gy5G5hvM5-25">
          <mxGeometry y="40" width="198" height="30" as="geometry" />
        </mxCell>
        <mxCell id="vRzIzukNgw7Gy5G5hvM5-27" value="护照证" style="text;html=1;strokeColor=none;fillColor=none;align=left;verticalAlign=middle;spacingLeft=4;spacingRight=4;overflow=hidden;rotatable=0;points=[[0,0.5],[1,0.5]];portConstraint=eastwest;whiteSpace=wrap;" vertex="1" parent="vRzIzukNgw7Gy5G5hvM5-25">
          <mxGeometry y="70" width="198" height="30" as="geometry" />
        </mxCell>
        <mxCell id="vRzIzukNgw7Gy5G5hvM5-28" value="港澳居民来往内地通行证" style="text;html=1;strokeColor=none;fillColor=none;align=left;verticalAlign=middle;spacingLeft=4;spacingRight=4;overflow=hidden;rotatable=0;points=[[0,0.5],[1,0.5]];portConstraint=eastwest;whiteSpace=wrap;" vertex="1" parent="vRzIzukNgw7Gy5G5hvM5-25">
          <mxGeometry y="100" width="198" height="30" as="geometry" />
        </mxCell>
        <mxCell id="vRzIzukNgw7Gy5G5hvM5-29" value="台湾居民来往内地通行证" style="text;html=1;strokeColor=none;fillColor=none;align=left;verticalAlign=middle;spacingLeft=4;spacingRight=4;overflow=hidden;rotatable=0;points=[[0,0.5],[1,0.5]];portConstraint=eastwest;whiteSpace=wrap;" vertex="1" parent="vRzIzukNgw7Gy5G5hvM5-25">
          <mxGeometry y="130" width="198" height="30" as="geometry" />
        </mxCell>
        <mxCell id="vRzIzukNgw7Gy5G5hvM5-30" value="外国人永居证" style="text;html=1;strokeColor=none;fillColor=none;align=left;verticalAlign=middle;spacingLeft=4;spacingRight=4;overflow=hidden;rotatable=0;points=[[0,0.5],[1,0.5]];portConstraint=eastwest;whiteSpace=wrap;" vertex="1" parent="vRzIzukNgw7Gy5G5hvM5-25">
          <mxGeometry y="160" width="198" height="30" as="geometry" />
        </mxCell>
        <mxCell id="vRzIzukNgw7Gy5G5hvM5-31" style="edgeStyle=orthogonalEdgeStyle;rounded=0;orthogonalLoop=1;jettySize=auto;html=1;endArrow=diamondThin;endFill=0;endSize=16;" edge="1" parent="vRzIzukNgw7Gy5G5hvM5-1" source="vRzIzukNgw7Gy5G5hvM5-32" target="vRzIzukNgw7Gy5G5hvM5-13">
          <mxGeometry relative="1" as="geometry" />
        </mxCell>
        <mxCell id="vRzIzukNgw7Gy5G5hvM5-32" value="处罚形式" style="swimlane;fontStyle=1;align=center;verticalAlign=middle;childLayout=stackLayout;horizontal=1;startSize=29;horizontalStack=0;resizeParent=1;resizeParentMax=0;resizeLast=0;collapsible=0;marginBottom=0;html=1;whiteSpace=wrap;fillColor=#ffe6cc;strokeColor=#d79b00;" vertex="1" parent="vRzIzukNgw7Gy5G5hvM5-1">
          <mxGeometry x="500" y="927" width="140" height="104" as="geometry" />
        </mxCell>
        <mxCell id="vRzIzukNgw7Gy5G5hvM5-33" value="类型" style="text;html=1;strokeColor=none;fillColor=none;align=left;verticalAlign=middle;spacingLeft=4;spacingRight=4;overflow=hidden;rotatable=0;points=[[0,0.5],[1,0.5]];portConstraint=eastwest;whiteSpace=wrap;" vertex="1" parent="vRzIzukNgw7Gy5G5hvM5-32">
          <mxGeometry y="29" width="140" height="25" as="geometry" />
        </mxCell>
        <mxCell id="vRzIzukNgw7Gy5G5hvM5-34" value="没收财务数量" style="text;html=1;strokeColor=none;fillColor=none;align=left;verticalAlign=middle;spacingLeft=4;spacingRight=4;overflow=hidden;rotatable=0;points=[[0,0.5],[1,0.5]];portConstraint=eastwest;whiteSpace=wrap;" vertex="1" parent="vRzIzukNgw7Gy5G5hvM5-32">
          <mxGeometry y="54" width="140" height="25" as="geometry" />
        </mxCell>
        <mxCell id="vRzIzukNgw7Gy5G5hvM5-35" value="其他" style="text;html=1;strokeColor=none;fillColor=none;align=left;verticalAlign=middle;spacingLeft=4;spacingRight=4;overflow=hidden;rotatable=0;points=[[0,0.5],[1,0.5]];portConstraint=eastwest;whiteSpace=wrap;" vertex="1" parent="vRzIzukNgw7Gy5G5hvM5-32">
          <mxGeometry y="79" width="140" height="25" as="geometry" />
        </mxCell>
        <mxCell id="vRzIzukNgw7Gy5G5hvM5-36" style="edgeStyle=orthogonalEdgeStyle;rounded=0;orthogonalLoop=1;jettySize=auto;html=1;endArrow=diamondThin;endFill=0;startSize=16;endSize=16;" edge="1" parent="vRzIzukNgw7Gy5G5hvM5-1" source="vRzIzukNgw7Gy5G5hvM5-37" target="vRzIzukNgw7Gy5G5hvM5-3">
          <mxGeometry relative="1" as="geometry" />
        </mxCell>
        <mxCell id="vRzIzukNgw7Gy5G5hvM5-37" value="行政处罚相关问题" style="swimlane;fontStyle=1;align=center;verticalAlign=middle;childLayout=stackLayout;horizontal=1;startSize=29;horizontalStack=0;resizeParent=1;resizeParentMax=0;resizeLast=0;collapsible=0;marginBottom=0;html=1;whiteSpace=wrap;fillColor=#ffe6cc;strokeColor=#d79b00;" vertex="1" parent="vRzIzukNgw7Gy5G5hvM5-1">
          <mxGeometry x="1102.5" y="1238" width="140" height="129" as="geometry" />
        </mxCell>
        <mxCell id="vRzIzukNgw7Gy5G5hvM5-38" value="当事人" style="text;html=1;strokeColor=none;fillColor=none;align=left;verticalAlign=middle;spacingLeft=4;spacingRight=4;overflow=hidden;rotatable=0;points=[[0,0.5],[1,0.5]];portConstraint=eastwest;whiteSpace=wrap;" vertex="1" parent="vRzIzukNgw7Gy5G5hvM5-37">
          <mxGeometry y="29" width="140" height="25" as="geometry" />
        </mxCell>
        <mxCell id="vRzIzukNgw7Gy5G5hvM5-39" value="专业" style="text;html=1;strokeColor=none;fillColor=none;align=left;verticalAlign=middle;spacingLeft=4;spacingRight=4;overflow=hidden;rotatable=0;points=[[0,0.5],[1,0.5]];portConstraint=eastwest;whiteSpace=wrap;" vertex="1" parent="vRzIzukNgw7Gy5G5hvM5-37">
          <mxGeometry y="54" width="140" height="25" as="geometry" />
        </mxCell>
        <mxCell id="vRzIzukNgw7Gy5G5hvM5-40" value="检查依据" style="text;html=1;strokeColor=none;fillColor=none;align=left;verticalAlign=middle;spacingLeft=4;spacingRight=4;overflow=hidden;rotatable=0;points=[[0,0.5],[1,0.5]];portConstraint=eastwest;whiteSpace=wrap;" vertex="1" parent="vRzIzukNgw7Gy5G5hvM5-37">
          <mxGeometry y="79" width="140" height="25" as="geometry" />
        </mxCell>
        <mxCell id="vRzIzukNgw7Gy5G5hvM5-41" value="问题描述" style="text;html=1;strokeColor=none;fillColor=none;align=left;verticalAlign=middle;spacingLeft=4;spacingRight=4;overflow=hidden;rotatable=0;points=[[0,0.5],[1,0.5]];portConstraint=eastwest;whiteSpace=wrap;" vertex="1" parent="vRzIzukNgw7Gy5G5hvM5-37">
          <mxGeometry y="104" width="140" height="25" as="geometry" />
        </mxCell>
        <mxCell id="vRzIzukNgw7Gy5G5hvM5-42" style="rounded=0;orthogonalLoop=1;jettySize=auto;html=1;endArrow=oval;endFill=0;dashed=1;" edge="1" parent="vRzIzukNgw7Gy5G5hvM5-1" source="vRzIzukNgw7Gy5G5hvM5-43">
          <mxGeometry relative="1" as="geometry">
            <mxPoint x="1174" y="1172" as="targetPoint" />
          </mxGeometry>
        </mxCell>
        <mxCell id="vRzIzukNgw7Gy5G5hvM5-43" value="已经是处罚手段单未加入案件" style="shape=note2;boundedLbl=1;whiteSpace=wrap;html=1;size=25;verticalAlign=top;align=left;spacingLeft=5;" vertex="1" parent="vRzIzukNgw7Gy5G5hvM5-1">
          <mxGeometry x="1246" y="1129" width="140" height="60" as="geometry" />
        </mxCell>
        <mxCell id="vRzIzukNgw7Gy5G5hvM5-44" value="可添加条件" style="resizeWidth=1;part=1;strokeColor=none;fillColor=none;align=left;spacingLeft=5;whiteSpace=wrap;html=1;" vertex="1" parent="vRzIzukNgw7Gy5G5hvM5-43">
          <mxGeometry width="140" height="25" relative="1" as="geometry" />
        </mxCell>
        <mxCell id="vRzIzukNgw7Gy5G5hvM5-45" style="rounded=0;orthogonalLoop=1;jettySize=auto;html=1;endArrow=oval;endFill=0;dashed=1;" edge="1" parent="vRzIzukNgw7Gy5G5hvM5-1" source="vRzIzukNgw7Gy5G5hvM5-46" target="vRzIzukNgw7Gy5G5hvM5-7">
          <mxGeometry relative="1" as="geometry" />
        </mxCell>
        <mxCell id="vRzIzukNgw7Gy5G5hvM5-46" value="自动汇总问题的 SID&amp;nbsp;&lt;div&gt;亦可手动添加&lt;/div&gt;" style="shape=note2;boundedLbl=1;whiteSpace=wrap;html=1;size=25;verticalAlign=top;align=left;spacingLeft=5;" vertex="1" parent="vRzIzukNgw7Gy5G5hvM5-1">
          <mxGeometry x="1338" y="910" width="140" height="60" as="geometry" />
        </mxCell>
        <mxCell id="vRzIzukNgw7Gy5G5hvM5-47" value="SID&amp;nbsp;" style="resizeWidth=1;part=1;strokeColor=none;fillColor=none;align=left;spacingLeft=5;whiteSpace=wrap;html=1;" vertex="1" parent="vRzIzukNgw7Gy5G5hvM5-46">
          <mxGeometry width="140" height="25" relative="1" as="geometry" />
        </mxCell>
        <mxCell id="vRzIzukNgw7Gy5G5hvM5-48" style="edgeStyle=orthogonalEdgeStyle;rounded=0;orthogonalLoop=1;jettySize=auto;html=1;endArrow=open;endFill=0;endSize=16;" edge="1" parent="vRzIzukNgw7Gy5G5hvM5-1" source="vRzIzukNgw7Gy5G5hvM5-51" target="vRzIzukNgw7Gy5G5hvM5-78">
          <mxGeometry relative="1" as="geometry">
            <Array as="points">
              <mxPoint x="1549" y="868" />
              <mxPoint x="1549" y="729" />
            </Array>
          </mxGeometry>
        </mxCell>
        <mxCell id="vRzIzukNgw7Gy5G5hvM5-49" style="edgeStyle=orthogonalEdgeStyle;rounded=0;orthogonalLoop=1;jettySize=auto;html=1;endArrow=diamondThin;endFill=0;endSize=16;" edge="1" parent="vRzIzukNgw7Gy5G5hvM5-1" source="vRzIzukNgw7Gy5G5hvM5-51" target="vRzIzukNgw7Gy5G5hvM5-3">
          <mxGeometry relative="1" as="geometry">
            <Array as="points">
              <mxPoint x="1692" y="888" />
            </Array>
          </mxGeometry>
        </mxCell>
        <mxCell id="vRzIzukNgw7Gy5G5hvM5-50" style="edgeStyle=orthogonalEdgeStyle;rounded=0;orthogonalLoop=1;jettySize=auto;html=1;endArrow=open;endFill=0;" edge="1" parent="vRzIzukNgw7Gy5G5hvM5-1" source="vRzIzukNgw7Gy5G5hvM5-51" target="vRzIzukNgw7Gy5G5hvM5-123">
          <mxGeometry relative="1" as="geometry">
            <Array as="points">
              <mxPoint x="1697" y="809" />
              <mxPoint x="1787" y="809" />
              <mxPoint x="1787" y="807" />
              <mxPoint x="1932" y="807" />
            </Array>
          </mxGeometry>
        </mxCell>
        <mxCell id="vRzIzukNgw7Gy5G5hvM5-51" value="行政处罚相关文书" style="swimlane;fontStyle=1;align=center;verticalAlign=middle;childLayout=stackLayout;horizontal=1;startSize=29;horizontalStack=0;resizeParent=1;resizeParentMax=0;resizeLast=0;collapsible=0;marginBottom=0;html=1;whiteSpace=wrap;fillColor=#ffe6cc;strokeColor=#d79b00;" vertex="1" parent="vRzIzukNgw7Gy5G5hvM5-1">
          <mxGeometry x="1627" y="824" width="140" height="154" as="geometry" />
        </mxCell>
        <mxCell id="vRzIzukNgw7Gy5G5hvM5-52" value="所属阶段&amp;nbsp;" style="text;html=1;strokeColor=none;fillColor=none;align=left;verticalAlign=middle;spacingLeft=4;spacingRight=4;overflow=hidden;rotatable=0;points=[[0,0.5],[1,0.5]];portConstraint=eastwest;whiteSpace=wrap;" vertex="1" parent="vRzIzukNgw7Gy5G5hvM5-51">
          <mxGeometry y="29" width="140" height="25" as="geometry" />
        </mxCell>
        <mxCell id="vRzIzukNgw7Gy5G5hvM5-53" value="是否 by 当事人" style="text;html=1;strokeColor=none;fillColor=none;align=left;verticalAlign=middle;spacingLeft=4;spacingRight=4;overflow=hidden;rotatable=0;points=[[0,0.5],[1,0.5]];portConstraint=eastwest;whiteSpace=wrap;" vertex="1" parent="vRzIzukNgw7Gy5G5hvM5-51">
          <mxGeometry y="54" width="140" height="25" as="geometry" />
        </mxCell>
        <mxCell id="vRzIzukNgw7Gy5G5hvM5-54" value="文档类型" style="text;html=1;strokeColor=none;fillColor=none;align=left;verticalAlign=middle;spacingLeft=4;spacingRight=4;overflow=hidden;rotatable=0;points=[[0,0.5],[1,0.5]];portConstraint=eastwest;whiteSpace=wrap;" vertex="1" parent="vRzIzukNgw7Gy5G5hvM5-51">
          <mxGeometry y="79" width="140" height="25" as="geometry" />
        </mxCell>
        <mxCell id="vRzIzukNgw7Gy5G5hvM5-55" value="更新人" style="text;html=1;strokeColor=none;fillColor=none;align=left;verticalAlign=middle;spacingLeft=4;spacingRight=4;overflow=hidden;rotatable=0;points=[[0,0.5],[1,0.5]];portConstraint=eastwest;whiteSpace=wrap;" vertex="1" parent="vRzIzukNgw7Gy5G5hvM5-51">
          <mxGeometry y="104" width="140" height="25" as="geometry" />
        </mxCell>
        <mxCell id="vRzIzukNgw7Gy5G5hvM5-56" value="更新日期" style="text;html=1;strokeColor=none;fillColor=none;align=left;verticalAlign=middle;spacingLeft=4;spacingRight=4;overflow=hidden;rotatable=0;points=[[0,0.5],[1,0.5]];portConstraint=eastwest;whiteSpace=wrap;" vertex="1" parent="vRzIzukNgw7Gy5G5hvM5-51">
          <mxGeometry y="129" width="140" height="25" as="geometry" />
        </mxCell>
        <mxCell id="vRzIzukNgw7Gy5G5hvM5-57" style="edgeStyle=orthogonalEdgeStyle;rounded=0;orthogonalLoop=1;jettySize=auto;html=1;endArrow=block;endFill=0;endSize=16;" edge="1" parent="vRzIzukNgw7Gy5G5hvM5-1" source="vRzIzukNgw7Gy5G5hvM5-58" target="vRzIzukNgw7Gy5G5hvM5-51">
          <mxGeometry relative="1" as="geometry">
            <Array as="points">
              <mxPoint x="1616" y="1018" />
              <mxPoint x="1669" y="1018" />
            </Array>
          </mxGeometry>
        </mxCell>
        <mxCell id="vRzIzukNgw7Gy5G5hvM5-58" value="附件文书" style="swimlane;fontStyle=1;align=center;verticalAlign=middle;childLayout=stackLayout;horizontal=1;startSize=29;horizontalStack=0;resizeParent=1;resizeParentMax=0;resizeLast=0;collapsible=0;marginBottom=0;html=1;whiteSpace=wrap;fillColor=#ffe6cc;strokeColor=#d79b00;" vertex="1" parent="vRzIzukNgw7Gy5G5hvM5-1">
          <mxGeometry x="1546" y="1048" width="140" height="54" as="geometry" />
        </mxCell>
        <mxCell id="vRzIzukNgw7Gy5G5hvM5-59" style="edgeStyle=orthogonalEdgeStyle;rounded=0;orthogonalLoop=1;jettySize=auto;html=1;endArrow=block;endFill=0;endSize=16;" edge="1" parent="vRzIzukNgw7Gy5G5hvM5-1" source="vRzIzukNgw7Gy5G5hvM5-61" target="vRzIzukNgw7Gy5G5hvM5-51">
          <mxGeometry relative="1" as="geometry">
            <Array as="points">
              <mxPoint x="1784" y="1020" />
              <mxPoint x="1724" y="1020" />
            </Array>
          </mxGeometry>
        </mxCell>
        <mxCell id="vRzIzukNgw7Gy5G5hvM5-60" style="edgeStyle=orthogonalEdgeStyle;rounded=0;orthogonalLoop=1;jettySize=auto;html=1;endArrow=open;endFill=0;endSize=16;" edge="1" parent="vRzIzukNgw7Gy5G5hvM5-1" source="vRzIzukNgw7Gy5G5hvM5-61" target="vRzIzukNgw7Gy5G5hvM5-120">
          <mxGeometry relative="1" as="geometry" />
        </mxCell>
        <mxCell id="vRzIzukNgw7Gy5G5hvM5-61" value="生成文书" style="swimlane;fontStyle=1;align=center;verticalAlign=middle;childLayout=stackLayout;horizontal=1;startSize=29;horizontalStack=0;resizeParent=1;resizeParentMax=0;resizeLast=0;collapsible=0;marginBottom=0;html=1;whiteSpace=wrap;fillColor=#ffe6cc;strokeColor=#d79b00;" vertex="1" parent="vRzIzukNgw7Gy5G5hvM5-1">
          <mxGeometry x="1714" y="1039" width="140" height="54" as="geometry" />
        </mxCell>
        <mxCell id="vRzIzukNgw7Gy5G5hvM5-62" value="状态" style="text;html=1;strokeColor=none;fillColor=none;align=left;verticalAlign=middle;spacingLeft=4;spacingRight=4;overflow=hidden;rotatable=0;points=[[0,0.5],[1,0.5]];portConstraint=eastwest;whiteSpace=wrap;" vertex="1" parent="vRzIzukNgw7Gy5G5hvM5-61">
          <mxGeometry y="29" width="140" height="25" as="geometry" />
        </mxCell>
        <mxCell id="vRzIzukNgw7Gy5G5hvM5-63" style="edgeStyle=orthogonalEdgeStyle;rounded=0;orthogonalLoop=1;jettySize=auto;html=1;endArrow=block;endFill=0;endSize=16;" edge="1" parent="vRzIzukNgw7Gy5G5hvM5-1" source="vRzIzukNgw7Gy5G5hvM5-64" target="vRzIzukNgw7Gy5G5hvM5-61">
          <mxGeometry relative="1" as="geometry">
            <Array as="points">
              <mxPoint x="1590" y="1133" />
              <mxPoint x="1735" y="1133" />
            </Array>
          </mxGeometry>
        </mxCell>
        <mxCell id="vRzIzukNgw7Gy5G5hvM5-64" value="行政处罚听政告知书" style="swimlane;fontStyle=1;align=center;verticalAlign=middle;childLayout=stackLayout;horizontal=1;startSize=29;horizontalStack=0;resizeParent=1;resizeParentMax=0;resizeLast=0;collapsible=0;marginBottom=0;html=1;whiteSpace=wrap;fillColor=#ffe6cc;strokeColor=#d79b00;" vertex="1" parent="vRzIzukNgw7Gy5G5hvM5-1">
          <mxGeometry x="1497" y="1243" width="140" height="354" as="geometry" />
        </mxCell>
        <mxCell id="vRzIzukNgw7Gy5G5hvM5-65" value="当事人" style="text;html=1;strokeColor=none;fillColor=none;align=left;verticalAlign=middle;spacingLeft=4;spacingRight=4;overflow=hidden;rotatable=0;points=[[0,0.5],[1,0.5]];portConstraint=eastwest;whiteSpace=wrap;" vertex="1" parent="vRzIzukNgw7Gy5G5hvM5-64">
          <mxGeometry y="29" width="140" height="25" as="geometry" />
        </mxCell>
        <mxCell id="vRzIzukNgw7Gy5G5hvM5-66" value="时间" style="text;html=1;strokeColor=none;fillColor=none;align=left;verticalAlign=middle;spacingLeft=4;spacingRight=4;overflow=hidden;rotatable=0;points=[[0,0.5],[1,0.5]];portConstraint=eastwest;whiteSpace=wrap;" vertex="1" parent="vRzIzukNgw7Gy5G5hvM5-64">
          <mxGeometry y="54" width="140" height="25" as="geometry" />
        </mxCell>
        <mxCell id="vRzIzukNgw7Gy5G5hvM5-67" value="违法行为" style="text;html=1;strokeColor=none;fillColor=none;align=left;verticalAlign=middle;spacingLeft=4;spacingRight=4;overflow=hidden;rotatable=0;points=[[0,0.5],[1,0.5]];portConstraint=eastwest;whiteSpace=wrap;" vertex="1" parent="vRzIzukNgw7Gy5G5hvM5-64">
          <mxGeometry y="79" width="140" height="25" as="geometry" />
        </mxCell>
        <mxCell id="vRzIzukNgw7Gy5G5hvM5-68" value="违法法规" style="text;html=1;strokeColor=none;fillColor=none;align=left;verticalAlign=middle;spacingLeft=4;spacingRight=4;overflow=hidden;rotatable=0;points=[[0,0.5],[1,0.5]];portConstraint=eastwest;whiteSpace=wrap;" vertex="1" parent="vRzIzukNgw7Gy5G5hvM5-64">
          <mxGeometry y="104" width="140" height="25" as="geometry" />
        </mxCell>
        <mxCell id="vRzIzukNgw7Gy5G5hvM5-69" value="处罚措施" style="text;html=1;strokeColor=none;fillColor=none;align=left;verticalAlign=middle;spacingLeft=4;spacingRight=4;overflow=hidden;rotatable=0;points=[[0,0.5],[1,0.5]];portConstraint=eastwest;whiteSpace=wrap;" vertex="1" parent="vRzIzukNgw7Gy5G5hvM5-64">
          <mxGeometry y="129" width="140" height="25" as="geometry" />
        </mxCell>
        <mxCell id="vRzIzukNgw7Gy5G5hvM5-70" value="局方地址" style="text;html=1;strokeColor=none;fillColor=none;align=left;verticalAlign=middle;spacingLeft=4;spacingRight=4;overflow=hidden;rotatable=0;points=[[0,0.5],[1,0.5]];portConstraint=eastwest;whiteSpace=wrap;" vertex="1" parent="vRzIzukNgw7Gy5G5hvM5-64">
          <mxGeometry y="154" width="140" height="25" as="geometry" />
        </mxCell>
        <mxCell id="vRzIzukNgw7Gy5G5hvM5-71" value="邮编" style="text;html=1;strokeColor=none;fillColor=none;align=left;verticalAlign=middle;spacingLeft=4;spacingRight=4;overflow=hidden;rotatable=0;points=[[0,0.5],[1,0.5]];portConstraint=eastwest;whiteSpace=wrap;" vertex="1" parent="vRzIzukNgw7Gy5G5hvM5-64">
          <mxGeometry y="179" width="140" height="25" as="geometry" />
        </mxCell>
        <mxCell id="vRzIzukNgw7Gy5G5hvM5-72" value="听证组织机关" style="text;html=1;strokeColor=none;fillColor=none;align=left;verticalAlign=middle;spacingLeft=4;spacingRight=4;overflow=hidden;rotatable=0;points=[[0,0.5],[1,0.5]];portConstraint=eastwest;whiteSpace=wrap;" vertex="1" parent="vRzIzukNgw7Gy5G5hvM5-64">
          <mxGeometry y="204" width="140" height="25" as="geometry" />
        </mxCell>
        <mxCell id="vRzIzukNgw7Gy5G5hvM5-73" value="联系人" style="text;html=1;strokeColor=none;fillColor=none;align=left;verticalAlign=middle;spacingLeft=4;spacingRight=4;overflow=hidden;rotatable=0;points=[[0,0.5],[1,0.5]];portConstraint=eastwest;whiteSpace=wrap;" vertex="1" parent="vRzIzukNgw7Gy5G5hvM5-64">
          <mxGeometry y="229" width="140" height="25" as="geometry" />
        </mxCell>
        <mxCell id="vRzIzukNgw7Gy5G5hvM5-74" value="联系电话" style="text;html=1;strokeColor=none;fillColor=none;align=left;verticalAlign=middle;spacingLeft=4;spacingRight=4;overflow=hidden;rotatable=0;points=[[0,0.5],[1,0.5]];portConstraint=eastwest;whiteSpace=wrap;" vertex="1" parent="vRzIzukNgw7Gy5G5hvM5-64">
          <mxGeometry y="254" width="140" height="25" as="geometry" />
        </mxCell>
        <mxCell id="vRzIzukNgw7Gy5G5hvM5-75" value="签章" style="text;html=1;strokeColor=none;fillColor=none;align=left;verticalAlign=middle;spacingLeft=4;spacingRight=4;overflow=hidden;rotatable=0;points=[[0,0.5],[1,0.5]];portConstraint=eastwest;whiteSpace=wrap;" vertex="1" parent="vRzIzukNgw7Gy5G5hvM5-64">
          <mxGeometry y="279" width="140" height="25" as="geometry" />
        </mxCell>
        <mxCell id="vRzIzukNgw7Gy5G5hvM5-76" value="当事人签字附件" style="text;html=1;strokeColor=none;fillColor=none;align=left;verticalAlign=middle;spacingLeft=4;spacingRight=4;overflow=hidden;rotatable=0;points=[[0,0.5],[1,0.5]];portConstraint=eastwest;whiteSpace=wrap;" vertex="1" parent="vRzIzukNgw7Gy5G5hvM5-64">
          <mxGeometry y="304" width="140" height="25" as="geometry" />
        </mxCell>
        <mxCell id="vRzIzukNgw7Gy5G5hvM5-77" value="签字日期" style="text;html=1;strokeColor=none;fillColor=none;align=left;verticalAlign=middle;spacingLeft=4;spacingRight=4;overflow=hidden;rotatable=0;points=[[0,0.5],[1,0.5]];portConstraint=eastwest;whiteSpace=wrap;" vertex="1" parent="vRzIzukNgw7Gy5G5hvM5-64">
          <mxGeometry y="329" width="140" height="25" as="geometry" />
        </mxCell>
        <mxCell id="vRzIzukNgw7Gy5G5hvM5-78" value="&amp;lt;&amp;lt;enumeration&amp;gt;&amp;gt;&lt;br&gt;&lt;b&gt;阶段&lt;/b&gt;" style="swimlane;fontStyle=0;align=center;verticalAlign=top;childLayout=stackLayout;horizontal=1;startSize=40;horizontalStack=0;resizeParent=1;resizeParentMax=0;resizeLast=0;collapsible=0;marginBottom=0;html=1;whiteSpace=wrap;fillColor=#ffe6cc;strokeColor=#d79b00;" vertex="1" parent="vRzIzukNgw7Gy5G5hvM5-1">
          <mxGeometry x="1330" y="634" width="131" height="190" as="geometry" />
        </mxCell>
        <mxCell id="vRzIzukNgw7Gy5G5hvM5-79" value="草稿" style="text;html=1;strokeColor=none;fillColor=none;align=left;verticalAlign=middle;spacingLeft=4;spacingRight=4;overflow=hidden;rotatable=0;points=[[0,0.5],[1,0.5]];portConstraint=eastwest;whiteSpace=wrap;" vertex="1" parent="vRzIzukNgw7Gy5G5hvM5-78">
          <mxGeometry y="40" width="131" height="30" as="geometry" />
        </mxCell>
        <mxCell id="vRzIzukNgw7Gy5G5hvM5-80" value="调查" style="text;html=1;strokeColor=none;fillColor=none;align=left;verticalAlign=middle;spacingLeft=4;spacingRight=4;overflow=hidden;rotatable=0;points=[[0,0.5],[1,0.5]];portConstraint=eastwest;whiteSpace=wrap;" vertex="1" parent="vRzIzukNgw7Gy5G5hvM5-78">
          <mxGeometry y="70" width="131" height="30" as="geometry" />
        </mxCell>
        <mxCell id="vRzIzukNgw7Gy5G5hvM5-81" value="听证" style="text;html=1;strokeColor=none;fillColor=none;align=left;verticalAlign=middle;spacingLeft=4;spacingRight=4;overflow=hidden;rotatable=0;points=[[0,0.5],[1,0.5]];portConstraint=eastwest;whiteSpace=wrap;" vertex="1" parent="vRzIzukNgw7Gy5G5hvM5-78">
          <mxGeometry y="100" width="131" height="30" as="geometry" />
        </mxCell>
        <mxCell id="vRzIzukNgw7Gy5G5hvM5-82" value="决定" style="text;html=1;strokeColor=none;fillColor=none;align=left;verticalAlign=middle;spacingLeft=4;spacingRight=4;overflow=hidden;rotatable=0;points=[[0,0.5],[1,0.5]];portConstraint=eastwest;whiteSpace=wrap;" vertex="1" parent="vRzIzukNgw7Gy5G5hvM5-78">
          <mxGeometry y="130" width="131" height="30" as="geometry" />
        </mxCell>
        <mxCell id="vRzIzukNgw7Gy5G5hvM5-83" value="已结案" style="text;html=1;strokeColor=none;fillColor=none;align=left;verticalAlign=middle;spacingLeft=4;spacingRight=4;overflow=hidden;rotatable=0;points=[[0,0.5],[1,0.5]];portConstraint=eastwest;whiteSpace=wrap;" vertex="1" parent="vRzIzukNgw7Gy5G5hvM5-78">
          <mxGeometry y="160" width="131" height="30" as="geometry" />
        </mxCell>
        <mxCell id="vRzIzukNgw7Gy5G5hvM5-84" style="edgeStyle=orthogonalEdgeStyle;rounded=0;orthogonalLoop=1;jettySize=auto;html=1;endArrow=block;endFill=0;endSize=16;" edge="1" parent="vRzIzukNgw7Gy5G5hvM5-1" source="vRzIzukNgw7Gy5G5hvM5-85" target="vRzIzukNgw7Gy5G5hvM5-61">
          <mxGeometry relative="1" as="geometry">
            <Array as="points">
              <mxPoint x="1784" y="1195" />
              <mxPoint x="1784" y="1195" />
            </Array>
          </mxGeometry>
        </mxCell>
        <mxCell id="vRzIzukNgw7Gy5G5hvM5-85" value="行政处罚听通知书" style="swimlane;fontStyle=1;align=center;verticalAlign=middle;childLayout=stackLayout;horizontal=1;startSize=29;horizontalStack=0;resizeParent=1;resizeParentMax=0;resizeLast=0;collapsible=0;marginBottom=0;html=1;whiteSpace=wrap;fillColor=#ffe6cc;strokeColor=#d79b00;" vertex="1" parent="vRzIzukNgw7Gy5G5hvM5-1">
          <mxGeometry x="1714" y="1240" width="140" height="379" as="geometry" />
        </mxCell>
        <mxCell id="vRzIzukNgw7Gy5G5hvM5-86" value="当事人" style="text;html=1;strokeColor=none;fillColor=none;align=left;verticalAlign=middle;spacingLeft=4;spacingRight=4;overflow=hidden;rotatable=0;points=[[0,0.5],[1,0.5]];portConstraint=eastwest;whiteSpace=wrap;" vertex="1" parent="vRzIzukNgw7Gy5G5hvM5-85">
          <mxGeometry y="29" width="140" height="25" as="geometry" />
        </mxCell>
        <mxCell id="vRzIzukNgw7Gy5G5hvM5-87" value="时间" style="text;html=1;strokeColor=none;fillColor=none;align=left;verticalAlign=middle;spacingLeft=4;spacingRight=4;overflow=hidden;rotatable=0;points=[[0,0.5],[1,0.5]];portConstraint=eastwest;whiteSpace=wrap;" vertex="1" parent="vRzIzukNgw7Gy5G5hvM5-85">
          <mxGeometry y="54" width="140" height="25" as="geometry" />
        </mxCell>
        <mxCell id="vRzIzukNgw7Gy5G5hvM5-88" value="是否公开" style="text;html=1;strokeColor=none;fillColor=none;align=left;verticalAlign=middle;spacingLeft=4;spacingRight=4;overflow=hidden;rotatable=0;points=[[0,0.5],[1,0.5]];portConstraint=eastwest;whiteSpace=wrap;" vertex="1" parent="vRzIzukNgw7Gy5G5hvM5-85">
          <mxGeometry y="79" width="140" height="25" as="geometry" />
        </mxCell>
        <mxCell id="vRzIzukNgw7Gy5G5hvM5-89" value="地点" style="text;html=1;strokeColor=none;fillColor=none;align=left;verticalAlign=middle;spacingLeft=4;spacingRight=4;overflow=hidden;rotatable=0;points=[[0,0.5],[1,0.5]];portConstraint=eastwest;whiteSpace=wrap;" vertex="1" parent="vRzIzukNgw7Gy5G5hvM5-85">
          <mxGeometry y="104" width="140" height="25" as="geometry" />
        </mxCell>
        <mxCell id="vRzIzukNgw7Gy5G5hvM5-90" value="主持人" style="text;html=1;strokeColor=none;fillColor=none;align=left;verticalAlign=middle;spacingLeft=4;spacingRight=4;overflow=hidden;rotatable=0;points=[[0,0.5],[1,0.5]];portConstraint=eastwest;whiteSpace=wrap;" vertex="1" parent="vRzIzukNgw7Gy5G5hvM5-85">
          <mxGeometry y="129" width="140" height="25" as="geometry" />
        </mxCell>
        <mxCell id="vRzIzukNgw7Gy5G5hvM5-91" value="听证员" style="text;html=1;strokeColor=none;fillColor=none;align=left;verticalAlign=middle;spacingLeft=4;spacingRight=4;overflow=hidden;rotatable=0;points=[[0,0.5],[1,0.5]];portConstraint=eastwest;whiteSpace=wrap;" vertex="1" parent="vRzIzukNgw7Gy5G5hvM5-85">
          <mxGeometry y="154" width="140" height="25" as="geometry" />
        </mxCell>
        <mxCell id="vRzIzukNgw7Gy5G5hvM5-92" value="书记员" style="text;html=1;strokeColor=none;fillColor=none;align=left;verticalAlign=middle;spacingLeft=4;spacingRight=4;overflow=hidden;rotatable=0;points=[[0,0.5],[1,0.5]];portConstraint=eastwest;whiteSpace=wrap;" vertex="1" parent="vRzIzukNgw7Gy5G5hvM5-85">
          <mxGeometry y="179" width="140" height="25" as="geometry" />
        </mxCell>
        <mxCell id="vRzIzukNgw7Gy5G5hvM5-93" value="延期申请 deadline" style="text;html=1;strokeColor=none;fillColor=none;align=left;verticalAlign=middle;spacingLeft=4;spacingRight=4;overflow=hidden;rotatable=0;points=[[0,0.5],[1,0.5]];portConstraint=eastwest;whiteSpace=wrap;" vertex="1" parent="vRzIzukNgw7Gy5G5hvM5-85">
          <mxGeometry y="204" width="140" height="25" as="geometry" />
        </mxCell>
        <mxCell id="vRzIzukNgw7Gy5G5hvM5-94" value="地址" style="text;html=1;strokeColor=none;fillColor=none;align=left;verticalAlign=middle;spacingLeft=4;spacingRight=4;overflow=hidden;rotatable=0;points=[[0,0.5],[1,0.5]];portConstraint=eastwest;whiteSpace=wrap;" vertex="1" parent="vRzIzukNgw7Gy5G5hvM5-85">
          <mxGeometry y="229" width="140" height="25" as="geometry" />
        </mxCell>
        <mxCell id="vRzIzukNgw7Gy5G5hvM5-95" value="联系人" style="text;html=1;strokeColor=none;fillColor=none;align=left;verticalAlign=middle;spacingLeft=4;spacingRight=4;overflow=hidden;rotatable=0;points=[[0,0.5],[1,0.5]];portConstraint=eastwest;whiteSpace=wrap;" vertex="1" parent="vRzIzukNgw7Gy5G5hvM5-85">
          <mxGeometry y="254" width="140" height="25" as="geometry" />
        </mxCell>
        <mxCell id="vRzIzukNgw7Gy5G5hvM5-96" value="联系电话" style="text;html=1;strokeColor=none;fillColor=none;align=left;verticalAlign=middle;spacingLeft=4;spacingRight=4;overflow=hidden;rotatable=0;points=[[0,0.5],[1,0.5]];portConstraint=eastwest;whiteSpace=wrap;" vertex="1" parent="vRzIzukNgw7Gy5G5hvM5-85">
          <mxGeometry y="279" width="140" height="25" as="geometry" />
        </mxCell>
        <mxCell id="vRzIzukNgw7Gy5G5hvM5-97" value="签章" style="text;html=1;strokeColor=none;fillColor=none;align=left;verticalAlign=middle;spacingLeft=4;spacingRight=4;overflow=hidden;rotatable=0;points=[[0,0.5],[1,0.5]];portConstraint=eastwest;whiteSpace=wrap;" vertex="1" parent="vRzIzukNgw7Gy5G5hvM5-85">
          <mxGeometry y="304" width="140" height="25" as="geometry" />
        </mxCell>
        <mxCell id="vRzIzukNgw7Gy5G5hvM5-98" value="当事人签字附件" style="text;html=1;strokeColor=none;fillColor=none;align=left;verticalAlign=middle;spacingLeft=4;spacingRight=4;overflow=hidden;rotatable=0;points=[[0,0.5],[1,0.5]];portConstraint=eastwest;whiteSpace=wrap;" vertex="1" parent="vRzIzukNgw7Gy5G5hvM5-85">
          <mxGeometry y="329" width="140" height="25" as="geometry" />
        </mxCell>
        <mxCell id="vRzIzukNgw7Gy5G5hvM5-99" value="签字日期" style="text;html=1;strokeColor=none;fillColor=none;align=left;verticalAlign=middle;spacingLeft=4;spacingRight=4;overflow=hidden;rotatable=0;points=[[0,0.5],[1,0.5]];portConstraint=eastwest;whiteSpace=wrap;" vertex="1" parent="vRzIzukNgw7Gy5G5hvM5-85">
          <mxGeometry y="354" width="140" height="25" as="geometry" />
        </mxCell>
        <mxCell id="vRzIzukNgw7Gy5G5hvM5-100" style="edgeStyle=orthogonalEdgeStyle;rounded=0;orthogonalLoop=1;jettySize=auto;html=1;endArrow=block;endFill=0;endSize=16;" edge="1" parent="vRzIzukNgw7Gy5G5hvM5-1" source="vRzIzukNgw7Gy5G5hvM5-101" target="vRzIzukNgw7Gy5G5hvM5-61">
          <mxGeometry relative="1" as="geometry">
            <Array as="points">
              <mxPoint x="1961" y="1141" />
              <mxPoint x="1820" y="1141" />
            </Array>
          </mxGeometry>
        </mxCell>
        <mxCell id="vRzIzukNgw7Gy5G5hvM5-101" value="行政处罚决定书" style="swimlane;fontStyle=1;align=center;verticalAlign=middle;childLayout=stackLayout;horizontal=1;startSize=29;horizontalStack=0;resizeParent=1;resizeParentMax=0;resizeLast=0;collapsible=0;marginBottom=0;html=1;whiteSpace=wrap;fillColor=#ffe6cc;strokeColor=#d79b00;" vertex="1" parent="vRzIzukNgw7Gy5G5hvM5-1">
          <mxGeometry x="1891" y="1243" width="140" height="479" as="geometry" />
        </mxCell>
        <mxCell id="vRzIzukNgw7Gy5G5hvM5-102" value="当事人" style="text;html=1;strokeColor=none;fillColor=none;align=left;verticalAlign=middle;spacingLeft=4;spacingRight=4;overflow=hidden;rotatable=0;points=[[0,0.5],[1,0.5]];portConstraint=eastwest;whiteSpace=wrap;" vertex="1" parent="vRzIzukNgw7Gy5G5hvM5-101">
          <mxGeometry y="29" width="140" height="25" as="geometry" />
        </mxCell>
        <mxCell id="vRzIzukNgw7Gy5G5hvM5-103" value="时间" style="text;html=1;strokeColor=none;fillColor=none;align=left;verticalAlign=middle;spacingLeft=4;spacingRight=4;overflow=hidden;rotatable=0;points=[[0,0.5],[1,0.5]];portConstraint=eastwest;whiteSpace=wrap;" vertex="1" parent="vRzIzukNgw7Gy5G5hvM5-101">
          <mxGeometry y="54" width="140" height="25" as="geometry" />
        </mxCell>
        <mxCell id="vRzIzukNgw7Gy5G5hvM5-104" value="违法行为" style="text;html=1;strokeColor=none;fillColor=none;align=left;verticalAlign=middle;spacingLeft=4;spacingRight=4;overflow=hidden;rotatable=0;points=[[0,0.5],[1,0.5]];portConstraint=eastwest;whiteSpace=wrap;" vertex="1" parent="vRzIzukNgw7Gy5G5hvM5-101">
          <mxGeometry y="79" width="140" height="25" as="geometry" />
        </mxCell>
        <mxCell id="vRzIzukNgw7Gy5G5hvM5-105" value="事实" style="text;html=1;strokeColor=none;fillColor=none;align=left;verticalAlign=middle;spacingLeft=4;spacingRight=4;overflow=hidden;rotatable=0;points=[[0,0.5],[1,0.5]];portConstraint=eastwest;whiteSpace=wrap;" vertex="1" parent="vRzIzukNgw7Gy5G5hvM5-101">
          <mxGeometry y="104" width="140" height="25" as="geometry" />
        </mxCell>
        <mxCell id="vRzIzukNgw7Gy5G5hvM5-106" value="证据" style="text;html=1;strokeColor=none;fillColor=none;align=left;verticalAlign=middle;spacingLeft=4;spacingRight=4;overflow=hidden;rotatable=0;points=[[0,0.5],[1,0.5]];portConstraint=eastwest;whiteSpace=wrap;" vertex="1" parent="vRzIzukNgw7Gy5G5hvM5-101">
          <mxGeometry y="129" width="140" height="25" as="geometry" />
        </mxCell>
        <mxCell id="vRzIzukNgw7Gy5G5hvM5-107" value="违反法规" style="text;html=1;strokeColor=none;fillColor=none;align=left;verticalAlign=middle;spacingLeft=4;spacingRight=4;overflow=hidden;rotatable=0;points=[[0,0.5],[1,0.5]];portConstraint=eastwest;whiteSpace=wrap;" vertex="1" parent="vRzIzukNgw7Gy5G5hvM5-101">
          <mxGeometry y="154" width="140" height="25" as="geometry" />
        </mxCell>
        <mxCell id="vRzIzukNgw7Gy5G5hvM5-108" value="处罚方式" style="text;html=1;strokeColor=none;fillColor=none;align=left;verticalAlign=middle;spacingLeft=4;spacingRight=4;overflow=hidden;rotatable=0;points=[[0,0.5],[1,0.5]];portConstraint=eastwest;whiteSpace=wrap;" vertex="1" parent="vRzIzukNgw7Gy5G5hvM5-101">
          <mxGeometry y="179" width="140" height="25" as="geometry" />
        </mxCell>
        <mxCell id="vRzIzukNgw7Gy5G5hvM5-109" value="时限" style="text;html=1;strokeColor=none;fillColor=none;align=left;verticalAlign=middle;spacingLeft=4;spacingRight=4;overflow=hidden;rotatable=0;points=[[0,0.5],[1,0.5]];portConstraint=eastwest;whiteSpace=wrap;" vertex="1" parent="vRzIzukNgw7Gy5G5hvM5-101">
          <mxGeometry y="204" width="140" height="25" as="geometry" />
        </mxCell>
        <mxCell id="vRzIzukNgw7Gy5G5hvM5-110" value="账号地址" style="text;html=1;strokeColor=none;fillColor=none;align=left;verticalAlign=middle;spacingLeft=4;spacingRight=4;overflow=hidden;rotatable=0;points=[[0,0.5],[1,0.5]];portConstraint=eastwest;whiteSpace=wrap;" vertex="1" parent="vRzIzukNgw7Gy5G5hvM5-101">
          <mxGeometry y="229" width="140" height="25" as="geometry" />
        </mxCell>
        <mxCell id="vRzIzukNgw7Gy5G5hvM5-111" value="账号名" style="text;html=1;strokeColor=none;fillColor=none;align=left;verticalAlign=middle;spacingLeft=4;spacingRight=4;overflow=hidden;rotatable=0;points=[[0,0.5],[1,0.5]];portConstraint=eastwest;whiteSpace=wrap;" vertex="1" parent="vRzIzukNgw7Gy5G5hvM5-101">
          <mxGeometry y="254" width="140" height="25" as="geometry" />
        </mxCell>
        <mxCell id="vRzIzukNgw7Gy5G5hvM5-112" value="账号" style="text;html=1;strokeColor=none;fillColor=none;align=left;verticalAlign=middle;spacingLeft=4;spacingRight=4;overflow=hidden;rotatable=0;points=[[0,0.5],[1,0.5]];portConstraint=eastwest;whiteSpace=wrap;" vertex="1" parent="vRzIzukNgw7Gy5G5hvM5-101">
          <mxGeometry y="279" width="140" height="25" as="geometry" />
        </mxCell>
        <mxCell id="vRzIzukNgw7Gy5G5hvM5-113" value="预算科目" style="text;html=1;strokeColor=none;fillColor=none;align=left;verticalAlign=middle;spacingLeft=4;spacingRight=4;overflow=hidden;rotatable=0;points=[[0,0.5],[1,0.5]];portConstraint=eastwest;whiteSpace=wrap;" vertex="1" parent="vRzIzukNgw7Gy5G5hvM5-101">
          <mxGeometry y="304" width="140" height="25" as="geometry" />
        </mxCell>
        <mxCell id="vRzIzukNgw7Gy5G5hvM5-114" value="预算次级" style="text;html=1;strokeColor=none;fillColor=none;align=left;verticalAlign=middle;spacingLeft=4;spacingRight=4;overflow=hidden;rotatable=0;points=[[0,0.5],[1,0.5]];portConstraint=eastwest;whiteSpace=wrap;" vertex="1" parent="vRzIzukNgw7Gy5G5hvM5-101">
          <mxGeometry y="329" width="140" height="25" as="geometry" />
        </mxCell>
        <mxCell id="vRzIzukNgw7Gy5G5hvM5-115" value="其他处罚" style="text;html=1;strokeColor=none;fillColor=none;align=left;verticalAlign=middle;spacingLeft=4;spacingRight=4;overflow=hidden;rotatable=0;points=[[0,0.5],[1,0.5]];portConstraint=eastwest;whiteSpace=wrap;" vertex="1" parent="vRzIzukNgw7Gy5G5hvM5-101">
          <mxGeometry y="354" width="140" height="25" as="geometry" />
        </mxCell>
        <mxCell id="vRzIzukNgw7Gy5G5hvM5-116" value="整改期限" style="text;html=1;strokeColor=none;fillColor=none;align=left;verticalAlign=middle;spacingLeft=4;spacingRight=4;overflow=hidden;rotatable=0;points=[[0,0.5],[1,0.5]];portConstraint=eastwest;whiteSpace=wrap;" vertex="1" parent="vRzIzukNgw7Gy5G5hvM5-101">
          <mxGeometry y="379" width="140" height="25" as="geometry" />
        </mxCell>
        <mxCell id="vRzIzukNgw7Gy5G5hvM5-117" value="行政复议期限" style="text;html=1;strokeColor=none;fillColor=none;align=left;verticalAlign=middle;spacingLeft=4;spacingRight=4;overflow=hidden;rotatable=0;points=[[0,0.5],[1,0.5]];portConstraint=eastwest;whiteSpace=wrap;" vertex="1" parent="vRzIzukNgw7Gy5G5hvM5-101">
          <mxGeometry y="404" width="140" height="25" as="geometry" />
        </mxCell>
        <mxCell id="vRzIzukNgw7Gy5G5hvM5-118" value="上诉期限" style="text;html=1;strokeColor=none;fillColor=none;align=left;verticalAlign=middle;spacingLeft=4;spacingRight=4;overflow=hidden;rotatable=0;points=[[0,0.5],[1,0.5]];portConstraint=eastwest;whiteSpace=wrap;" vertex="1" parent="vRzIzukNgw7Gy5G5hvM5-101">
          <mxGeometry y="429" width="140" height="25" as="geometry" />
        </mxCell>
        <mxCell id="vRzIzukNgw7Gy5G5hvM5-119" value="上诉法院" style="text;html=1;strokeColor=none;fillColor=none;align=left;verticalAlign=middle;spacingLeft=4;spacingRight=4;overflow=hidden;rotatable=0;points=[[0,0.5],[1,0.5]];portConstraint=eastwest;whiteSpace=wrap;" vertex="1" parent="vRzIzukNgw7Gy5G5hvM5-101">
          <mxGeometry y="454" width="140" height="25" as="geometry" />
        </mxCell>
        <mxCell id="vRzIzukNgw7Gy5G5hvM5-120" value="&amp;lt;&amp;lt;enumeration&amp;gt;&amp;gt;&lt;br&gt;&lt;b&gt;阶段&lt;/b&gt;" style="swimlane;fontStyle=0;align=center;verticalAlign=top;childLayout=stackLayout;horizontal=1;startSize=40;horizontalStack=0;resizeParent=1;resizeParentMax=0;resizeLast=0;collapsible=0;marginBottom=0;html=1;whiteSpace=wrap;fillColor=#ffe6cc;strokeColor=#d79b00;" vertex="1" parent="vRzIzukNgw7Gy5G5hvM5-1">
          <mxGeometry x="2003" y="887" width="131" height="100" as="geometry" />
        </mxCell>
        <mxCell id="vRzIzukNgw7Gy5G5hvM5-121" value="草稿" style="text;html=1;strokeColor=none;fillColor=none;align=left;verticalAlign=middle;spacingLeft=4;spacingRight=4;overflow=hidden;rotatable=0;points=[[0,0.5],[1,0.5]];portConstraint=eastwest;whiteSpace=wrap;" vertex="1" parent="vRzIzukNgw7Gy5G5hvM5-120">
          <mxGeometry y="40" width="131" height="30" as="geometry" />
        </mxCell>
        <mxCell id="vRzIzukNgw7Gy5G5hvM5-122" value="下发" style="text;html=1;strokeColor=none;fillColor=none;align=left;verticalAlign=middle;spacingLeft=4;spacingRight=4;overflow=hidden;rotatable=0;points=[[0,0.5],[1,0.5]];portConstraint=eastwest;whiteSpace=wrap;" vertex="1" parent="vRzIzukNgw7Gy5G5hvM5-120">
          <mxGeometry y="70" width="131" height="30" as="geometry" />
        </mxCell>
        <mxCell id="vRzIzukNgw7Gy5G5hvM5-123" value="&amp;lt;&amp;lt;enumeration&amp;gt;&amp;gt;&lt;br&gt;&lt;b&gt;文档类型&lt;/b&gt;" style="swimlane;fontStyle=0;align=center;verticalAlign=top;childLayout=stackLayout;horizontal=1;startSize=40;horizontalStack=0;resizeParent=1;resizeParentMax=0;resizeLast=0;collapsible=0;marginBottom=0;html=1;whiteSpace=wrap;fillColor=#ffe6cc;strokeColor=#d79b00;" vertex="1" parent="vRzIzukNgw7Gy5G5hvM5-1">
          <mxGeometry x="1761" y="304" width="343" height="490" as="geometry" />
        </mxCell>
        <mxCell id="vRzIzukNgw7Gy5G5hvM5-124" value="民用航空调查笔录 【当事人】&amp;nbsp; 【调查】" style="text;html=1;strokeColor=none;fillColor=none;align=left;verticalAlign=middle;spacingLeft=4;spacingRight=4;overflow=hidden;rotatable=0;points=[[0,0.5],[1,0.5]];portConstraint=eastwest;whiteSpace=wrap;" vertex="1" parent="vRzIzukNgw7Gy5G5hvM5-123">
          <mxGeometry y="40" width="343" height="30" as="geometry" />
        </mxCell>
        <mxCell id="vRzIzukNgw7Gy5G5hvM5-125" value="民用航空行政案件笔录 【当事人】【调查】" style="text;html=1;strokeColor=none;fillColor=none;align=left;verticalAlign=middle;spacingLeft=4;spacingRight=4;overflow=hidden;rotatable=0;points=[[0,0.5],[1,0.5]];portConstraint=eastwest;whiteSpace=wrap;" vertex="1" parent="vRzIzukNgw7Gy5G5hvM5-123">
          <mxGeometry y="70" width="343" height="30" as="geometry" />
        </mxCell>
        <mxCell id="vRzIzukNgw7Gy5G5hvM5-126" value="证据登记保存通知书 【调查】" style="text;html=1;strokeColor=none;fillColor=none;align=left;verticalAlign=middle;spacingLeft=4;spacingRight=4;overflow=hidden;rotatable=0;points=[[0,0.5],[1,0.5]];portConstraint=eastwest;whiteSpace=wrap;" vertex="1" parent="vRzIzukNgw7Gy5G5hvM5-123">
          <mxGeometry y="100" width="343" height="30" as="geometry" />
        </mxCell>
        <mxCell id="vRzIzukNgw7Gy5G5hvM5-127" value="等级保存证据退还清单 【调查】" style="text;html=1;strokeColor=none;fillColor=none;align=left;verticalAlign=middle;spacingLeft=4;spacingRight=4;overflow=hidden;rotatable=0;points=[[0,0.5],[1,0.5]];portConstraint=eastwest;whiteSpace=wrap;" vertex="1" parent="vRzIzukNgw7Gy5G5hvM5-123">
          <mxGeometry y="130" width="343" height="30" as="geometry" />
        </mxCell>
        <mxCell id="vRzIzukNgw7Gy5G5hvM5-128" value="民用航空行政案件调查报告 【调查】" style="text;html=1;strokeColor=none;fillColor=none;align=left;verticalAlign=middle;spacingLeft=4;spacingRight=4;overflow=hidden;rotatable=0;points=[[0,0.5],[1,0.5]];portConstraint=eastwest;whiteSpace=wrap;" vertex="1" parent="vRzIzukNgw7Gy5G5hvM5-123">
          <mxGeometry y="160" width="343" height="30" as="geometry" />
        </mxCell>
        <mxCell id="vRzIzukNgw7Gy5G5hvM5-129" value="民用航空行政处罚听证告知书 【当事人】【听证】【生成】" style="text;html=1;strokeColor=none;fillColor=none;align=left;verticalAlign=middle;spacingLeft=4;spacingRight=4;overflow=hidden;rotatable=0;points=[[0,0.5],[1,0.5]];portConstraint=eastwest;whiteSpace=wrap;" vertex="1" parent="vRzIzukNgw7Gy5G5hvM5-123">
          <mxGeometry y="190" width="343" height="30" as="geometry" />
        </mxCell>
        <mxCell id="vRzIzukNgw7Gy5G5hvM5-130" value="民用航空行政处罚听证申请书【当事人】【听证】" style="text;html=1;strokeColor=none;fillColor=none;align=left;verticalAlign=middle;spacingLeft=4;spacingRight=4;overflow=hidden;rotatable=0;points=[[0,0.5],[1,0.5]];portConstraint=eastwest;whiteSpace=wrap;" vertex="1" parent="vRzIzukNgw7Gy5G5hvM5-123">
          <mxGeometry y="220" width="343" height="30" as="geometry" />
        </mxCell>
        <mxCell id="vRzIzukNgw7Gy5G5hvM5-131" value="民用航空行政处罚听证通知书【当事人】【听证】 【生成】" style="text;html=1;strokeColor=none;fillColor=none;align=left;verticalAlign=middle;spacingLeft=4;spacingRight=4;overflow=hidden;rotatable=0;points=[[0,0.5],[1,0.5]];portConstraint=eastwest;whiteSpace=wrap;" vertex="1" parent="vRzIzukNgw7Gy5G5hvM5-123">
          <mxGeometry y="250" width="343" height="30" as="geometry" />
        </mxCell>
        <mxCell id="vRzIzukNgw7Gy5G5hvM5-132" value="民用航空行政处罚听证延期申请书【当事人】【听证】" style="text;html=1;strokeColor=none;fillColor=none;align=left;verticalAlign=middle;spacingLeft=4;spacingRight=4;overflow=hidden;rotatable=0;points=[[0,0.5],[1,0.5]];portConstraint=eastwest;whiteSpace=wrap;" vertex="1" parent="vRzIzukNgw7Gy5G5hvM5-123">
          <mxGeometry y="280" width="343" height="30" as="geometry" />
        </mxCell>
        <mxCell id="vRzIzukNgw7Gy5G5hvM5-133" value="民用航空行政处罚听证笔录【当事人】【听证】" style="text;html=1;strokeColor=none;fillColor=none;align=left;verticalAlign=middle;spacingLeft=4;spacingRight=4;overflow=hidden;rotatable=0;points=[[0,0.5],[1,0.5]];portConstraint=eastwest;whiteSpace=wrap;" vertex="1" parent="vRzIzukNgw7Gy5G5hvM5-123">
          <mxGeometry y="310" width="343" height="30" as="geometry" />
        </mxCell>
        <mxCell id="vRzIzukNgw7Gy5G5hvM5-134" value="民用航空行政处罚事先告知书【当事人】【决定】" style="text;html=1;strokeColor=none;fillColor=none;align=left;verticalAlign=middle;spacingLeft=4;spacingRight=4;overflow=hidden;rotatable=0;points=[[0,0.5],[1,0.5]];portConstraint=eastwest;whiteSpace=wrap;" vertex="1" parent="vRzIzukNgw7Gy5G5hvM5-123">
          <mxGeometry y="340" width="343" height="30" as="geometry" />
        </mxCell>
        <mxCell id="vRzIzukNgw7Gy5G5hvM5-135" value="当事人陈述和申辩笔录【当事人】【决定】" style="text;html=1;strokeColor=none;fillColor=none;align=left;verticalAlign=middle;spacingLeft=4;spacingRight=4;overflow=hidden;rotatable=0;points=[[0,0.5],[1,0.5]];portConstraint=eastwest;whiteSpace=wrap;" vertex="1" parent="vRzIzukNgw7Gy5G5hvM5-123">
          <mxGeometry y="370" width="343" height="30" as="geometry" />
        </mxCell>
        <mxCell id="vRzIzukNgw7Gy5G5hvM5-136" value="呈批件或局务会纪要文件【决定】" style="text;html=1;strokeColor=none;fillColor=none;align=left;verticalAlign=middle;spacingLeft=4;spacingRight=4;overflow=hidden;rotatable=0;points=[[0,0.5],[1,0.5]];portConstraint=eastwest;whiteSpace=wrap;" vertex="1" parent="vRzIzukNgw7Gy5G5hvM5-123">
          <mxGeometry y="400" width="343" height="30" as="geometry" />
        </mxCell>
        <mxCell id="vRzIzukNgw7Gy5G5hvM5-137" value="民用航空行政处罚决定书【当事人】【决定】【生成】" style="text;html=1;strokeColor=none;fillColor=none;align=left;verticalAlign=middle;spacingLeft=4;spacingRight=4;overflow=hidden;rotatable=0;points=[[0,0.5],[1,0.5]];portConstraint=eastwest;whiteSpace=wrap;" vertex="1" parent="vRzIzukNgw7Gy5G5hvM5-123">
          <mxGeometry y="430" width="343" height="30" as="geometry" />
        </mxCell>
        <mxCell id="vRzIzukNgw7Gy5G5hvM5-138" value="民用航空行政处罚案件结案报告【结案】" style="text;html=1;strokeColor=none;fillColor=none;align=left;verticalAlign=middle;spacingLeft=4;spacingRight=4;overflow=hidden;rotatable=0;points=[[0,0.5],[1,0.5]];portConstraint=eastwest;whiteSpace=wrap;" vertex="1" parent="vRzIzukNgw7Gy5G5hvM5-123">
          <mxGeometry y="460" width="343" height="30" as="geometry" />
        </mxCell>
        <mxCell id="vRzIzukNgw7Gy5G5hvM5-139" style="edgeStyle=orthogonalEdgeStyle;rounded=0;orthogonalLoop=1;jettySize=auto;html=1;endArrow=open;endFill=0;" edge="1" parent="1" source="vRzIzukNgw7Gy5G5hvM5-37" target="p-8t-V-ckBDJTkTwqZwC-1">
          <mxGeometry relative="1" as="geometry">
            <Array as="points">
              <mxPoint x="248" y="149" />
              <mxPoint x="919" y="149" />
            </Array>
          </mxGeometry>
        </mxCell>
      </root>
    </mxGraphModel>
  </diagram>
  <diagram id="hOTi29QaWTqYr3fyi3yf" name="第 2 页">
    <mxGraphModel dx="4513" dy="2337" grid="0" gridSize="10" guides="1" tooltips="1" connect="1" arrows="1" fold="1" page="0" pageScale="1" pageWidth="850" pageHeight="1100" math="0" shadow="0">
      <root>
        <mxCell id="0" />
        <mxCell id="1" parent="0" />
        <mxCell id="xNy9LxgI-4osWVztLyFq-1" value="处罚" style="shape=folder;fontStyle=1;tabWidth=110;tabHeight=30;tabPosition=left;html=1;boundedLbl=1;labelInHeader=1;container=1;collapsible=0;recursiveResize=0;whiteSpace=wrap;" vertex="1" parent="1">
          <mxGeometry x="-471" y="516" width="2257" height="1845" as="geometry" />
        </mxCell>
        <mxCell id="iLU9ymKA7W34SFVJpaGz-83" style="rounded=0;orthogonalLoop=1;jettySize=auto;html=1;endArrow=open;endFill=0;" edge="1" parent="xNy9LxgI-4osWVztLyFq-1" source="iLU9ymKA7W34SFVJpaGz-1" target="iLU9ymKA7W34SFVJpaGz-71">
          <mxGeometry relative="1" as="geometry" />
        </mxCell>
        <mxCell id="iLU9ymKA7W34SFVJpaGz-1" value="行政处罚&lt;div&gt;Panalize&lt;/div&gt;" style="swimlane;fontStyle=1;align=center;verticalAlign=middle;childLayout=stackLayout;horizontal=1;startSize=29;horizontalStack=0;resizeParent=1;resizeParentMax=0;resizeLast=0;collapsible=0;marginBottom=0;html=1;whiteSpace=wrap;fillColor=#ffe6cc;strokeColor=#d79b00;" vertex="1" parent="xNy9LxgI-4osWVztLyFq-1">
          <mxGeometry x="1080" y="864" width="185" height="229" as="geometry" />
        </mxCell>
        <mxCell id="iLU9ymKA7W34SFVJpaGz-2" value="适用程序 简易/普通" style="text;html=1;strokeColor=none;fillColor=none;align=left;verticalAlign=middle;spacingLeft=4;spacingRight=4;overflow=hidden;rotatable=0;points=[[0,0.5],[1,0.5]];portConstraint=eastwest;whiteSpace=wrap;" vertex="1" parent="iLU9ymKA7W34SFVJpaGz-1">
          <mxGeometry y="29" width="185" height="25" as="geometry" />
        </mxCell>
        <mxCell id="iLU9ymKA7W34SFVJpaGz-3" value="案件名称" style="text;html=1;strokeColor=none;fillColor=none;align=left;verticalAlign=middle;spacingLeft=4;spacingRight=4;overflow=hidden;rotatable=0;points=[[0,0.5],[1,0.5]];portConstraint=eastwest;whiteSpace=wrap;" vertex="1" parent="iLU9ymKA7W34SFVJpaGz-1">
          <mxGeometry y="54" width="185" height="25" as="geometry" />
        </mxCell>
        <mxCell id="iLU9ymKA7W34SFVJpaGz-139" value="是否典型案件" style="text;html=1;strokeColor=none;fillColor=none;align=left;verticalAlign=middle;spacingLeft=4;spacingRight=4;overflow=hidden;rotatable=0;points=[[0,0.5],[1,0.5]];portConstraint=eastwest;whiteSpace=wrap;" vertex="1" parent="iLU9ymKA7W34SFVJpaGz-1">
          <mxGeometry y="79" width="185" height="25" as="geometry" />
        </mxCell>
        <mxCell id="iLU9ymKA7W34SFVJpaGz-4" value="List&amp;lt;关联的 SID&amp;gt;" style="text;html=1;strokeColor=none;fillColor=none;align=left;verticalAlign=middle;spacingLeft=4;spacingRight=4;overflow=hidden;rotatable=0;points=[[0,0.5],[1,0.5]];portConstraint=eastwest;whiteSpace=wrap;" vertex="1" parent="iLU9ymKA7W34SFVJpaGz-1">
          <mxGeometry y="104" width="185" height="25" as="geometry" />
        </mxCell>
        <mxCell id="iLU9ymKA7W34SFVJpaGz-5" value="违法行为" style="text;html=1;strokeColor=none;fillColor=none;align=left;verticalAlign=middle;spacingLeft=4;spacingRight=4;overflow=hidden;rotatable=0;points=[[0,0.5],[1,0.5]];portConstraint=eastwest;whiteSpace=wrap;" vertex="1" parent="iLU9ymKA7W34SFVJpaGz-1">
          <mxGeometry y="129" width="185" height="25" as="geometry" />
        </mxCell>
        <mxCell id="iLU9ymKA7W34SFVJpaGz-6" value="违反的法律法规" style="text;html=1;strokeColor=none;fillColor=none;align=left;verticalAlign=middle;spacingLeft=4;spacingRight=4;overflow=hidden;rotatable=0;points=[[0,0.5],[1,0.5]];portConstraint=eastwest;whiteSpace=wrap;" vertex="1" parent="iLU9ymKA7W34SFVJpaGz-1">
          <mxGeometry y="154" width="185" height="25" as="geometry" />
        </mxCell>
        <mxCell id="iLU9ymKA7W34SFVJpaGz-7" value="承办单位 当前登录人的单位" style="text;html=1;strokeColor=none;fillColor=none;align=left;verticalAlign=middle;spacingLeft=4;spacingRight=4;overflow=hidden;rotatable=0;points=[[0,0.5],[1,0.5]];portConstraint=eastwest;whiteSpace=wrap;" vertex="1" parent="iLU9ymKA7W34SFVJpaGz-1">
          <mxGeometry y="179" width="185" height="25" as="geometry" />
        </mxCell>
        <mxCell id="iLU9ymKA7W34SFVJpaGz-8" value="其他工作人员" style="text;html=1;strokeColor=none;fillColor=none;align=left;verticalAlign=middle;spacingLeft=4;spacingRight=4;overflow=hidden;rotatable=0;points=[[0,0.5],[1,0.5]];portConstraint=eastwest;whiteSpace=wrap;" vertex="1" parent="iLU9ymKA7W34SFVJpaGz-1">
          <mxGeometry y="204" width="185" height="25" as="geometry" />
        </mxCell>
        <mxCell id="iLU9ymKA7W34SFVJpaGz-37" style="edgeStyle=orthogonalEdgeStyle;rounded=0;orthogonalLoop=1;jettySize=auto;html=1;endArrow=diamondThin;endFill=0;startSize=16;endSize=16;" edge="1" parent="xNy9LxgI-4osWVztLyFq-1" source="iLU9ymKA7W34SFVJpaGz-9" target="iLU9ymKA7W34SFVJpaGz-1">
          <mxGeometry relative="1" as="geometry" />
        </mxCell>
        <mxCell id="iLU9ymKA7W34SFVJpaGz-9" value="当事人" style="swimlane;fontStyle=1;align=center;verticalAlign=middle;childLayout=stackLayout;horizontal=1;startSize=29;horizontalStack=0;resizeParent=1;resizeParentMax=0;resizeLast=0;collapsible=0;marginBottom=0;html=1;whiteSpace=wrap;fillColor=#ffe6cc;strokeColor=#d79b00;" vertex="1" parent="xNy9LxgI-4osWVztLyFq-1">
          <mxGeometry x="778" y="939.5" width="140" height="79" as="geometry" />
        </mxCell>
        <mxCell id="iLU9ymKA7W34SFVJpaGz-10" value="是否听政" style="text;html=1;strokeColor=none;fillColor=none;align=left;verticalAlign=middle;spacingLeft=4;spacingRight=4;overflow=hidden;rotatable=0;points=[[0,0.5],[1,0.5]];portConstraint=eastwest;whiteSpace=wrap;" vertex="1" parent="iLU9ymKA7W34SFVJpaGz-9">
          <mxGeometry y="29" width="140" height="25" as="geometry" />
        </mxCell>
        <mxCell id="iLU9ymKA7W34SFVJpaGz-11" value="处罚时间" style="text;html=1;strokeColor=none;fillColor=none;align=left;verticalAlign=middle;spacingLeft=4;spacingRight=4;overflow=hidden;rotatable=0;points=[[0,0.5],[1,0.5]];portConstraint=eastwest;whiteSpace=wrap;" vertex="1" parent="iLU9ymKA7W34SFVJpaGz-9">
          <mxGeometry y="54" width="140" height="25" as="geometry" />
        </mxCell>
        <mxCell id="iLU9ymKA7W34SFVJpaGz-38" style="edgeStyle=orthogonalEdgeStyle;rounded=0;orthogonalLoop=1;jettySize=auto;html=1;endArrow=block;endFill=0;endSize=16;" edge="1" parent="xNy9LxgI-4osWVztLyFq-1" source="iLU9ymKA7W34SFVJpaGz-12" target="iLU9ymKA7W34SFVJpaGz-9">
          <mxGeometry relative="1" as="geometry">
            <Array as="points">
              <mxPoint x="672" y="1059" />
              <mxPoint x="820" y="1059" />
            </Array>
          </mxGeometry>
        </mxCell>
        <mxCell id="iLU9ymKA7W34SFVJpaGz-12" value="相对人（企业）" style="swimlane;fontStyle=1;align=center;verticalAlign=middle;childLayout=stackLayout;horizontal=1;startSize=29;horizontalStack=0;resizeParent=1;resizeParentMax=0;resizeLast=0;collapsible=0;marginBottom=0;html=1;whiteSpace=wrap;fillColor=#ffe6cc;strokeColor=#d79b00;" vertex="1" parent="xNy9LxgI-4osWVztLyFq-1">
          <mxGeometry x="602" y="1092" width="140" height="79" as="geometry" />
        </mxCell>
        <mxCell id="iLU9ymKA7W34SFVJpaGz-13" value="相对人 id" style="text;html=1;strokeColor=none;fillColor=none;align=left;verticalAlign=middle;spacingLeft=4;spacingRight=4;overflow=hidden;rotatable=0;points=[[0,0.5],[1,0.5]];portConstraint=eastwest;whiteSpace=wrap;" vertex="1" parent="iLU9ymKA7W34SFVJpaGz-12">
          <mxGeometry y="29" width="140" height="25" as="geometry" />
        </mxCell>
        <mxCell id="iLU9ymKA7W34SFVJpaGz-14" value="检查时间" style="text;html=1;strokeColor=none;fillColor=none;align=left;verticalAlign=middle;spacingLeft=4;spacingRight=4;overflow=hidden;rotatable=0;points=[[0,0.5],[1,0.5]];portConstraint=eastwest;whiteSpace=wrap;" vertex="1" parent="iLU9ymKA7W34SFVJpaGz-12">
          <mxGeometry y="54" width="140" height="25" as="geometry" />
        </mxCell>
        <mxCell id="iLU9ymKA7W34SFVJpaGz-39" style="edgeStyle=orthogonalEdgeStyle;rounded=0;orthogonalLoop=1;jettySize=auto;html=1;endArrow=block;endFill=0;endSize=16;" edge="1" parent="xNy9LxgI-4osWVztLyFq-1" source="iLU9ymKA7W34SFVJpaGz-15" target="iLU9ymKA7W34SFVJpaGz-9">
          <mxGeometry relative="1" as="geometry" />
        </mxCell>
        <mxCell id="iLU9ymKA7W34SFVJpaGz-42" style="edgeStyle=orthogonalEdgeStyle;rounded=0;orthogonalLoop=1;jettySize=auto;html=1;endArrow=open;endFill=0;endSize=16;" edge="1" parent="xNy9LxgI-4osWVztLyFq-1" source="iLU9ymKA7W34SFVJpaGz-15" target="iLU9ymKA7W34SFVJpaGz-18">
          <mxGeometry relative="1" as="geometry" />
        </mxCell>
        <mxCell id="iLU9ymKA7W34SFVJpaGz-15" value="自然人" style="swimlane;fontStyle=1;align=center;verticalAlign=middle;childLayout=stackLayout;horizontal=1;startSize=29;horizontalStack=0;resizeParent=1;resizeParentMax=0;resizeLast=0;collapsible=0;marginBottom=0;html=1;whiteSpace=wrap;fillColor=#ffe6cc;strokeColor=#d79b00;" vertex="1" parent="xNy9LxgI-4osWVztLyFq-1">
          <mxGeometry x="865" y="1102" width="140" height="79" as="geometry" />
        </mxCell>
        <mxCell id="iLU9ymKA7W34SFVJpaGz-16" value="当事人姓名" style="text;html=1;strokeColor=none;fillColor=none;align=left;verticalAlign=middle;spacingLeft=4;spacingRight=4;overflow=hidden;rotatable=0;points=[[0,0.5],[1,0.5]];portConstraint=eastwest;whiteSpace=wrap;" vertex="1" parent="iLU9ymKA7W34SFVJpaGz-15">
          <mxGeometry y="29" width="140" height="25" as="geometry" />
        </mxCell>
        <mxCell id="iLU9ymKA7W34SFVJpaGz-17" value="证件编号" style="text;html=1;strokeColor=none;fillColor=none;align=left;verticalAlign=middle;spacingLeft=4;spacingRight=4;overflow=hidden;rotatable=0;points=[[0,0.5],[1,0.5]];portConstraint=eastwest;whiteSpace=wrap;" vertex="1" parent="iLU9ymKA7W34SFVJpaGz-15">
          <mxGeometry y="54" width="140" height="25" as="geometry" />
        </mxCell>
        <mxCell id="iLU9ymKA7W34SFVJpaGz-18" value="&amp;lt;&amp;lt;enumeration&amp;gt;&amp;gt;&lt;br&gt;&lt;b&gt;证件类型&lt;/b&gt;" style="swimlane;fontStyle=0;align=center;verticalAlign=top;childLayout=stackLayout;horizontal=1;startSize=40;horizontalStack=0;resizeParent=1;resizeParentMax=0;resizeLast=0;collapsible=0;marginBottom=0;html=1;whiteSpace=wrap;fillColor=#ffe6cc;strokeColor=#d79b00;" vertex="1" parent="xNy9LxgI-4osWVztLyFq-1">
          <mxGeometry x="836" y="1253" width="198" height="190" as="geometry" />
        </mxCell>
        <mxCell id="iLU9ymKA7W34SFVJpaGz-19" value="身份证" style="text;html=1;strokeColor=none;fillColor=none;align=left;verticalAlign=middle;spacingLeft=4;spacingRight=4;overflow=hidden;rotatable=0;points=[[0,0.5],[1,0.5]];portConstraint=eastwest;whiteSpace=wrap;" vertex="1" parent="iLU9ymKA7W34SFVJpaGz-18">
          <mxGeometry y="40" width="198" height="30" as="geometry" />
        </mxCell>
        <mxCell id="iLU9ymKA7W34SFVJpaGz-20" value="护照证" style="text;html=1;strokeColor=none;fillColor=none;align=left;verticalAlign=middle;spacingLeft=4;spacingRight=4;overflow=hidden;rotatable=0;points=[[0,0.5],[1,0.5]];portConstraint=eastwest;whiteSpace=wrap;" vertex="1" parent="iLU9ymKA7W34SFVJpaGz-18">
          <mxGeometry y="70" width="198" height="30" as="geometry" />
        </mxCell>
        <mxCell id="iLU9ymKA7W34SFVJpaGz-21" value="港澳居民来往内地通行证" style="text;html=1;strokeColor=none;fillColor=none;align=left;verticalAlign=middle;spacingLeft=4;spacingRight=4;overflow=hidden;rotatable=0;points=[[0,0.5],[1,0.5]];portConstraint=eastwest;whiteSpace=wrap;" vertex="1" parent="iLU9ymKA7W34SFVJpaGz-18">
          <mxGeometry y="100" width="198" height="30" as="geometry" />
        </mxCell>
        <mxCell id="iLU9ymKA7W34SFVJpaGz-22" value="台湾居民来往内地通行证" style="text;html=1;strokeColor=none;fillColor=none;align=left;verticalAlign=middle;spacingLeft=4;spacingRight=4;overflow=hidden;rotatable=0;points=[[0,0.5],[1,0.5]];portConstraint=eastwest;whiteSpace=wrap;" vertex="1" parent="iLU9ymKA7W34SFVJpaGz-18">
          <mxGeometry y="130" width="198" height="30" as="geometry" />
        </mxCell>
        <mxCell id="iLU9ymKA7W34SFVJpaGz-23" value="外国人永居证" style="text;html=1;strokeColor=none;fillColor=none;align=left;verticalAlign=middle;spacingLeft=4;spacingRight=4;overflow=hidden;rotatable=0;points=[[0,0.5],[1,0.5]];portConstraint=eastwest;whiteSpace=wrap;" vertex="1" parent="iLU9ymKA7W34SFVJpaGz-18">
          <mxGeometry y="160" width="198" height="30" as="geometry" />
        </mxCell>
        <mxCell id="iLU9ymKA7W34SFVJpaGz-40" style="edgeStyle=orthogonalEdgeStyle;rounded=0;orthogonalLoop=1;jettySize=auto;html=1;endArrow=diamondThin;endFill=0;endSize=16;" edge="1" parent="xNy9LxgI-4osWVztLyFq-1" source="iLU9ymKA7W34SFVJpaGz-24" target="iLU9ymKA7W34SFVJpaGz-9">
          <mxGeometry relative="1" as="geometry" />
        </mxCell>
        <mxCell id="iLU9ymKA7W34SFVJpaGz-24" value="处罚形式" style="swimlane;fontStyle=1;align=center;verticalAlign=middle;childLayout=stackLayout;horizontal=1;startSize=29;horizontalStack=0;resizeParent=1;resizeParentMax=0;resizeLast=0;collapsible=0;marginBottom=0;html=1;whiteSpace=wrap;fillColor=#ffe6cc;strokeColor=#d79b00;" vertex="1" parent="xNy9LxgI-4osWVztLyFq-1">
          <mxGeometry x="500" y="927" width="140" height="104" as="geometry" />
        </mxCell>
        <mxCell id="iLU9ymKA7W34SFVJpaGz-25" value="类型" style="text;html=1;strokeColor=none;fillColor=none;align=left;verticalAlign=middle;spacingLeft=4;spacingRight=4;overflow=hidden;rotatable=0;points=[[0,0.5],[1,0.5]];portConstraint=eastwest;whiteSpace=wrap;" vertex="1" parent="iLU9ymKA7W34SFVJpaGz-24">
          <mxGeometry y="29" width="140" height="25" as="geometry" />
        </mxCell>
        <mxCell id="iLU9ymKA7W34SFVJpaGz-26" value="没收财务数量" style="text;html=1;strokeColor=none;fillColor=none;align=left;verticalAlign=middle;spacingLeft=4;spacingRight=4;overflow=hidden;rotatable=0;points=[[0,0.5],[1,0.5]];portConstraint=eastwest;whiteSpace=wrap;" vertex="1" parent="iLU9ymKA7W34SFVJpaGz-24">
          <mxGeometry y="54" width="140" height="25" as="geometry" />
        </mxCell>
        <mxCell id="iLU9ymKA7W34SFVJpaGz-27" value="其他" style="text;html=1;strokeColor=none;fillColor=none;align=left;verticalAlign=middle;spacingLeft=4;spacingRight=4;overflow=hidden;rotatable=0;points=[[0,0.5],[1,0.5]];portConstraint=eastwest;whiteSpace=wrap;" vertex="1" parent="iLU9ymKA7W34SFVJpaGz-24">
          <mxGeometry y="79" width="140" height="25" as="geometry" />
        </mxCell>
        <mxCell id="iLU9ymKA7W34SFVJpaGz-36" style="edgeStyle=orthogonalEdgeStyle;rounded=0;orthogonalLoop=1;jettySize=auto;html=1;endArrow=diamondThin;endFill=0;startSize=16;endSize=16;" edge="1" parent="xNy9LxgI-4osWVztLyFq-1" source="iLU9ymKA7W34SFVJpaGz-30" target="iLU9ymKA7W34SFVJpaGz-1">
          <mxGeometry relative="1" as="geometry" />
        </mxCell>
        <mxCell id="iLU9ymKA7W34SFVJpaGz-30" value="行政处罚相关问题" style="swimlane;fontStyle=1;align=center;verticalAlign=middle;childLayout=stackLayout;horizontal=1;startSize=29;horizontalStack=0;resizeParent=1;resizeParentMax=0;resizeLast=0;collapsible=0;marginBottom=0;html=1;whiteSpace=wrap;fillColor=#ffe6cc;strokeColor=#d79b00;" vertex="1" parent="xNy9LxgI-4osWVztLyFq-1">
          <mxGeometry x="1102.5" y="1238" width="140" height="129" as="geometry" />
        </mxCell>
        <mxCell id="iLU9ymKA7W34SFVJpaGz-32" value="当事人" style="text;html=1;strokeColor=none;fillColor=none;align=left;verticalAlign=middle;spacingLeft=4;spacingRight=4;overflow=hidden;rotatable=0;points=[[0,0.5],[1,0.5]];portConstraint=eastwest;whiteSpace=wrap;" vertex="1" parent="iLU9ymKA7W34SFVJpaGz-30">
          <mxGeometry y="29" width="140" height="25" as="geometry" />
        </mxCell>
        <mxCell id="iLU9ymKA7W34SFVJpaGz-33" value="专业" style="text;html=1;strokeColor=none;fillColor=none;align=left;verticalAlign=middle;spacingLeft=4;spacingRight=4;overflow=hidden;rotatable=0;points=[[0,0.5],[1,0.5]];portConstraint=eastwest;whiteSpace=wrap;" vertex="1" parent="iLU9ymKA7W34SFVJpaGz-30">
          <mxGeometry y="54" width="140" height="25" as="geometry" />
        </mxCell>
        <mxCell id="iLU9ymKA7W34SFVJpaGz-34" value="检查依据" style="text;html=1;strokeColor=none;fillColor=none;align=left;verticalAlign=middle;spacingLeft=4;spacingRight=4;overflow=hidden;rotatable=0;points=[[0,0.5],[1,0.5]];portConstraint=eastwest;whiteSpace=wrap;" vertex="1" parent="iLU9ymKA7W34SFVJpaGz-30">
          <mxGeometry y="79" width="140" height="25" as="geometry" />
        </mxCell>
        <mxCell id="iLU9ymKA7W34SFVJpaGz-35" value="问题描述" style="text;html=1;strokeColor=none;fillColor=none;align=left;verticalAlign=middle;spacingLeft=4;spacingRight=4;overflow=hidden;rotatable=0;points=[[0,0.5],[1,0.5]];portConstraint=eastwest;whiteSpace=wrap;" vertex="1" parent="iLU9ymKA7W34SFVJpaGz-30">
          <mxGeometry y="104" width="140" height="25" as="geometry" />
        </mxCell>
        <mxCell id="iLU9ymKA7W34SFVJpaGz-45" style="rounded=0;orthogonalLoop=1;jettySize=auto;html=1;endArrow=oval;endFill=0;dashed=1;" edge="1" parent="xNy9LxgI-4osWVztLyFq-1" source="iLU9ymKA7W34SFVJpaGz-43">
          <mxGeometry relative="1" as="geometry">
            <mxPoint x="1174" y="1172" as="targetPoint" />
          </mxGeometry>
        </mxCell>
        <mxCell id="iLU9ymKA7W34SFVJpaGz-43" value="已经是处罚手段单未加入案件" style="shape=note2;boundedLbl=1;whiteSpace=wrap;html=1;size=25;verticalAlign=top;align=left;spacingLeft=5;" vertex="1" parent="xNy9LxgI-4osWVztLyFq-1">
          <mxGeometry x="1246" y="1129" width="140" height="60" as="geometry" />
        </mxCell>
        <mxCell id="iLU9ymKA7W34SFVJpaGz-44" value="可添加条件" style="resizeWidth=1;part=1;strokeColor=none;fillColor=none;align=left;spacingLeft=5;whiteSpace=wrap;html=1;" vertex="1" parent="iLU9ymKA7W34SFVJpaGz-43">
          <mxGeometry width="140" height="25" relative="1" as="geometry" />
        </mxCell>
        <mxCell id="iLU9ymKA7W34SFVJpaGz-50" style="rounded=0;orthogonalLoop=1;jettySize=auto;html=1;endArrow=oval;endFill=0;dashed=1;" edge="1" parent="xNy9LxgI-4osWVztLyFq-1" source="iLU9ymKA7W34SFVJpaGz-47" target="iLU9ymKA7W34SFVJpaGz-4">
          <mxGeometry relative="1" as="geometry" />
        </mxCell>
        <mxCell id="iLU9ymKA7W34SFVJpaGz-47" value="自动汇总问题的 SID&amp;nbsp;&lt;div&gt;亦可手动添加&lt;/div&gt;" style="shape=note2;boundedLbl=1;whiteSpace=wrap;html=1;size=25;verticalAlign=top;align=left;spacingLeft=5;" vertex="1" parent="xNy9LxgI-4osWVztLyFq-1">
          <mxGeometry x="1338" y="910" width="140" height="60" as="geometry" />
        </mxCell>
        <mxCell id="iLU9ymKA7W34SFVJpaGz-48" value="SID&amp;nbsp;" style="resizeWidth=1;part=1;strokeColor=none;fillColor=none;align=left;spacingLeft=5;whiteSpace=wrap;html=1;" vertex="1" parent="iLU9ymKA7W34SFVJpaGz-47">
          <mxGeometry width="140" height="25" relative="1" as="geometry" />
        </mxCell>
        <mxCell id="iLU9ymKA7W34SFVJpaGz-82" style="edgeStyle=orthogonalEdgeStyle;rounded=0;orthogonalLoop=1;jettySize=auto;html=1;endArrow=open;endFill=0;endSize=16;" edge="1" parent="xNy9LxgI-4osWVztLyFq-1" source="iLU9ymKA7W34SFVJpaGz-59" target="iLU9ymKA7W34SFVJpaGz-71">
          <mxGeometry relative="1" as="geometry">
            <Array as="points">
              <mxPoint x="1549" y="868" />
              <mxPoint x="1549" y="729" />
            </Array>
          </mxGeometry>
        </mxCell>
        <mxCell id="iLU9ymKA7W34SFVJpaGz-84" style="edgeStyle=orthogonalEdgeStyle;rounded=0;orthogonalLoop=1;jettySize=auto;html=1;endArrow=diamondThin;endFill=0;endSize=16;" edge="1" parent="xNy9LxgI-4osWVztLyFq-1" source="iLU9ymKA7W34SFVJpaGz-59" target="iLU9ymKA7W34SFVJpaGz-1">
          <mxGeometry relative="1" as="geometry">
            <Array as="points">
              <mxPoint x="1692" y="888" />
            </Array>
          </mxGeometry>
        </mxCell>
        <mxCell id="xNy9LxgI-4osWVztLyFq-6" style="edgeStyle=orthogonalEdgeStyle;rounded=0;orthogonalLoop=1;jettySize=auto;html=1;endArrow=open;endFill=0;" edge="1" parent="xNy9LxgI-4osWVztLyFq-1" source="iLU9ymKA7W34SFVJpaGz-59" target="iLU9ymKA7W34SFVJpaGz-150">
          <mxGeometry relative="1" as="geometry">
            <Array as="points">
              <mxPoint x="1697" y="809" />
              <mxPoint x="1787" y="809" />
              <mxPoint x="1787" y="807" />
              <mxPoint x="1932" y="807" />
            </Array>
          </mxGeometry>
        </mxCell>
        <mxCell id="iLU9ymKA7W34SFVJpaGz-59" value="行政处罚相关文书" style="swimlane;fontStyle=1;align=center;verticalAlign=middle;childLayout=stackLayout;horizontal=1;startSize=29;horizontalStack=0;resizeParent=1;resizeParentMax=0;resizeLast=0;collapsible=0;marginBottom=0;html=1;whiteSpace=wrap;fillColor=#ffe6cc;strokeColor=#d79b00;" vertex="1" parent="xNy9LxgI-4osWVztLyFq-1">
          <mxGeometry x="1627" y="824" width="140" height="154" as="geometry" />
        </mxCell>
        <mxCell id="iLU9ymKA7W34SFVJpaGz-70" value="所属阶段&amp;nbsp;" style="text;html=1;strokeColor=none;fillColor=none;align=left;verticalAlign=middle;spacingLeft=4;spacingRight=4;overflow=hidden;rotatable=0;points=[[0,0.5],[1,0.5]];portConstraint=eastwest;whiteSpace=wrap;" vertex="1" parent="iLU9ymKA7W34SFVJpaGz-59">
          <mxGeometry y="29" width="140" height="25" as="geometry" />
        </mxCell>
        <mxCell id="iLU9ymKA7W34SFVJpaGz-81" value="是否 by 当事人" style="text;html=1;strokeColor=none;fillColor=none;align=left;verticalAlign=middle;spacingLeft=4;spacingRight=4;overflow=hidden;rotatable=0;points=[[0,0.5],[1,0.5]];portConstraint=eastwest;whiteSpace=wrap;" vertex="1" parent="iLU9ymKA7W34SFVJpaGz-59">
          <mxGeometry y="54" width="140" height="25" as="geometry" />
        </mxCell>
        <mxCell id="iLU9ymKA7W34SFVJpaGz-149" value="文档类型" style="text;html=1;strokeColor=none;fillColor=none;align=left;verticalAlign=middle;spacingLeft=4;spacingRight=4;overflow=hidden;rotatable=0;points=[[0,0.5],[1,0.5]];portConstraint=eastwest;whiteSpace=wrap;" vertex="1" parent="iLU9ymKA7W34SFVJpaGz-59">
          <mxGeometry y="79" width="140" height="25" as="geometry" />
        </mxCell>
        <mxCell id="iLU9ymKA7W34SFVJpaGz-85" value="更新人" style="text;html=1;strokeColor=none;fillColor=none;align=left;verticalAlign=middle;spacingLeft=4;spacingRight=4;overflow=hidden;rotatable=0;points=[[0,0.5],[1,0.5]];portConstraint=eastwest;whiteSpace=wrap;" vertex="1" parent="iLU9ymKA7W34SFVJpaGz-59">
          <mxGeometry y="104" width="140" height="25" as="geometry" />
        </mxCell>
        <mxCell id="iLU9ymKA7W34SFVJpaGz-86" value="更新日期" style="text;html=1;strokeColor=none;fillColor=none;align=left;verticalAlign=middle;spacingLeft=4;spacingRight=4;overflow=hidden;rotatable=0;points=[[0,0.5],[1,0.5]];portConstraint=eastwest;whiteSpace=wrap;" vertex="1" parent="iLU9ymKA7W34SFVJpaGz-59">
          <mxGeometry y="129" width="140" height="25" as="geometry" />
        </mxCell>
        <mxCell id="iLU9ymKA7W34SFVJpaGz-64" style="edgeStyle=orthogonalEdgeStyle;rounded=0;orthogonalLoop=1;jettySize=auto;html=1;endArrow=block;endFill=0;endSize=16;" edge="1" parent="xNy9LxgI-4osWVztLyFq-1" source="iLU9ymKA7W34SFVJpaGz-62" target="iLU9ymKA7W34SFVJpaGz-59">
          <mxGeometry relative="1" as="geometry">
            <Array as="points">
              <mxPoint x="1616" y="1018" />
              <mxPoint x="1669" y="1018" />
            </Array>
          </mxGeometry>
        </mxCell>
        <mxCell id="iLU9ymKA7W34SFVJpaGz-62" value="附件文书" style="swimlane;fontStyle=1;align=center;verticalAlign=middle;childLayout=stackLayout;horizontal=1;startSize=29;horizontalStack=0;resizeParent=1;resizeParentMax=0;resizeLast=0;collapsible=0;marginBottom=0;html=1;whiteSpace=wrap;fillColor=#ffe6cc;strokeColor=#d79b00;" vertex="1" parent="xNy9LxgI-4osWVztLyFq-1">
          <mxGeometry x="1546" y="1048" width="140" height="54" as="geometry" />
        </mxCell>
        <mxCell id="iLU9ymKA7W34SFVJpaGz-65" style="edgeStyle=orthogonalEdgeStyle;rounded=0;orthogonalLoop=1;jettySize=auto;html=1;endArrow=block;endFill=0;endSize=16;" edge="1" parent="xNy9LxgI-4osWVztLyFq-1" source="iLU9ymKA7W34SFVJpaGz-63" target="iLU9ymKA7W34SFVJpaGz-59">
          <mxGeometry relative="1" as="geometry">
            <Array as="points">
              <mxPoint x="1784" y="1020" />
              <mxPoint x="1724" y="1020" />
            </Array>
          </mxGeometry>
        </mxCell>
        <mxCell id="iLU9ymKA7W34SFVJpaGz-148" style="edgeStyle=orthogonalEdgeStyle;rounded=0;orthogonalLoop=1;jettySize=auto;html=1;endArrow=open;endFill=0;endSize=16;" edge="1" parent="xNy9LxgI-4osWVztLyFq-1" source="iLU9ymKA7W34SFVJpaGz-63" target="iLU9ymKA7W34SFVJpaGz-142">
          <mxGeometry relative="1" as="geometry" />
        </mxCell>
        <mxCell id="iLU9ymKA7W34SFVJpaGz-63" value="生成文书" style="swimlane;fontStyle=1;align=center;verticalAlign=middle;childLayout=stackLayout;horizontal=1;startSize=29;horizontalStack=0;resizeParent=1;resizeParentMax=0;resizeLast=0;collapsible=0;marginBottom=0;html=1;whiteSpace=wrap;fillColor=#ffe6cc;strokeColor=#d79b00;" vertex="1" parent="xNy9LxgI-4osWVztLyFq-1">
          <mxGeometry x="1714" y="1039" width="140" height="54" as="geometry" />
        </mxCell>
        <mxCell id="iLU9ymKA7W34SFVJpaGz-141" value="状态" style="text;html=1;strokeColor=none;fillColor=none;align=left;verticalAlign=middle;spacingLeft=4;spacingRight=4;overflow=hidden;rotatable=0;points=[[0,0.5],[1,0.5]];portConstraint=eastwest;whiteSpace=wrap;" vertex="1" parent="iLU9ymKA7W34SFVJpaGz-63">
          <mxGeometry y="29" width="140" height="25" as="geometry" />
        </mxCell>
        <mxCell id="iLU9ymKA7W34SFVJpaGz-135" style="edgeStyle=orthogonalEdgeStyle;rounded=0;orthogonalLoop=1;jettySize=auto;html=1;endArrow=block;endFill=0;endSize=16;" edge="1" parent="xNy9LxgI-4osWVztLyFq-1" source="iLU9ymKA7W34SFVJpaGz-68" target="iLU9ymKA7W34SFVJpaGz-63">
          <mxGeometry relative="1" as="geometry">
            <Array as="points">
              <mxPoint x="1590" y="1133" />
              <mxPoint x="1735" y="1133" />
            </Array>
          </mxGeometry>
        </mxCell>
        <mxCell id="iLU9ymKA7W34SFVJpaGz-68" value="行政处罚听政告知书" style="swimlane;fontStyle=1;align=center;verticalAlign=middle;childLayout=stackLayout;horizontal=1;startSize=29;horizontalStack=0;resizeParent=1;resizeParentMax=0;resizeLast=0;collapsible=0;marginBottom=0;html=1;whiteSpace=wrap;fillColor=#ffe6cc;strokeColor=#d79b00;" vertex="1" parent="xNy9LxgI-4osWVztLyFq-1">
          <mxGeometry x="1497" y="1243" width="140" height="354" as="geometry" />
        </mxCell>
        <mxCell id="iLU9ymKA7W34SFVJpaGz-87" value="当事人" style="text;html=1;strokeColor=none;fillColor=none;align=left;verticalAlign=middle;spacingLeft=4;spacingRight=4;overflow=hidden;rotatable=0;points=[[0,0.5],[1,0.5]];portConstraint=eastwest;whiteSpace=wrap;" vertex="1" parent="iLU9ymKA7W34SFVJpaGz-68">
          <mxGeometry y="29" width="140" height="25" as="geometry" />
        </mxCell>
        <mxCell id="iLU9ymKA7W34SFVJpaGz-88" value="时间" style="text;html=1;strokeColor=none;fillColor=none;align=left;verticalAlign=middle;spacingLeft=4;spacingRight=4;overflow=hidden;rotatable=0;points=[[0,0.5],[1,0.5]];portConstraint=eastwest;whiteSpace=wrap;" vertex="1" parent="iLU9ymKA7W34SFVJpaGz-68">
          <mxGeometry y="54" width="140" height="25" as="geometry" />
        </mxCell>
        <mxCell id="iLU9ymKA7W34SFVJpaGz-89" value="违法行为" style="text;html=1;strokeColor=none;fillColor=none;align=left;verticalAlign=middle;spacingLeft=4;spacingRight=4;overflow=hidden;rotatable=0;points=[[0,0.5],[1,0.5]];portConstraint=eastwest;whiteSpace=wrap;" vertex="1" parent="iLU9ymKA7W34SFVJpaGz-68">
          <mxGeometry y="79" width="140" height="25" as="geometry" />
        </mxCell>
        <mxCell id="iLU9ymKA7W34SFVJpaGz-90" value="违法法规" style="text;html=1;strokeColor=none;fillColor=none;align=left;verticalAlign=middle;spacingLeft=4;spacingRight=4;overflow=hidden;rotatable=0;points=[[0,0.5],[1,0.5]];portConstraint=eastwest;whiteSpace=wrap;" vertex="1" parent="iLU9ymKA7W34SFVJpaGz-68">
          <mxGeometry y="104" width="140" height="25" as="geometry" />
        </mxCell>
        <mxCell id="iLU9ymKA7W34SFVJpaGz-91" value="处罚措施" style="text;html=1;strokeColor=none;fillColor=none;align=left;verticalAlign=middle;spacingLeft=4;spacingRight=4;overflow=hidden;rotatable=0;points=[[0,0.5],[1,0.5]];portConstraint=eastwest;whiteSpace=wrap;" vertex="1" parent="iLU9ymKA7W34SFVJpaGz-68">
          <mxGeometry y="129" width="140" height="25" as="geometry" />
        </mxCell>
        <mxCell id="iLU9ymKA7W34SFVJpaGz-108" value="局方地址" style="text;html=1;strokeColor=none;fillColor=none;align=left;verticalAlign=middle;spacingLeft=4;spacingRight=4;overflow=hidden;rotatable=0;points=[[0,0.5],[1,0.5]];portConstraint=eastwest;whiteSpace=wrap;" vertex="1" parent="iLU9ymKA7W34SFVJpaGz-68">
          <mxGeometry y="154" width="140" height="25" as="geometry" />
        </mxCell>
        <mxCell id="iLU9ymKA7W34SFVJpaGz-109" value="邮编" style="text;html=1;strokeColor=none;fillColor=none;align=left;verticalAlign=middle;spacingLeft=4;spacingRight=4;overflow=hidden;rotatable=0;points=[[0,0.5],[1,0.5]];portConstraint=eastwest;whiteSpace=wrap;" vertex="1" parent="iLU9ymKA7W34SFVJpaGz-68">
          <mxGeometry y="179" width="140" height="25" as="geometry" />
        </mxCell>
        <mxCell id="iLU9ymKA7W34SFVJpaGz-110" value="听证组织机关" style="text;html=1;strokeColor=none;fillColor=none;align=left;verticalAlign=middle;spacingLeft=4;spacingRight=4;overflow=hidden;rotatable=0;points=[[0,0.5],[1,0.5]];portConstraint=eastwest;whiteSpace=wrap;" vertex="1" parent="iLU9ymKA7W34SFVJpaGz-68">
          <mxGeometry y="204" width="140" height="25" as="geometry" />
        </mxCell>
        <mxCell id="iLU9ymKA7W34SFVJpaGz-111" value="联系人" style="text;html=1;strokeColor=none;fillColor=none;align=left;verticalAlign=middle;spacingLeft=4;spacingRight=4;overflow=hidden;rotatable=0;points=[[0,0.5],[1,0.5]];portConstraint=eastwest;whiteSpace=wrap;" vertex="1" parent="iLU9ymKA7W34SFVJpaGz-68">
          <mxGeometry y="229" width="140" height="25" as="geometry" />
        </mxCell>
        <mxCell id="iLU9ymKA7W34SFVJpaGz-112" value="联系电话" style="text;html=1;strokeColor=none;fillColor=none;align=left;verticalAlign=middle;spacingLeft=4;spacingRight=4;overflow=hidden;rotatable=0;points=[[0,0.5],[1,0.5]];portConstraint=eastwest;whiteSpace=wrap;" vertex="1" parent="iLU9ymKA7W34SFVJpaGz-68">
          <mxGeometry y="254" width="140" height="25" as="geometry" />
        </mxCell>
        <mxCell id="iLU9ymKA7W34SFVJpaGz-113" value="签章" style="text;html=1;strokeColor=none;fillColor=none;align=left;verticalAlign=middle;spacingLeft=4;spacingRight=4;overflow=hidden;rotatable=0;points=[[0,0.5],[1,0.5]];portConstraint=eastwest;whiteSpace=wrap;" vertex="1" parent="iLU9ymKA7W34SFVJpaGz-68">
          <mxGeometry y="279" width="140" height="25" as="geometry" />
        </mxCell>
        <mxCell id="iLU9ymKA7W34SFVJpaGz-114" value="当事人签字附件" style="text;html=1;strokeColor=none;fillColor=none;align=left;verticalAlign=middle;spacingLeft=4;spacingRight=4;overflow=hidden;rotatable=0;points=[[0,0.5],[1,0.5]];portConstraint=eastwest;whiteSpace=wrap;" vertex="1" parent="iLU9ymKA7W34SFVJpaGz-68">
          <mxGeometry y="304" width="140" height="25" as="geometry" />
        </mxCell>
        <mxCell id="iLU9ymKA7W34SFVJpaGz-115" value="签字日期" style="text;html=1;strokeColor=none;fillColor=none;align=left;verticalAlign=middle;spacingLeft=4;spacingRight=4;overflow=hidden;rotatable=0;points=[[0,0.5],[1,0.5]];portConstraint=eastwest;whiteSpace=wrap;" vertex="1" parent="iLU9ymKA7W34SFVJpaGz-68">
          <mxGeometry y="329" width="140" height="25" as="geometry" />
        </mxCell>
        <mxCell id="iLU9ymKA7W34SFVJpaGz-71" value="&amp;lt;&amp;lt;enumeration&amp;gt;&amp;gt;&lt;br&gt;&lt;b&gt;阶段&lt;/b&gt;" style="swimlane;fontStyle=0;align=center;verticalAlign=top;childLayout=stackLayout;horizontal=1;startSize=40;horizontalStack=0;resizeParent=1;resizeParentMax=0;resizeLast=0;collapsible=0;marginBottom=0;html=1;whiteSpace=wrap;fillColor=#ffe6cc;strokeColor=#d79b00;" vertex="1" parent="xNy9LxgI-4osWVztLyFq-1">
          <mxGeometry x="1330" y="634" width="131" height="190" as="geometry" />
        </mxCell>
        <mxCell id="iLU9ymKA7W34SFVJpaGz-76" value="草稿" style="text;html=1;strokeColor=none;fillColor=none;align=left;verticalAlign=middle;spacingLeft=4;spacingRight=4;overflow=hidden;rotatable=0;points=[[0,0.5],[1,0.5]];portConstraint=eastwest;whiteSpace=wrap;" vertex="1" parent="iLU9ymKA7W34SFVJpaGz-71">
          <mxGeometry y="40" width="131" height="30" as="geometry" />
        </mxCell>
        <mxCell id="iLU9ymKA7W34SFVJpaGz-77" value="调查" style="text;html=1;strokeColor=none;fillColor=none;align=left;verticalAlign=middle;spacingLeft=4;spacingRight=4;overflow=hidden;rotatable=0;points=[[0,0.5],[1,0.5]];portConstraint=eastwest;whiteSpace=wrap;" vertex="1" parent="iLU9ymKA7W34SFVJpaGz-71">
          <mxGeometry y="70" width="131" height="30" as="geometry" />
        </mxCell>
        <mxCell id="iLU9ymKA7W34SFVJpaGz-78" value="听证" style="text;html=1;strokeColor=none;fillColor=none;align=left;verticalAlign=middle;spacingLeft=4;spacingRight=4;overflow=hidden;rotatable=0;points=[[0,0.5],[1,0.5]];portConstraint=eastwest;whiteSpace=wrap;" vertex="1" parent="iLU9ymKA7W34SFVJpaGz-71">
          <mxGeometry y="100" width="131" height="30" as="geometry" />
        </mxCell>
        <mxCell id="iLU9ymKA7W34SFVJpaGz-79" value="决定" style="text;html=1;strokeColor=none;fillColor=none;align=left;verticalAlign=middle;spacingLeft=4;spacingRight=4;overflow=hidden;rotatable=0;points=[[0,0.5],[1,0.5]];portConstraint=eastwest;whiteSpace=wrap;" vertex="1" parent="iLU9ymKA7W34SFVJpaGz-71">
          <mxGeometry y="130" width="131" height="30" as="geometry" />
        </mxCell>
        <mxCell id="iLU9ymKA7W34SFVJpaGz-80" value="已结案" style="text;html=1;strokeColor=none;fillColor=none;align=left;verticalAlign=middle;spacingLeft=4;spacingRight=4;overflow=hidden;rotatable=0;points=[[0,0.5],[1,0.5]];portConstraint=eastwest;whiteSpace=wrap;" vertex="1" parent="iLU9ymKA7W34SFVJpaGz-71">
          <mxGeometry y="160" width="131" height="30" as="geometry" />
        </mxCell>
        <mxCell id="iLU9ymKA7W34SFVJpaGz-136" style="edgeStyle=orthogonalEdgeStyle;rounded=0;orthogonalLoop=1;jettySize=auto;html=1;endArrow=block;endFill=0;endSize=16;" edge="1" parent="xNy9LxgI-4osWVztLyFq-1" source="iLU9ymKA7W34SFVJpaGz-92" target="iLU9ymKA7W34SFVJpaGz-63">
          <mxGeometry relative="1" as="geometry">
            <Array as="points">
              <mxPoint x="1784" y="1195" />
              <mxPoint x="1784" y="1195" />
            </Array>
          </mxGeometry>
        </mxCell>
        <mxCell id="iLU9ymKA7W34SFVJpaGz-92" value="行政处罚听通知书" style="swimlane;fontStyle=1;align=center;verticalAlign=middle;childLayout=stackLayout;horizontal=1;startSize=29;horizontalStack=0;resizeParent=1;resizeParentMax=0;resizeLast=0;collapsible=0;marginBottom=0;html=1;whiteSpace=wrap;fillColor=#ffe6cc;strokeColor=#d79b00;" vertex="1" parent="xNy9LxgI-4osWVztLyFq-1">
          <mxGeometry x="1714" y="1240" width="140" height="379" as="geometry" />
        </mxCell>
        <mxCell id="iLU9ymKA7W34SFVJpaGz-93" value="当事人" style="text;html=1;strokeColor=none;fillColor=none;align=left;verticalAlign=middle;spacingLeft=4;spacingRight=4;overflow=hidden;rotatable=0;points=[[0,0.5],[1,0.5]];portConstraint=eastwest;whiteSpace=wrap;" vertex="1" parent="iLU9ymKA7W34SFVJpaGz-92">
          <mxGeometry y="29" width="140" height="25" as="geometry" />
        </mxCell>
        <mxCell id="iLU9ymKA7W34SFVJpaGz-94" value="时间" style="text;html=1;strokeColor=none;fillColor=none;align=left;verticalAlign=middle;spacingLeft=4;spacingRight=4;overflow=hidden;rotatable=0;points=[[0,0.5],[1,0.5]];portConstraint=eastwest;whiteSpace=wrap;" vertex="1" parent="iLU9ymKA7W34SFVJpaGz-92">
          <mxGeometry y="54" width="140" height="25" as="geometry" />
        </mxCell>
        <mxCell id="iLU9ymKA7W34SFVJpaGz-95" value="是否公开" style="text;html=1;strokeColor=none;fillColor=none;align=left;verticalAlign=middle;spacingLeft=4;spacingRight=4;overflow=hidden;rotatable=0;points=[[0,0.5],[1,0.5]];portConstraint=eastwest;whiteSpace=wrap;" vertex="1" parent="iLU9ymKA7W34SFVJpaGz-92">
          <mxGeometry y="79" width="140" height="25" as="geometry" />
        </mxCell>
        <mxCell id="iLU9ymKA7W34SFVJpaGz-96" value="地点" style="text;html=1;strokeColor=none;fillColor=none;align=left;verticalAlign=middle;spacingLeft=4;spacingRight=4;overflow=hidden;rotatable=0;points=[[0,0.5],[1,0.5]];portConstraint=eastwest;whiteSpace=wrap;" vertex="1" parent="iLU9ymKA7W34SFVJpaGz-92">
          <mxGeometry y="104" width="140" height="25" as="geometry" />
        </mxCell>
        <mxCell id="iLU9ymKA7W34SFVJpaGz-97" value="主持人" style="text;html=1;strokeColor=none;fillColor=none;align=left;verticalAlign=middle;spacingLeft=4;spacingRight=4;overflow=hidden;rotatable=0;points=[[0,0.5],[1,0.5]];portConstraint=eastwest;whiteSpace=wrap;" vertex="1" parent="iLU9ymKA7W34SFVJpaGz-92">
          <mxGeometry y="129" width="140" height="25" as="geometry" />
        </mxCell>
        <mxCell id="iLU9ymKA7W34SFVJpaGz-98" value="听证员" style="text;html=1;strokeColor=none;fillColor=none;align=left;verticalAlign=middle;spacingLeft=4;spacingRight=4;overflow=hidden;rotatable=0;points=[[0,0.5],[1,0.5]];portConstraint=eastwest;whiteSpace=wrap;" vertex="1" parent="iLU9ymKA7W34SFVJpaGz-92">
          <mxGeometry y="154" width="140" height="25" as="geometry" />
        </mxCell>
        <mxCell id="iLU9ymKA7W34SFVJpaGz-99" value="书记员" style="text;html=1;strokeColor=none;fillColor=none;align=left;verticalAlign=middle;spacingLeft=4;spacingRight=4;overflow=hidden;rotatable=0;points=[[0,0.5],[1,0.5]];portConstraint=eastwest;whiteSpace=wrap;" vertex="1" parent="iLU9ymKA7W34SFVJpaGz-92">
          <mxGeometry y="179" width="140" height="25" as="geometry" />
        </mxCell>
        <mxCell id="iLU9ymKA7W34SFVJpaGz-100" value="延期申请 deadline" style="text;html=1;strokeColor=none;fillColor=none;align=left;verticalAlign=middle;spacingLeft=4;spacingRight=4;overflow=hidden;rotatable=0;points=[[0,0.5],[1,0.5]];portConstraint=eastwest;whiteSpace=wrap;" vertex="1" parent="iLU9ymKA7W34SFVJpaGz-92">
          <mxGeometry y="204" width="140" height="25" as="geometry" />
        </mxCell>
        <mxCell id="iLU9ymKA7W34SFVJpaGz-101" value="地址" style="text;html=1;strokeColor=none;fillColor=none;align=left;verticalAlign=middle;spacingLeft=4;spacingRight=4;overflow=hidden;rotatable=0;points=[[0,0.5],[1,0.5]];portConstraint=eastwest;whiteSpace=wrap;" vertex="1" parent="iLU9ymKA7W34SFVJpaGz-92">
          <mxGeometry y="229" width="140" height="25" as="geometry" />
        </mxCell>
        <mxCell id="iLU9ymKA7W34SFVJpaGz-102" value="联系人" style="text;html=1;strokeColor=none;fillColor=none;align=left;verticalAlign=middle;spacingLeft=4;spacingRight=4;overflow=hidden;rotatable=0;points=[[0,0.5],[1,0.5]];portConstraint=eastwest;whiteSpace=wrap;" vertex="1" parent="iLU9ymKA7W34SFVJpaGz-92">
          <mxGeometry y="254" width="140" height="25" as="geometry" />
        </mxCell>
        <mxCell id="iLU9ymKA7W34SFVJpaGz-103" value="联系电话" style="text;html=1;strokeColor=none;fillColor=none;align=left;verticalAlign=middle;spacingLeft=4;spacingRight=4;overflow=hidden;rotatable=0;points=[[0,0.5],[1,0.5]];portConstraint=eastwest;whiteSpace=wrap;" vertex="1" parent="iLU9ymKA7W34SFVJpaGz-92">
          <mxGeometry y="279" width="140" height="25" as="geometry" />
        </mxCell>
        <mxCell id="iLU9ymKA7W34SFVJpaGz-104" value="签章" style="text;html=1;strokeColor=none;fillColor=none;align=left;verticalAlign=middle;spacingLeft=4;spacingRight=4;overflow=hidden;rotatable=0;points=[[0,0.5],[1,0.5]];portConstraint=eastwest;whiteSpace=wrap;" vertex="1" parent="iLU9ymKA7W34SFVJpaGz-92">
          <mxGeometry y="304" width="140" height="25" as="geometry" />
        </mxCell>
        <mxCell id="iLU9ymKA7W34SFVJpaGz-106" value="当事人签字附件" style="text;html=1;strokeColor=none;fillColor=none;align=left;verticalAlign=middle;spacingLeft=4;spacingRight=4;overflow=hidden;rotatable=0;points=[[0,0.5],[1,0.5]];portConstraint=eastwest;whiteSpace=wrap;" vertex="1" parent="iLU9ymKA7W34SFVJpaGz-92">
          <mxGeometry y="329" width="140" height="25" as="geometry" />
        </mxCell>
        <mxCell id="iLU9ymKA7W34SFVJpaGz-107" value="签字日期" style="text;html=1;strokeColor=none;fillColor=none;align=left;verticalAlign=middle;spacingLeft=4;spacingRight=4;overflow=hidden;rotatable=0;points=[[0,0.5],[1,0.5]];portConstraint=eastwest;whiteSpace=wrap;" vertex="1" parent="iLU9ymKA7W34SFVJpaGz-92">
          <mxGeometry y="354" width="140" height="25" as="geometry" />
        </mxCell>
        <mxCell id="iLU9ymKA7W34SFVJpaGz-137" style="edgeStyle=orthogonalEdgeStyle;rounded=0;orthogonalLoop=1;jettySize=auto;html=1;endArrow=block;endFill=0;endSize=16;" edge="1" parent="xNy9LxgI-4osWVztLyFq-1" source="iLU9ymKA7W34SFVJpaGz-116" target="iLU9ymKA7W34SFVJpaGz-63">
          <mxGeometry relative="1" as="geometry">
            <Array as="points">
              <mxPoint x="1961" y="1141" />
              <mxPoint x="1820" y="1141" />
            </Array>
          </mxGeometry>
        </mxCell>
        <mxCell id="iLU9ymKA7W34SFVJpaGz-116" value="行政处罚决定书" style="swimlane;fontStyle=1;align=center;verticalAlign=middle;childLayout=stackLayout;horizontal=1;startSize=29;horizontalStack=0;resizeParent=1;resizeParentMax=0;resizeLast=0;collapsible=0;marginBottom=0;html=1;whiteSpace=wrap;fillColor=#ffe6cc;strokeColor=#d79b00;" vertex="1" parent="xNy9LxgI-4osWVztLyFq-1">
          <mxGeometry x="1891" y="1243" width="140" height="479" as="geometry" />
        </mxCell>
        <mxCell id="iLU9ymKA7W34SFVJpaGz-117" value="当事人" style="text;html=1;strokeColor=none;fillColor=none;align=left;verticalAlign=middle;spacingLeft=4;spacingRight=4;overflow=hidden;rotatable=0;points=[[0,0.5],[1,0.5]];portConstraint=eastwest;whiteSpace=wrap;" vertex="1" parent="iLU9ymKA7W34SFVJpaGz-116">
          <mxGeometry y="29" width="140" height="25" as="geometry" />
        </mxCell>
        <mxCell id="iLU9ymKA7W34SFVJpaGz-118" value="时间" style="text;html=1;strokeColor=none;fillColor=none;align=left;verticalAlign=middle;spacingLeft=4;spacingRight=4;overflow=hidden;rotatable=0;points=[[0,0.5],[1,0.5]];portConstraint=eastwest;whiteSpace=wrap;" vertex="1" parent="iLU9ymKA7W34SFVJpaGz-116">
          <mxGeometry y="54" width="140" height="25" as="geometry" />
        </mxCell>
        <mxCell id="iLU9ymKA7W34SFVJpaGz-119" value="违法行为" style="text;html=1;strokeColor=none;fillColor=none;align=left;verticalAlign=middle;spacingLeft=4;spacingRight=4;overflow=hidden;rotatable=0;points=[[0,0.5],[1,0.5]];portConstraint=eastwest;whiteSpace=wrap;" vertex="1" parent="iLU9ymKA7W34SFVJpaGz-116">
          <mxGeometry y="79" width="140" height="25" as="geometry" />
        </mxCell>
        <mxCell id="iLU9ymKA7W34SFVJpaGz-120" value="事实" style="text;html=1;strokeColor=none;fillColor=none;align=left;verticalAlign=middle;spacingLeft=4;spacingRight=4;overflow=hidden;rotatable=0;points=[[0,0.5],[1,0.5]];portConstraint=eastwest;whiteSpace=wrap;" vertex="1" parent="iLU9ymKA7W34SFVJpaGz-116">
          <mxGeometry y="104" width="140" height="25" as="geometry" />
        </mxCell>
        <mxCell id="iLU9ymKA7W34SFVJpaGz-121" value="证据" style="text;html=1;strokeColor=none;fillColor=none;align=left;verticalAlign=middle;spacingLeft=4;spacingRight=4;overflow=hidden;rotatable=0;points=[[0,0.5],[1,0.5]];portConstraint=eastwest;whiteSpace=wrap;" vertex="1" parent="iLU9ymKA7W34SFVJpaGz-116">
          <mxGeometry y="129" width="140" height="25" as="geometry" />
        </mxCell>
        <mxCell id="iLU9ymKA7W34SFVJpaGz-122" value="违反法规" style="text;html=1;strokeColor=none;fillColor=none;align=left;verticalAlign=middle;spacingLeft=4;spacingRight=4;overflow=hidden;rotatable=0;points=[[0,0.5],[1,0.5]];portConstraint=eastwest;whiteSpace=wrap;" vertex="1" parent="iLU9ymKA7W34SFVJpaGz-116">
          <mxGeometry y="154" width="140" height="25" as="geometry" />
        </mxCell>
        <mxCell id="iLU9ymKA7W34SFVJpaGz-123" value="处罚方式" style="text;html=1;strokeColor=none;fillColor=none;align=left;verticalAlign=middle;spacingLeft=4;spacingRight=4;overflow=hidden;rotatable=0;points=[[0,0.5],[1,0.5]];portConstraint=eastwest;whiteSpace=wrap;" vertex="1" parent="iLU9ymKA7W34SFVJpaGz-116">
          <mxGeometry y="179" width="140" height="25" as="geometry" />
        </mxCell>
        <mxCell id="iLU9ymKA7W34SFVJpaGz-124" value="时限" style="text;html=1;strokeColor=none;fillColor=none;align=left;verticalAlign=middle;spacingLeft=4;spacingRight=4;overflow=hidden;rotatable=0;points=[[0,0.5],[1,0.5]];portConstraint=eastwest;whiteSpace=wrap;" vertex="1" parent="iLU9ymKA7W34SFVJpaGz-116">
          <mxGeometry y="204" width="140" height="25" as="geometry" />
        </mxCell>
        <mxCell id="iLU9ymKA7W34SFVJpaGz-125" value="账号地址" style="text;html=1;strokeColor=none;fillColor=none;align=left;verticalAlign=middle;spacingLeft=4;spacingRight=4;overflow=hidden;rotatable=0;points=[[0,0.5],[1,0.5]];portConstraint=eastwest;whiteSpace=wrap;" vertex="1" parent="iLU9ymKA7W34SFVJpaGz-116">
          <mxGeometry y="229" width="140" height="25" as="geometry" />
        </mxCell>
        <mxCell id="iLU9ymKA7W34SFVJpaGz-126" value="账号名" style="text;html=1;strokeColor=none;fillColor=none;align=left;verticalAlign=middle;spacingLeft=4;spacingRight=4;overflow=hidden;rotatable=0;points=[[0,0.5],[1,0.5]];portConstraint=eastwest;whiteSpace=wrap;" vertex="1" parent="iLU9ymKA7W34SFVJpaGz-116">
          <mxGeometry y="254" width="140" height="25" as="geometry" />
        </mxCell>
        <mxCell id="iLU9ymKA7W34SFVJpaGz-127" value="账号" style="text;html=1;strokeColor=none;fillColor=none;align=left;verticalAlign=middle;spacingLeft=4;spacingRight=4;overflow=hidden;rotatable=0;points=[[0,0.5],[1,0.5]];portConstraint=eastwest;whiteSpace=wrap;" vertex="1" parent="iLU9ymKA7W34SFVJpaGz-116">
          <mxGeometry y="279" width="140" height="25" as="geometry" />
        </mxCell>
        <mxCell id="iLU9ymKA7W34SFVJpaGz-128" value="预算科目" style="text;html=1;strokeColor=none;fillColor=none;align=left;verticalAlign=middle;spacingLeft=4;spacingRight=4;overflow=hidden;rotatable=0;points=[[0,0.5],[1,0.5]];portConstraint=eastwest;whiteSpace=wrap;" vertex="1" parent="iLU9ymKA7W34SFVJpaGz-116">
          <mxGeometry y="304" width="140" height="25" as="geometry" />
        </mxCell>
        <mxCell id="iLU9ymKA7W34SFVJpaGz-129" value="预算次级" style="text;html=1;strokeColor=none;fillColor=none;align=left;verticalAlign=middle;spacingLeft=4;spacingRight=4;overflow=hidden;rotatable=0;points=[[0,0.5],[1,0.5]];portConstraint=eastwest;whiteSpace=wrap;" vertex="1" parent="iLU9ymKA7W34SFVJpaGz-116">
          <mxGeometry y="329" width="140" height="25" as="geometry" />
        </mxCell>
        <mxCell id="iLU9ymKA7W34SFVJpaGz-130" value="其他处罚" style="text;html=1;strokeColor=none;fillColor=none;align=left;verticalAlign=middle;spacingLeft=4;spacingRight=4;overflow=hidden;rotatable=0;points=[[0,0.5],[1,0.5]];portConstraint=eastwest;whiteSpace=wrap;" vertex="1" parent="iLU9ymKA7W34SFVJpaGz-116">
          <mxGeometry y="354" width="140" height="25" as="geometry" />
        </mxCell>
        <mxCell id="iLU9ymKA7W34SFVJpaGz-131" value="整改期限" style="text;html=1;strokeColor=none;fillColor=none;align=left;verticalAlign=middle;spacingLeft=4;spacingRight=4;overflow=hidden;rotatable=0;points=[[0,0.5],[1,0.5]];portConstraint=eastwest;whiteSpace=wrap;" vertex="1" parent="iLU9ymKA7W34SFVJpaGz-116">
          <mxGeometry y="379" width="140" height="25" as="geometry" />
        </mxCell>
        <mxCell id="iLU9ymKA7W34SFVJpaGz-132" value="行政复议期限" style="text;html=1;strokeColor=none;fillColor=none;align=left;verticalAlign=middle;spacingLeft=4;spacingRight=4;overflow=hidden;rotatable=0;points=[[0,0.5],[1,0.5]];portConstraint=eastwest;whiteSpace=wrap;" vertex="1" parent="iLU9ymKA7W34SFVJpaGz-116">
          <mxGeometry y="404" width="140" height="25" as="geometry" />
        </mxCell>
        <mxCell id="iLU9ymKA7W34SFVJpaGz-133" value="上诉期限" style="text;html=1;strokeColor=none;fillColor=none;align=left;verticalAlign=middle;spacingLeft=4;spacingRight=4;overflow=hidden;rotatable=0;points=[[0,0.5],[1,0.5]];portConstraint=eastwest;whiteSpace=wrap;" vertex="1" parent="iLU9ymKA7W34SFVJpaGz-116">
          <mxGeometry y="429" width="140" height="25" as="geometry" />
        </mxCell>
        <mxCell id="iLU9ymKA7W34SFVJpaGz-134" value="上诉法院" style="text;html=1;strokeColor=none;fillColor=none;align=left;verticalAlign=middle;spacingLeft=4;spacingRight=4;overflow=hidden;rotatable=0;points=[[0,0.5],[1,0.5]];portConstraint=eastwest;whiteSpace=wrap;" vertex="1" parent="iLU9ymKA7W34SFVJpaGz-116">
          <mxGeometry y="454" width="140" height="25" as="geometry" />
        </mxCell>
        <mxCell id="iLU9ymKA7W34SFVJpaGz-142" value="&amp;lt;&amp;lt;enumeration&amp;gt;&amp;gt;&lt;br&gt;&lt;b&gt;阶段&lt;/b&gt;" style="swimlane;fontStyle=0;align=center;verticalAlign=top;childLayout=stackLayout;horizontal=1;startSize=40;horizontalStack=0;resizeParent=1;resizeParentMax=0;resizeLast=0;collapsible=0;marginBottom=0;html=1;whiteSpace=wrap;fillColor=#ffe6cc;strokeColor=#d79b00;" vertex="1" parent="xNy9LxgI-4osWVztLyFq-1">
          <mxGeometry x="2003" y="887" width="131" height="100" as="geometry" />
        </mxCell>
        <mxCell id="iLU9ymKA7W34SFVJpaGz-143" value="草稿" style="text;html=1;strokeColor=none;fillColor=none;align=left;verticalAlign=middle;spacingLeft=4;spacingRight=4;overflow=hidden;rotatable=0;points=[[0,0.5],[1,0.5]];portConstraint=eastwest;whiteSpace=wrap;" vertex="1" parent="iLU9ymKA7W34SFVJpaGz-142">
          <mxGeometry y="40" width="131" height="30" as="geometry" />
        </mxCell>
        <mxCell id="iLU9ymKA7W34SFVJpaGz-144" value="下发" style="text;html=1;strokeColor=none;fillColor=none;align=left;verticalAlign=middle;spacingLeft=4;spacingRight=4;overflow=hidden;rotatable=0;points=[[0,0.5],[1,0.5]];portConstraint=eastwest;whiteSpace=wrap;" vertex="1" parent="iLU9ymKA7W34SFVJpaGz-142">
          <mxGeometry y="70" width="131" height="30" as="geometry" />
        </mxCell>
        <mxCell id="iLU9ymKA7W34SFVJpaGz-150" value="&amp;lt;&amp;lt;enumeration&amp;gt;&amp;gt;&lt;br&gt;&lt;b&gt;文档类型&lt;/b&gt;" style="swimlane;fontStyle=0;align=center;verticalAlign=top;childLayout=stackLayout;horizontal=1;startSize=40;horizontalStack=0;resizeParent=1;resizeParentMax=0;resizeLast=0;collapsible=0;marginBottom=0;html=1;whiteSpace=wrap;fillColor=#ffe6cc;strokeColor=#d79b00;" vertex="1" parent="xNy9LxgI-4osWVztLyFq-1">
          <mxGeometry x="1761" y="304" width="343" height="490" as="geometry" />
        </mxCell>
        <mxCell id="iLU9ymKA7W34SFVJpaGz-151" value="民用航空调查笔录 【当事人】&amp;nbsp; 【调查】" style="text;html=1;strokeColor=none;fillColor=none;align=left;verticalAlign=middle;spacingLeft=4;spacingRight=4;overflow=hidden;rotatable=0;points=[[0,0.5],[1,0.5]];portConstraint=eastwest;whiteSpace=wrap;" vertex="1" parent="iLU9ymKA7W34SFVJpaGz-150">
          <mxGeometry y="40" width="343" height="30" as="geometry" />
        </mxCell>
        <mxCell id="iLU9ymKA7W34SFVJpaGz-152" value="民用航空行政案件笔录 【当事人】【调查】" style="text;html=1;strokeColor=none;fillColor=none;align=left;verticalAlign=middle;spacingLeft=4;spacingRight=4;overflow=hidden;rotatable=0;points=[[0,0.5],[1,0.5]];portConstraint=eastwest;whiteSpace=wrap;" vertex="1" parent="iLU9ymKA7W34SFVJpaGz-150">
          <mxGeometry y="70" width="343" height="30" as="geometry" />
        </mxCell>
        <mxCell id="iLU9ymKA7W34SFVJpaGz-153" value="证据登记保存通知书 【调查】" style="text;html=1;strokeColor=none;fillColor=none;align=left;verticalAlign=middle;spacingLeft=4;spacingRight=4;overflow=hidden;rotatable=0;points=[[0,0.5],[1,0.5]];portConstraint=eastwest;whiteSpace=wrap;" vertex="1" parent="iLU9ymKA7W34SFVJpaGz-150">
          <mxGeometry y="100" width="343" height="30" as="geometry" />
        </mxCell>
        <mxCell id="iLU9ymKA7W34SFVJpaGz-154" value="等级保存证据退还清单 【调查】" style="text;html=1;strokeColor=none;fillColor=none;align=left;verticalAlign=middle;spacingLeft=4;spacingRight=4;overflow=hidden;rotatable=0;points=[[0,0.5],[1,0.5]];portConstraint=eastwest;whiteSpace=wrap;" vertex="1" parent="iLU9ymKA7W34SFVJpaGz-150">
          <mxGeometry y="130" width="343" height="30" as="geometry" />
        </mxCell>
        <mxCell id="iLU9ymKA7W34SFVJpaGz-155" value="民用航空行政案件调查报告 【调查】" style="text;html=1;strokeColor=none;fillColor=none;align=left;verticalAlign=middle;spacingLeft=4;spacingRight=4;overflow=hidden;rotatable=0;points=[[0,0.5],[1,0.5]];portConstraint=eastwest;whiteSpace=wrap;" vertex="1" parent="iLU9ymKA7W34SFVJpaGz-150">
          <mxGeometry y="160" width="343" height="30" as="geometry" />
        </mxCell>
        <mxCell id="iLU9ymKA7W34SFVJpaGz-156" value="民用航空行政处罚听证告知书 【当事人】【听证】【生成】" style="text;html=1;strokeColor=none;fillColor=none;align=left;verticalAlign=middle;spacingLeft=4;spacingRight=4;overflow=hidden;rotatable=0;points=[[0,0.5],[1,0.5]];portConstraint=eastwest;whiteSpace=wrap;" vertex="1" parent="iLU9ymKA7W34SFVJpaGz-150">
          <mxGeometry y="190" width="343" height="30" as="geometry" />
        </mxCell>
        <mxCell id="iLU9ymKA7W34SFVJpaGz-158" value="民用航空行政处罚听证申请书【当事人】【听证】" style="text;html=1;strokeColor=none;fillColor=none;align=left;verticalAlign=middle;spacingLeft=4;spacingRight=4;overflow=hidden;rotatable=0;points=[[0,0.5],[1,0.5]];portConstraint=eastwest;whiteSpace=wrap;" vertex="1" parent="iLU9ymKA7W34SFVJpaGz-150">
          <mxGeometry y="220" width="343" height="30" as="geometry" />
        </mxCell>
        <mxCell id="iLU9ymKA7W34SFVJpaGz-159" value="民用航空行政处罚听证通知书【当事人】【听证】 【生成】" style="text;html=1;strokeColor=none;fillColor=none;align=left;verticalAlign=middle;spacingLeft=4;spacingRight=4;overflow=hidden;rotatable=0;points=[[0,0.5],[1,0.5]];portConstraint=eastwest;whiteSpace=wrap;" vertex="1" parent="iLU9ymKA7W34SFVJpaGz-150">
          <mxGeometry y="250" width="343" height="30" as="geometry" />
        </mxCell>
        <mxCell id="iLU9ymKA7W34SFVJpaGz-160" value="民用航空行政处罚听证延期申请书【当事人】【听证】" style="text;html=1;strokeColor=none;fillColor=none;align=left;verticalAlign=middle;spacingLeft=4;spacingRight=4;overflow=hidden;rotatable=0;points=[[0,0.5],[1,0.5]];portConstraint=eastwest;whiteSpace=wrap;" vertex="1" parent="iLU9ymKA7W34SFVJpaGz-150">
          <mxGeometry y="280" width="343" height="30" as="geometry" />
        </mxCell>
        <mxCell id="iLU9ymKA7W34SFVJpaGz-161" value="民用航空行政处罚听证笔录【当事人】【听证】" style="text;html=1;strokeColor=none;fillColor=none;align=left;verticalAlign=middle;spacingLeft=4;spacingRight=4;overflow=hidden;rotatable=0;points=[[0,0.5],[1,0.5]];portConstraint=eastwest;whiteSpace=wrap;" vertex="1" parent="iLU9ymKA7W34SFVJpaGz-150">
          <mxGeometry y="310" width="343" height="30" as="geometry" />
        </mxCell>
        <mxCell id="iLU9ymKA7W34SFVJpaGz-162" value="民用航空行政处罚事先告知书【当事人】【决定】" style="text;html=1;strokeColor=none;fillColor=none;align=left;verticalAlign=middle;spacingLeft=4;spacingRight=4;overflow=hidden;rotatable=0;points=[[0,0.5],[1,0.5]];portConstraint=eastwest;whiteSpace=wrap;" vertex="1" parent="iLU9ymKA7W34SFVJpaGz-150">
          <mxGeometry y="340" width="343" height="30" as="geometry" />
        </mxCell>
        <mxCell id="iLU9ymKA7W34SFVJpaGz-164" value="当事人陈述和申辩笔录【当事人】【决定】" style="text;html=1;strokeColor=none;fillColor=none;align=left;verticalAlign=middle;spacingLeft=4;spacingRight=4;overflow=hidden;rotatable=0;points=[[0,0.5],[1,0.5]];portConstraint=eastwest;whiteSpace=wrap;" vertex="1" parent="iLU9ymKA7W34SFVJpaGz-150">
          <mxGeometry y="370" width="343" height="30" as="geometry" />
        </mxCell>
        <mxCell id="iLU9ymKA7W34SFVJpaGz-165" value="呈批件或局务会纪要文件【决定】" style="text;html=1;strokeColor=none;fillColor=none;align=left;verticalAlign=middle;spacingLeft=4;spacingRight=4;overflow=hidden;rotatable=0;points=[[0,0.5],[1,0.5]];portConstraint=eastwest;whiteSpace=wrap;" vertex="1" parent="iLU9ymKA7W34SFVJpaGz-150">
          <mxGeometry y="400" width="343" height="30" as="geometry" />
        </mxCell>
        <mxCell id="iLU9ymKA7W34SFVJpaGz-166" value="民用航空行政处罚决定书【当事人】【决定】【生成】" style="text;html=1;strokeColor=none;fillColor=none;align=left;verticalAlign=middle;spacingLeft=4;spacingRight=4;overflow=hidden;rotatable=0;points=[[0,0.5],[1,0.5]];portConstraint=eastwest;whiteSpace=wrap;" vertex="1" parent="iLU9ymKA7W34SFVJpaGz-150">
          <mxGeometry y="430" width="343" height="30" as="geometry" />
        </mxCell>
        <mxCell id="iLU9ymKA7W34SFVJpaGz-167" value="民用航空行政处罚案件结案报告【结案】" style="text;html=1;strokeColor=none;fillColor=none;align=left;verticalAlign=middle;spacingLeft=4;spacingRight=4;overflow=hidden;rotatable=0;points=[[0,0.5],[1,0.5]];portConstraint=eastwest;whiteSpace=wrap;" vertex="1" parent="iLU9ymKA7W34SFVJpaGz-150">
          <mxGeometry y="460" width="343" height="30" as="geometry" />
        </mxCell>
      </root>
    </mxGraphModel>
  </diagram>
</mxfile>
